<svg xmlns="http://www.w3.org/2000/svg" viewBox="0 0 369.8 289.74"><defs><style>.cls-1,.cls-2{fill:none;stroke:#231f20;stroke-linejoin:bevel;stroke-width:0.4px;}.cls-2,.cls-3{fill-rule:evenodd;}.cls-3{fill:#00ada8;}.cls-4{font-size:8px;fill:#231f20;font-family:ProximaNova-Regular, Proxima Nova;}.cls-5{letter-spacing:-0.03em;}.cls-6{letter-spacing:-0.1em;}.cls-7{letter-spacing:-0.03em;}.cls-8{letter-spacing:0em;}.cls-9{letter-spacing:0em;}.cls-10{letter-spacing:-0.04em;}.cls-11{letter-spacing:-0.03em;}.cls-12{letter-spacing:-0.03em;}</style></defs><title>3 комнатная_1</title><g id="Layer_2" data-name="Layer 2"><g id="Layer_1-2" data-name="Layer 1"><rect class="cls-1" x="228.72" y="171.31" width="15.82" height="27.32"/><path class="cls-2" d="M275,198.63h2.7a2.29,2.29,0,0,0,2.28-2.28V173.59a2.29,2.29,0,0,0-2.28-2.28H275Z"/><path class="cls-2" d="M275,196.74h1.94a2.28,2.28,0,0,0,2.28-2.27v-19a2.29,2.29,0,0,0-2.28-2.28H275Z"/><rect class="cls-1" x="228.72" y="173.19" width="15.82" height="23.55"/><path class="cls-2" d="M230.33,192.67,242.19,194a1.25,1.25,0,0,0,1.37-1.1l1-9.23v-6.29a1.13,1.13,0,0,0-.54-.22l-11.86-1.31a1.25,1.25,0,0,0-1.37,1.1l-1.58,14.37A1.24,1.24,0,0,0,230.33,192.67Z"/><path class="cls-2" d="M242.13,191a1,1,0,0,1-1.06.84l-9.2-1a1,1,0,0,1-.85-1.05l1.22-11a1,1,0,0,1,1.06-.84l9.2,1a1,1,0,0,1,.85,1.06"/><path class="cls-2" d="M242.29,189.61l-.16,1.43a1,1,0,0,1-1.06.84l-9.2-1a1,1,0,0,1-.85-1.05l1.22-11a1,1,0,0,1,1.06-.84l9.2,1a1,1,0,0,1,.85,1.06l-.3,2.69"/><path class="cls-2" d="M242.47,182.52a.84.84,0,0,1,.95.72l.72,5.31a.84.84,0,0,1-.73.94l-4.8.65a.85.85,0,0,1-1-.71l-.71-5.32a.84.84,0,0,1,.72-.94Z"/><path class="cls-2" d="M242.47,182.52a.84.84,0,0,1,.95.72l.72,5.31a.84.84,0,0,1-.73.94l-4.8.65a.85.85,0,0,1-1-.71l-.71-5.32a.84.84,0,0,1,.72-.94Z"/><path class="cls-2" d="M272.69,169.55a2.08,2.08,0,0,1,2.28,1.79v27.29a2.08,2.08,0,0,1-2.28,1.79H246.86a2.08,2.08,0,0,1-2.28-1.79V171.34a2.08,2.08,0,0,1,2.28-1.79h25.83Z"/><rect class="cls-1" x="226.53" y="171.31" width="1.88" height="27.31"/><path class="cls-3" d="M32.4,13.07H5.64v91.08H39.48v13.44H76.2v2H5.64V238.42H47.4v7.92H8.76V281H49.92v8.52H0V7.43H32.4v5.64ZM204,32.15V13.07H360.72v27h8.88V7.43H60.72v5.64h4.2V72.83l10.8,10.8h9V81.47H76.56L67,72V32.15H77.64V13.07h55.92v68.4H107.28v2.16H258.36v5.64h2v-7.8H204V54.71h-2.16V81.47H146.28V63.83H135.6V24.35h14.76V13.07h51.48V32.15Zm-68.4-10V13.07h12.6v9.12Zm0,43.8h8.52V81.47H135.6V66ZM75.48,30V13.07H67V30Zm182.88,84.72h2v2.88H360.72v-18h8.88v59.27H352.44V123.23H319.08v-3.6H256.92v-2h1.44v-2.88Zm94,129.23V218.38H369.6v25.56h0v14.52H322.92V243.94ZM220.2,117.59H184v2H220.2V126h2.88V280.54H194.64v9H235.2V258.46h28.2V243.94H228.72V202.18h-3.6V126h6.36V114.71H220.2v2.88ZM17.64,106.19v11.4H37.32v-11.4Zm-2.16,11.4v-11.4H5.64v11.4Zm86.16,2h2.76v40.2H110v-40.2H141.6v-2h-40v2Zm2.76,118.79V202.18H110v78.36h25.08v9H99V281h2.28V246.34H96v-7.92h8.4Z"/><rect class="cls-1" x="49.92" y="278.14" width="49.08" height="11.4"/><rect class="cls-1" x="72.42" y="282.48" width="4.07" height="2.26"/><path class="cls-2" d="M54,284.18H72.42m4.08,0H94.93"/><path class="cls-2" d="M54,283.05H72.42m4.08,0H94.93"/><rect class="cls-1" x="94.93" y="282.48" width="4.07" height="2.26"/><rect class="cls-1" x="49.92" y="282.48" width="4.07" height="2.26"/><rect class="cls-1" x="135.12" y="277.66" width="59.52" height="11.88"/><rect class="cls-1" x="162.84" y="282.48" width="4.07" height="2.26"/><path class="cls-2" d="M139.19,284.18h23.65m4.08,0h23.65"/><path class="cls-2" d="M139.19,283.05h23.65m4.08,0h23.65"/><rect class="cls-1" x="190.57" y="282.48" width="4.07" height="2.26"/><rect class="cls-1" x="135.12" y="282.48" width="4.07" height="2.26"/><rect class="cls-1" x="263.4" y="241.06" width="59.52" height="17.4"/><rect class="cls-1" x="291.12" y="251.4" width="4.07" height="2.26"/><path class="cls-2" d="M267.47,253.1h23.65m4.08,0h23.65"/><path class="cls-2" d="M267.47,252h23.65m4.08,0h23.65"/><rect class="cls-1" x="318.85" y="251.4" width="4.07" height="2.26"/><rect class="cls-1" x="263.4" y="251.4" width="4.07" height="2.26"/><rect class="cls-1" x="349.44" y="158.86" width="20.16" height="59.52"/><rect class="cls-1" x="362.53" y="186.59" width="2.26" height="4.07"/><path class="cls-2" d="M364.23,214.31V190.66m0-4.07V162.94"/><path class="cls-2" d="M363.1,214.31V190.66m0-4.07V162.94"/><rect class="cls-1" x="362.53" y="158.86" width="2.26" height="4.07"/><rect class="cls-1" x="362.53" y="214.31" width="2.26" height="4.07"/><rect class="cls-1" x="357.84" y="40.07" width="11.76" height="59.52"/><rect class="cls-1" x="362.53" y="67.79" width="2.26" height="4.07"/><path class="cls-2" d="M364.23,95.51V71.86m0-4.07V44.14"/><path class="cls-2" d="M363.1,95.51V71.86m0-4.07V44.14"/><rect class="cls-1" x="362.53" y="40.07" width="2.26" height="4.07"/><rect class="cls-1" x="362.53" y="95.51" width="2.26" height="4.07"/><line class="cls-1" x1="96" y1="240.85" x2="96" y2="243.61"/><rect class="cls-1" x="85" y="225.71" width="0.42" height="22.18" transform="translate(-166.18 225.06) rotate(-67.54)"/><rect class="cls-1" x="47.4" y="237.68" width="26.33" height="9.52"/><rect class="cls-1" x="69.66" y="241.3" width="4.07" height="2.26"/><line class="cls-1" x1="69.66" y1="242.94" x2="50.91" y2="243.01"/><line class="cls-1" x1="69.66" y1="241.81" x2="50.9" y2="241.81"/><rect class="cls-1" x="47.4" y="241.3" width="3.51" height="2.26"/><rect class="cls-1" x="78.03" y="122.75" width="23.83" height="0.45" transform="translate(-40.2 43.77) rotate(-22.49)"/><rect class="cls-1" x="252.88" y="103.43" width="23.53" height="0.44" transform="translate(49.18 289) rotate(-62.09)"/><rect class="cls-1" x="242.8" y="111.06" width="0.45" height="23.83" transform="translate(36.43 300.46) rotate(-67.51)"/><rect class="cls-1" x="207.68" y="31.49" width="0.4" height="21.29" transform="translate(4.44 102.16) rotate(-27.9)"/><rect class="cls-1" x="48.13" y="-7.47" width="0.48" height="25.51" transform="translate(24.99 47.96) rotate(-67.51)"/><rect class="cls-1" x="87.17" y="85.92" width="20.34" height="0.38" transform="translate(-25.54 43.8) rotate(-22.5)"/><rect class="cls-1" x="102.97" y="151.35" width="0.45" height="23.83"/><rect class="cls-1" x="102.97" y="185.33" width="0.45" height="23.83"/><rect class="cls-1" x="165.04" y="122.73" width="19.32" height="0.37" transform="translate(-37.22 96.13) rotate(-27.93)"/><rect class="cls-1" x="150.54" y="113.25" width="0.37" height="19.34" transform="translate(-28.49 198.48) rotate(-62.06)"/><rect class="cls-1" x="27.37" y="121.39" width="31.94" height="14.02" rx="0.9"/><line class="cls-1" x1="57.99" y1="123.09" x2="45.04" y2="123.09"/><line class="cls-1" x1="57.99" y1="125.21" x2="45.04" y2="125.21"/><line class="cls-1" x1="57.99" y1="127.34" x2="45.04" y2="127.34"/><line class="cls-1" x1="57.99" y1="129.46" x2="45.04" y2="129.46"/><line class="cls-1" x1="57.99" y1="131.59" x2="45.04" y2="131.59"/><line class="cls-1" x1="57.99" y1="133.71" x2="45.04" y2="133.71"/><polygon class="cls-2" points="65.71 136.32 22.43 136.32 22.43 217.62 6.49 217.62 6.49 120.48 65.71 120.48 65.71 136.32"/><rect class="cls-1" x="6.49" y="218.47" width="16.05" height="19.1"/><polygon class="cls-2" points="23.7 237.57 23.7 218.88 23.32 218.88 23.12 218.68 23.12 218.47 22.54 218.47 22.54 237.57 23.7 237.57"/><rect class="cls-1" x="24.71" y="219.32" width="0.58" height="17.46"/><polygon class="cls-2" points="23.7 237.57 23.71 218.47 24.1 218.47 24.1 235.31 24.1 236.34 24.1 236.55 24.1 236.78 24.1 237.57 23.7 237.57"/><rect class="cls-1" x="24.1" y="235.31" width="0.58" height="1.03"/><rect class="cls-1" x="24.14" y="219.91" width="0.54" height="0.82"/><path class="cls-2" d="M35.92,128.4a.79.79,0,1,0,.51,0A.69.69,0,0,0,35.92,128.4Z"/><path class="cls-2" d="M35.07,123.13a.58.58,0,1,1-.58-.58A.58.58,0,0,1,35.07,123.13Z"/><path class="cls-2" d="M38.47,123.13a.58.58,0,1,1-.58-.58A.58.58,0,0,1,38.47,123.13Z"/><polygon class="cls-2" points="36 123.53 36 127.16 36 127.45 36.29 127.45 36.58 127.45 36.58 127.16 36.58 123.53 36.58 123.23 36.29 123.23 36 123.23 36 123.53"/><path class="cls-2" d="M30.41,134.25H42A1.27,1.27,0,0,0,43.24,133v-7.62A1.27,1.27,0,0,0,42,124.09H36.58v3.36H36v-3.36H30.41a1.27,1.27,0,0,0-1.27,1.27V133A1.27,1.27,0,0,0,30.41,134.25Z"/><rect class="cls-1" x="7.44" y="162.42" width="13.89" height="23.36" rx="0.41"/><path class="cls-2" d="M13.39,181.56a2,2,0,1,1-2-2A2,2,0,0,1,13.39,181.56Z"/><path class="cls-2" d="M12.21,181.56a.8.8,0,0,1-.8.8.79.79,0,0,1-.79-.8.79.79,0,0,1,.79-.79A.79.79,0,0,1,12.21,181.56Z"/><path class="cls-2" d="M19.36,181.56a2,2,0,1,1-2-2A2,2,0,0,1,19.36,181.56Z"/><circle class="cls-1" cx="17.38" cy="181.56" r="0.69"/><path class="cls-2" d="M13.39,174.1a2,2,0,1,1-2-2A2,2,0,0,1,13.39,174.1Z"/><path class="cls-2" d="M12.21,174.1a.8.8,0,0,1-.8.8.79.79,0,0,1-.79-.8.79.79,0,0,1,.79-.79A.79.79,0,0,1,12.21,174.1Z"/><path class="cls-2" d="M13.39,166.64a2,2,0,1,1-2-2A2,2,0,0,1,13.39,166.64Z"/><path class="cls-2" d="M12.21,166.64a.79.79,0,0,1-.8.79.79.79,0,0,1-.79-.79.79.79,0,0,1,.79-.8A.8.8,0,0,1,12.21,166.64Z"/><path class="cls-2" d="M19.36,166.64a2,2,0,1,1-2-2A2,2,0,0,1,19.36,166.64Z"/><path class="cls-2" d="M18.08,166.64a.7.7,0,1,1-.7-.69A.69.69,0,0,1,18.08,166.64Z"/><path class="cls-2" d="M18.57,175.92a.52.52,0,0,1,.52-.52.52.52,0,0,1,.53.52.53.53,0,0,1-.53.53A.52.52,0,0,1,18.57,175.92Z"/><path class="cls-2" d="M16.3,175.92a.52.52,0,0,1,1,0,.52.52,0,1,1-1,0Z"/><path class="cls-2" d="M16.3,174.1a.52.52,0,1,1,.52.52A.52.52,0,0,1,16.3,174.1Z"/><path class="cls-2" d="M18.57,172.28a.52.52,0,0,1,.52-.53.53.53,0,0,1,.53.53.52.52,0,0,1-.53.52A.52.52,0,0,1,18.57,172.28Z"/><path class="cls-2" d="M16.3,172.28a.52.52,0,1,1,1,0,.52.52,0,1,1-1,0Z"/><rect class="cls-1" x="43.15" y="190.54" width="10.02" height="14.87"/><rect class="cls-1" x="82.23" y="190.54" width="10.61" height="14.87"/><rect class="cls-1" x="60.26" y="171.91" width="14.87" height="10.75"/><rect class="cls-1" x="53.17" y="182.66" width="29.06" height="28.33"/><rect class="cls-1" x="60.26" y="210.99" width="14.87" height="10.61"/><path class="cls-2" d="M13.1,39.13a1,1,0,1,1,1.9,0,1.13,1.13,0,0,1-.48.93c-.71.55-.36,1,0,1l4.23,1a.85.85,0,0,1-.35,1.58H9.72a.86.86,0,0,1-.3-1.61l3.94-.9"/><path class="cls-2" d="M13.1,46.71a1,1,0,1,1,1.9,0,1.12,1.12,0,0,1-.48.92c-.71.56-.36,1,0,1l4.23,1a.85.85,0,0,1-.35,1.58H9.72a.86.86,0,0,1-.3-1.61l3.94-.89"/><path class="cls-2" d="M13.1,54.17a1,1,0,1,1,1.9,0,1.1,1.1,0,0,1-.48.92c-.71.56-.36,1,0,1l4.23,1a.85.85,0,0,1-.35,1.58H9.72a.86.86,0,0,1-.3-1.61l3.94-.89"/><path class="cls-2" d="M13.1,31.67a1,1,0,1,1,1.9,0,1.13,1.13,0,0,1-.48.93c-.71.55-.36,1,0,1l4.23,1a.85.85,0,0,1-.35,1.58H9.72a.86.86,0,0,1-.3-1.61l3.94-.9"/><path class="cls-2" d="M13.1,24.1a1,1,0,1,1,1.9,0,1.1,1.1,0,0,1-.48.92c-.71.56-.36,1,0,1l4.23,1a.85.85,0,0,1-.35,1.58H9.72A.86.86,0,0,1,9.42,27l3.94-.89"/><path class="cls-2" d="M13.1,16.64a1,1,0,1,1,1.9,0,1.1,1.1,0,0,1-.48.92c-.71.56-.36,1,0,1l4.23,1a.85.85,0,0,1-.35,1.58H9.72a.87.87,0,0,1-.3-1.62l3.94-.89"/><rect class="cls-1" x="9.34" y="93.28" width="9.42" height="8.2" rx="0.46"/><polyline class="cls-2" points="18.59 97.38 13.11 97.38 9.34 98.94"/><line class="cls-1" x1="13.24" y1="97.39" x2="9.5" y2="95.96"/><line class="cls-1" x1="13.56" y1="96.27" x2="13.56" y2="94.23"/><rect class="cls-1" x="9.34" y="82.52" width="9.42" height="8.2" rx="0.46"/><polyline class="cls-2" points="18.59 86.62 13.11 86.62 9.34 88.18"/><line class="cls-1" x1="13.24" y1="86.63" x2="9.5" y2="85.2"/><line class="cls-1" x1="13.56" y1="85.51" x2="13.56" y2="83.48"/><rect class="cls-1" x="9.34" y="71.78" width="9.42" height="8.2" rx="0.46"/><polyline class="cls-2" points="18.59 75.89 13.11 75.89 9.34 77.44"/><line class="cls-1" x1="13.24" y1="75.89" x2="9.5" y2="74.46"/><line class="cls-1" x1="13.56" y1="74.78" x2="13.56" y2="72.74"/><rect class="cls-1" x="9.34" y="61.03" width="9.42" height="8.2" rx="0.46"/><polyline class="cls-2" points="18.59 65.13 13.11 65.13 9.34 66.69"/><line class="cls-1" x1="13.24" y1="65.14" x2="9.5" y2="63.71"/><line class="cls-1" x1="13.56" y1="64.02" x2="13.56" y2="61.99"/><rect class="cls-1" x="6.49" y="13.92" width="14.82" height="89.41"/><rect class="cls-1" x="86.5" y="13.92" width="46.21" height="20.29" rx="0.86"/><path class="cls-2" d="M126.18,15.43H99a8.66,8.66,0,0,0-8.63,8.63h0A8.66,8.66,0,0,0,99,32.69h27.2a3.5,3.5,0,0,0,3.49-3.5V24.55H126.4a.49.49,0,0,1-.49-.49h0a.49.49,0,0,1,.49-.49h3.27V18.93A3.5,3.5,0,0,0,126.18,15.43Z"/><path class="cls-2" d="M126.3,23a1.05,1.05,0,1,0,.93,1.54h-.83a.49.49,0,0,1-.49-.49h0a.49.49,0,0,1,.49-.49h.83A1.07,1.07,0,0,0,126.3,23Z"/><path class="cls-2" d="M131.15,24.55H126.4a.49.49,0,0,1-.49-.49h0a.49.49,0,0,1,.49-.49h4.75a.27.27,0,0,1,.27.26v.46A.27.27,0,0,1,131.15,24.55Z"/><path class="cls-2" d="M131.08,25.25a.61.61,0,1,0,.61.61A.61.61,0,0,0,131.08,25.25Z"/><path class="cls-2" d="M131.08,21.65a.61.61,0,1,0,.61.61A.61.61,0,0,0,131.08,21.65Z"/><path class="cls-2" d="M70,54.63h4.2c7,0,7,14.35,0,14.35H70a.85.85,0,0,1-.85-.85V55.48A.85.85,0,0,1,70,54.63Z"/><path class="cls-2" d="M71.41,61.39c.11-2.88,1.4-5.62,3.85-5.62,1.9,0,3.37,3,3.37,6s-1.47,6-3.37,6c-2.45,0-3.74-2.75-3.85-5.62"/><path class="cls-2" d="M73.81,61a.77.77,0,1,1-.64,1.18h.22a.42.42,0,0,0,.42-.42h0a.41.41,0,0,0-.42-.41h-.22A.77.77,0,0,1,73.81,61Z"/><path class="cls-2" d="M70.33,62.66a.52.52,0,1,1-.52.52A.51.51,0,0,1,70.33,62.66Z"/><path class="cls-2" d="M70.33,59.92a.52.52,0,1,1-.52.51A.51.51,0,0,1,70.33,59.92Z"/><path class="cls-2" d="M70.44,62.22h3a.42.42,0,0,0,.42-.42h0a.41.41,0,0,0-.42-.41h-3a.22.22,0,0,0-.23.22V62A.22.22,0,0,0,70.44,62.22Z"/><path class="cls-2" d="M112.5,47.26c0-2,2.47-5.9,7.66-5.9,2.93,0,5,1.71,7,2.17a2.6,2.6,0,0,0-.06.56v6.35a2.6,2.6,0,0,0,.06.56c-2,.46-4.09,2.17-7,2.17C115,53.17,112.5,49.27,112.5,47.26Z"/><path class="cls-2" d="M132.24,41.3h-2.32a2.8,2.8,0,0,0-2.8,2.79v6.35a2.8,2.8,0,0,0,2.8,2.79h2.32a.47.47,0,0,0,.47-.47v-11A.47.47,0,0,0,132.24,41.3Z"/><path class="cls-2" d="M129.92,46.5a.77.77,0,1,0,.76.77A.76.76,0,0,0,129.92,46.5Z"/><path class="cls-2" d="M113.61,47.27c0-1.6,1.93-4.7,6-4.7,2.05,0,3.51,1.1,4.89,1.58.38.13.45.24.45.57v5.09c0,.33-.07.44-.45.57-1.38.49-2.84,1.58-4.89,1.58-4,0-6-3.1-6-4.69Z"/><path class="cls-2" d="M123.48,47.27c0,1.5-.46,1.61-1,1.61s-1-.72-1-1.61.47-1.62,1-1.62S123.48,45.76,123.48,47.27Z"/><path class="cls-2" d="M70,35.2h4.2c7,0,7,14.35,0,14.35H70a.85.85,0,0,1-.85-.85V36.05A.85.85,0,0,1,70,35.2Z"/><path class="cls-2" d="M71.41,42c.11-2.88,1.4-5.62,3.85-5.62,1.9,0,3.37,3,3.37,6s-1.47,6-3.37,6c-2.45,0-3.74-2.75-3.85-5.62"/><path class="cls-2" d="M73.81,41.61a.77.77,0,1,1-.64,1.18h.22a.42.42,0,0,0,.42-.42h0a.41.41,0,0,0-.42-.41h-.22A.77.77,0,0,1,73.81,41.61Z"/><path class="cls-2" d="M70.33,43.23a.52.52,0,1,1-.52.52A.51.51,0,0,1,70.33,43.23Z"/><path class="cls-2" d="M70.33,40.49a.52.52,0,1,1-.52.51A.51.51,0,0,1,70.33,40.49Z"/><path class="cls-2" d="M70.44,42.79h3a.42.42,0,0,0,.42-.42h0a.41.41,0,0,0-.42-.41h-3a.22.22,0,0,0-.23.22v.39A.22.22,0,0,0,70.44,42.79Z"/><rect class="cls-1" x="67.81" y="33" width="13.25" height="38.19"/><path class="cls-2" d="M132.15,80.31v-.49l.56-.18V62.89l-.56-.18v-.5a.29.29,0,0,0-.27-.29h-12.2a.62.62,0,0,0-.59.65V80a.62.62,0,0,0,.59.65h12.2A.29.29,0,0,0,132.15,80.31Z"/><path class="cls-2" d="M119.09,77.13V65.4a.16.16,0,0,0-.16-.16h-.42a.58.58,0,0,0-.58.58V76.71a.58.58,0,0,0,.58.58h.42A.16.16,0,0,0,119.09,77.13Z"/><line class="cls-1" x1="120.74" y1="80.61" x2="120.74" y2="61.92"/><path class="cls-2" d="M184.43,16.06v4.19c0,7,14.36,7,14.36,0V16.06a.86.86,0,0,0-.85-.85H185.28A.86.86,0,0,0,184.43,16.06Z"/><path class="cls-2" d="M191.19,17.52c-2.87.11-5.61,1.39-5.61,3.84,0,1.91,3,3.37,6,3.37s6-1.46,6-3.37c0-2.45-2.74-3.73-5.61-3.84"/><path class="cls-2" d="M190.84,19.92a.77.77,0,0,0,1.54,0,.75.75,0,0,0-.35-.64v.22a.42.42,0,0,1-.42.42h0a.42.42,0,0,1-.42-.42v-.22A.75.75,0,0,0,190.84,19.92Z"/><path class="cls-2" d="M192.47,16.43a.52.52,0,1,0,.51-.51A.51.51,0,0,0,192.47,16.43Z"/><path class="cls-2" d="M189.72,16.43a.52.52,0,1,0,.52-.51A.52.52,0,0,0,189.72,16.43Z"/><path class="cls-2" d="M192,16.54v3a.42.42,0,0,1-.42.42h0a.42.42,0,0,1-.42-.42v-3a.22.22,0,0,1,.23-.22h.38A.22.22,0,0,1,192,16.54Z"/><path class="cls-2" d="M165,16.06v4.19c0,7,14.36,7,14.36,0V16.06a.86.86,0,0,0-.86-.85H165.85A.86.86,0,0,0,165,16.06Z"/><path class="cls-2" d="M171.76,17.52c-2.87.11-5.61,1.39-5.61,3.84,0,1.91,3,3.37,6,3.37s6-1.46,6-3.37c0-2.45-2.74-3.73-5.61-3.84"/><path class="cls-2" d="M171.41,19.92a.77.77,0,0,0,1.54,0,.75.75,0,0,0-.35-.64v.22a.42.42,0,0,1-.42.42h0a.42.42,0,0,1-.42-.42v-.22A.75.75,0,0,0,171.41,19.92Z"/><path class="cls-2" d="M173,16.43a.52.52,0,1,0,.51-.51A.51.51,0,0,0,173,16.43Z"/><path class="cls-2" d="M170.29,16.43a.52.52,0,1,0,.52-.51A.52.52,0,0,0,170.29,16.43Z"/><path class="cls-2" d="M172.6,16.54v3a.42.42,0,0,1-.42.42h0a.42.42,0,0,1-.42-.42v-3a.22.22,0,0,1,.23-.22h.38A.22.22,0,0,1,172.6,16.54Z"/><rect class="cls-1" x="162.8" y="13.92" width="38.19" height="13.25"/><path class="cls-2" d="M156.66,43c0-2-2.47-5.9-7.66-5.9-2.93,0-5,1.71-7,2.16a2.62,2.62,0,0,1,.06.57v6.35a2.6,2.6,0,0,1-.06.56c2,.46,4.09,2.16,7,2.16C154.19,48.88,156.66,45,156.66,43Z"/><path class="cls-2" d="M136.92,37h2.32a2.81,2.81,0,0,1,2.8,2.8v6.35a2.81,2.81,0,0,1-2.8,2.79h-2.32a.47.47,0,0,1-.47-.47v-11A.48.48,0,0,1,136.92,37Z"/><path class="cls-2" d="M139.24,42.21a.77.77,0,1,1,0,1.54.77.77,0,0,1,0-1.54Z"/><path class="cls-2" d="M155.54,43c0-1.59-1.92-4.69-5.95-4.69-2.05,0-3.51,1.09-4.89,1.58-.38.13-.45.24-.45.57v5.09c0,.33.07.43.45.57,1.38.48,2.84,1.58,4.89,1.58,4,0,5.95-3.1,5.95-4.7Z"/><path class="cls-2" d="M145.68,43c0,1.51.46,1.62,1,1.62s1.05-.73,1.05-1.62-.47-1.61-1.05-1.61S145.68,41.48,145.68,43Z"/><rect class="cls-1" x="154.78" y="60.33" width="46.21" height="20.29" rx="0.86"/><path class="cls-2" d="M194.45,61.84H167.26a8.66,8.66,0,0,0-8.63,8.63h0a8.66,8.66,0,0,0,8.63,8.63h27.19a3.5,3.5,0,0,0,3.5-3.5V71h-3.27a.49.49,0,0,1-.49-.49h0a.49.49,0,0,1,.49-.49H198V65.34A3.5,3.5,0,0,0,194.45,61.84Z"/><path class="cls-2" d="M194.58,69.42a1.05,1.05,0,1,0,.93,1.54h-.83a.49.49,0,0,1-.49-.49h0a.49.49,0,0,1,.49-.49h.83A1.07,1.07,0,0,0,194.58,69.42Z"/><path class="cls-2" d="M199.43,71h-4.75a.49.49,0,0,1-.49-.49h0a.49.49,0,0,1,.49-.49h4.75a.27.27,0,0,1,.27.26v.46A.27.27,0,0,1,199.43,71Z"/><path class="cls-2" d="M199.36,71.66a.61.61,0,1,0,.61.61A.61.61,0,0,0,199.36,71.66Z"/><path class="cls-2" d="M199.36,68.06a.61.61,0,1,0,.61.61A.61.61,0,0,0,199.36,68.06Z"/><rect class="cls-1" x="216.32" y="195.58" width="5.91" height="42.78"/><path class="cls-2" d="M219.27,233.81a1.68,1.68,0,1,1,1.68-1.68A1.68,1.68,0,0,1,219.27,233.81Z"/><path class="cls-2" d="M221.11,209.09v9.55a1,1,0,0,1-.82,1V208.13a1,1,0,0,1,.82,1Zm-1.55,10.53h-.46a1,1,0,0,1-1-1v-9.55a1,1,0,0,1,1-1h.46Z"/><rect class="cls-1" x="219.56" y="198.89" width="0.73" height="29.95"/><path class="cls-2" d="M218.23,235.86a1,1,0,1,0,1-1A1,1,0,0,0,218.23,235.86Z"/><path class="cls-2" d="M120.53,190.19v-2.26a2.27,2.27,0,0,1,2.27-2.27h18.7a2.27,2.27,0,0,1,2.26,2.27v2.26Z"/><path class="cls-2" d="M120.53,269.45v-2.26h23.23v2.26a2.27,2.27,0,0,1-2.26,2.26H122.8A2.27,2.27,0,0,1,120.53,269.45Z"/><rect class="cls-1" x="120.53" y="190.19" width="4.53" height="25.67"/><rect class="cls-1" x="120.53" y="215.86" width="4.53" height="25.67"/><rect class="cls-1" x="120.53" y="241.52" width="4.53" height="25.67"/><path class="cls-2" d="M125.06,190.19v25.67h16.3a2.41,2.41,0,0,0,2.4-2.4V192.58a2.4,2.4,0,0,0-2.4-2.39Z"/><path class="cls-2" d="M125.06,215.86v25.66h16.3a2.4,2.4,0,0,0,2.4-2.39V218.25a2.4,2.4,0,0,0-2.4-2.39Z"/><path class="cls-2" d="M125.06,241.52v25.67h44.35a2.41,2.41,0,0,0,2.4-2.4V243.91a2.4,2.4,0,0,0-2.4-2.39Z"/><rect class="cls-1" x="154.35" y="200.07" width="16.24" height="28.72"/><rect class="cls-1" x="176.13" y="157.88" width="4.23" height="23.22" rx="1.38"/><rect class="cls-1" x="157.25" y="162.99" width="18.87" height="18.11" rx="1.38"/><rect class="cls-1" x="157.25" y="157.37" width="18.87" height="5.62" rx="1.38"/><rect class="cls-1" x="153.01" y="157.88" width="4.23" height="23.22" rx="1.38"/><polygon class="cls-2" points="258.86 65.67 258.83 80.66 204.85 80.61 204.86 65.83 258.86 65.67"/><path class="cls-2" d="M236.65,74.11a.94.94,0,1,1,0-1.87,1.12,1.12,0,0,1,.92.48c.54.7,1,.35,1,0l1-4.17a.84.84,0,0,1,1.56.34v8.55a.85.85,0,0,1-1.59.29l-.89-3.89"/><path class="cls-2" d="M244.11,74.11a.94.94,0,1,1,0-1.87,1.08,1.08,0,0,1,.91.48c.55.7,1,.35,1,0l1-4.17a.84.84,0,0,1,1.56.34v8.55a.85.85,0,0,1-1.59.29l-.88-3.89"/><path class="cls-2" d="M251.47,74.11a.94.94,0,1,1,0-1.87,1.08,1.08,0,0,1,.91.48c.55.7,1,.35,1,0l1-4.17a.83.83,0,0,1,1.55.34v8.55a.85.85,0,0,1-1.59.29l-.88-3.89"/><path class="cls-2" d="M229.29,74.11a.94.94,0,1,1,0-1.87,1.1,1.1,0,0,1,.91.48c.55.7,1,.35,1,0l1-4.17a.83.83,0,0,1,1.55.34v8.55a.85.85,0,0,1-1.59.29l-.88-3.89"/><rect class="cls-1" x="207.83" y="68.53" width="8.09" height="9.29" rx="0.46"/><polyline class="cls-2" points="211.87 77.65 211.87 72.24 210.34 68.52"/><line class="cls-1" x1="211.86" y1="72.37" x2="213.27" y2="68.68"/><line class="cls-1" x1="212.97" y1="72.68" x2="214.97" y2="72.68"/><rect class="cls-1" x="218.44" y="68.53" width="8.09" height="9.29" rx="0.46"/><polyline class="cls-2" points="222.48 77.65 222.48 72.24 220.94 68.52"/><line class="cls-1" x1="222.47" y1="72.37" x2="223.88" y2="68.68"/><line class="cls-1" x1="223.57" y1="72.68" x2="225.58" y2="72.68"/><polygon class="cls-2" points="258.86 13.76 258.83 28.75 204.85 28.7 204.86 13.92 258.86 13.76"/><path class="cls-2" d="M236.65,22.2a.94.94,0,1,1,0-1.88,1.14,1.14,0,0,1,.92.48c.54.7,1,.36,1,0l1-4.17a.84.84,0,0,1,1.56.34v8.55a.85.85,0,0,1-1.59.29l-.89-3.89"/><path class="cls-2" d="M244.11,22.2a.94.94,0,1,1,0-1.88,1.11,1.11,0,0,1,.91.48c.55.7,1,.36,1,0l1-4.17a.84.84,0,0,1,1.56.34v8.55a.85.85,0,0,1-1.59.29l-.88-3.89"/><path class="cls-2" d="M251.47,22.2a.94.94,0,1,1,0-1.88,1.11,1.11,0,0,1,.91.48c.55.7,1,.36,1,0l1-4.17a.83.83,0,0,1,1.55.34v8.55a.85.85,0,0,1-1.59.29l-.88-3.89"/><path class="cls-2" d="M229.29,22.2a.94.94,0,1,1,0-1.88,1.12,1.12,0,0,1,.91.48c.55.7,1,.36,1,0l1-4.17a.83.83,0,0,1,1.55.34v8.55a.85.85,0,0,1-1.59.29l-.88-3.89"/><rect class="cls-1" x="207.83" y="16.61" width="8.09" height="9.29" rx="0.46"/><polyline class="cls-2" points="211.87 25.73 211.87 20.33 210.34 16.61"/><line class="cls-1" x1="211.86" y1="20.46" x2="213.27" y2="16.77"/><line class="cls-1" x1="212.97" y1="20.77" x2="214.97" y2="20.77"/><rect class="cls-1" x="218.44" y="16.61" width="8.09" height="9.29" rx="0.46"/><polyline class="cls-2" points="222.48 25.73 222.48 20.33 220.94 16.61"/><line class="cls-1" x1="222.47" y1="20.46" x2="223.88" y2="16.77"/><line class="cls-1" x1="223.57" y1="20.77" x2="225.58" y2="20.77"/><rect class="cls-1" x="291.56" y="13.92" width="43.73" height="1.16"/><rect class="cls-1" x="291.56" y="15.07" width="43.73" height="52.01"/><rect class="cls-1" x="291.56" y="67.08" width="43.73" height="1.16"/><path class="cls-2" d="M295.08,16.26h15.27a.77.77,0,0,1,.77.76v8.65h-3.63L305.66,27H295.08a.77.77,0,0,1-.76-.77V17A.76.76,0,0,1,295.08,16.26Z"/><path class="cls-2" d="M316.49,16.26h15.28a.76.76,0,0,1,.76.76v8.65h-16.8V17A.76.76,0,0,1,316.49,16.26Z"/><polygon class="cls-2" points="292.9 65.27 333.94 65.27 333.94 25.67 307.49 25.67 292.9 36.18 292.9 65.27"/><polygon class="cls-2" points="307.49 25.67 302.87 39.51 292.9 36.18 307.49 25.67"/><rect class="cls-1" x="338.15" y="13.91" width="9.68" height="9.75"/><path class="cls-2" d="M343,21.57a2.78,2.78,0,1,0-2.78-2.78A2.78,2.78,0,0,0,343,21.57Z"/><path class="cls-2" d="M343,19.77a1,1,0,1,0-1-1A1,1,0,0,0,343,19.77Z"/><line class="cls-1" x1="342.98" y1="19.76" x2="342.98" y2="19.14"/><line class="cls-1" x1="342.98" y1="18.43" x2="342.98" y2="17.81"/><line class="cls-1" x1="342.01" y1="18.79" x2="342.63" y2="18.79"/><line class="cls-1" x1="343.34" y1="18.79" x2="343.96" y2="18.79"/><path class="cls-2" d="M343,19.22a.43.43,0,0,0,.43-.43.43.43,0,1,0-.85,0A.43.43,0,0,0,343,19.22Z"/><rect class="cls-1" x="279.01" y="13.91" width="9.68" height="9.75"/><path class="cls-2" d="M283.86,21.57a2.78,2.78,0,1,0-2.78-2.78A2.79,2.79,0,0,0,283.86,21.57Z"/><path class="cls-2" d="M283.86,19.77a1,1,0,1,0-1-1A1,1,0,0,0,283.86,19.77Z"/><line class="cls-1" x1="283.86" y1="19.76" x2="283.86" y2="19.14"/><line class="cls-1" x1="283.86" y1="18.43" x2="283.86" y2="17.81"/><line class="cls-1" x1="282.88" y1="18.79" x2="283.5" y2="18.79"/><line class="cls-1" x1="284.21" y1="18.79" x2="284.83" y2="18.79"/><path class="cls-2" d="M283.86,19.22a.43.43,0,0,0,.42-.43.43.43,0,1,0-.85,0A.43.43,0,0,0,283.86,19.22Z"/><path class="cls-2" d="M315.9,116.73h34.27V106a2.51,2.51,0,0,0-2.5-2.5H318.4a2.51,2.51,0,0,0-2.5,2.5Z"/><rect class="cls-1" x="316.67" y="114.48" width="32.73" height="1.6"/><path class="cls-2" d="M340.15,91.3a5.06,5.06,0,1,1-5.06,5A5,5,0,0,1,340.15,91.3Z"/><polygon class="cls-2" points="318.34 120.48 318.32 135.46 257.46 135.42 257.47 120.63 318.34 120.48"/><path class="cls-2" d="M310.83,128.91a.94.94,0,1,1,0-1.87,1.08,1.08,0,0,1,.91.48c.55.7,1,.35,1,0l1-4.17a.83.83,0,0,1,1.55.34v8.55a.85.85,0,0,1-1.59.29l-.88-3.89"/><path class="cls-2" d="M289.26,128.91a.94.94,0,1,1,0-1.87,1.08,1.08,0,0,1,.91.48c.55.7,1,.35,1,0l1-4.17a.84.84,0,0,1,1.56.34v8.55a.85.85,0,0,1-1.59.29l-.89-3.89"/><path class="cls-2" d="M296.72,128.91a.94.94,0,1,1,0-1.87,1.08,1.08,0,0,1,.91.48c.55.7,1,.35,1,0l1-4.17a.84.84,0,0,1,1.56.34v8.55a.85.85,0,0,1-1.59.29l-.88-3.89"/><path class="cls-2" d="M304.08,128.91a.94.94,0,1,1,0-1.87,1.08,1.08,0,0,1,.91.48c.55.7,1,.35,1,0l1-4.17a.83.83,0,0,1,1.55.34v8.55a.85.85,0,0,1-1.59.29l-.88-3.89"/><path class="cls-2" d="M281.9,128.91a.94.94,0,1,1,0-1.87,1.11,1.11,0,0,1,.91.48c.55.7,1,.35,1,0l1-4.17a.83.83,0,0,1,1.55.34v8.55a.85.85,0,0,1-1.59.29l-.88-3.89"/><rect class="cls-1" x="260.44" y="123.33" width="8.09" height="9.29" rx="0.46"/><polyline class="cls-2" points="264.48 132.45 264.48 127.04 262.95 123.32"/><line class="cls-1" x1="264.47" y1="127.17" x2="265.88" y2="123.48"/><line class="cls-1" x1="265.57" y1="127.48" x2="267.58" y2="127.48"/><rect class="cls-1" x="271.05" y="123.33" width="8.09" height="9.29" rx="0.46"/><polyline class="cls-2" points="275.09 132.45 275.09 127.04 273.55 123.32"/><line class="cls-1" x1="275.08" y1="127.17" x2="276.48" y2="123.48"/><line class="cls-1" x1="276.18" y1="127.48" x2="278.19" y2="127.48"/><rect class="cls-1" x="318.07" y="145.78" width="11.87" height="11.87" rx="2.68" transform="translate(6.14 315.92) rotate(-52.41)"/><path class="cls-1" d="M321.06,146.36h5.89a2.42,2.42,0,0,1,2.42,2.42v5.89a2.41,2.41,0,0,1-2.41,2.41h-5.89a2.42,2.42,0,0,1-2.42-2.42v-5.88a2.41,2.41,0,0,1,2.41-2.41Z" transform="translate(6.14 315.91) rotate(-52.41)"/><path class="cls-2" d="M315.34,153.87c.83-1,1,1,2.05,1.86L322,159.4c1,.83,2.56.12,1.73,1.16C321.46,163.37,313.09,156.68,315.34,153.87Z"/><path class="cls-2" d="M234.79,212.76a.53.53,0,0,1,.53.53.52.52,0,0,1-.47.52h-.06a.53.53,0,0,1-.53-.53v-.06a.54.54,0,0,1,.53-.47Zm0,.69h0a.16.16,0,0,0,.16-.16.16.16,0,0,0-.16-.16.17.17,0,0,0-.17.14A.18.18,0,0,0,234.79,213.45Z"/><path class="cls-2" d="M234.79,217.24a4,4,0,1,1,4-4A4,4,0,0,1,234.79,217.24Z"/><circle class="cls-1" cx="234.79" cy="213.29" r="1.65"/><line class="cls-1" x1="234.83" y1="215.05" x2="234.83" y2="213.81"/><line class="cls-1" x1="234.26" y1="213.29" x2="233.14" y2="213.29"/><line class="cls-1" x1="235.32" y1="213.29" x2="236.44" y2="213.29"/><line class="cls-1" x1="234.79" y1="212.76" x2="234.79" y2="211.48"/><rect class="cls-1" x="229.85" y="208.32" width="9.87" height="9.93" rx="0.42"/><polygon class="cls-2" points="351.31 124.08 351.31 140.38 351.31 157.06 335 157.06 335 148.25 327.14 140.38 318.32 140.38 318.32 124.08 335 124.08 351.31 124.08"/><text class="cls-4" transform="translate(22.9 82.85)">ПРИ<tspan class="cls-5" x="16.06" y="0">ХО</tspan><tspan x="26.91" y="0">ЖАЯ</tspan><tspan class="cls-6"><tspan x="14.88" y="8.95">7</tspan><tspan class="cls-7" x="18.22" y="8.95">,</tspan><tspan class="cls-8" x="19.81" y="8.95">09</tspan></tspan></text><text class="cls-4" transform="translate(84.43 62.81)">ВАННАЯ<tspan x="10.28" y="8.95">5,2</tspan></text><text class="cls-4" transform="translate(161.43 45.31)">ВАННАЯ<tspan x="8.07" y="8.95">5</tspan><tspan class="cls-7" x="12.79" y="8.95">,</tspan><tspan x="14.38" y="8.95">04</tspan></text><text class="cls-4" transform="translate(277.21 90.85)">СПАЛЬНЯ<tspan x="12.39" y="8.95">1</tspan><tspan class="cls-6" x="15.1" y="8.95">7</tspan><tspan class="cls-9" x="18.44" y="8.95">,8</tspan></text><text class="cls-4" transform="translate(153.64 100.85)"><tspan class="cls-5">Х</tspan><tspan class="cls-10" x="4.98" y="0">О</tspan><tspan x="10.8" y="0">ЛЛ</tspan><tspan x="3.27" y="8.95">8,24</tspan></text><text class="cls-4" transform="translate(297.21 207.35)">СПАЛЬНЯ<tspan x="9.55" y="8.95">1</tspan><tspan class="cls-11" x="12.26" y="8.95">9</tspan><tspan class="cls-9" x="16.74" y="8.95">,39</tspan></text><text class="cls-4" transform="translate(143.96 141.85)"><tspan class="cls-12">Г</tspan><tspan x="4.18" y="0">ОСТИНАЯ</tspan><tspan x="10.54" y="8.95">22,92</tspan></text><text class="cls-4" transform="translate(51.04 153.31)">КУХНЯ<tspan x="3.6" y="8.95">14,58</tspan></text><text class="cls-4" transform="translate(36.5 263.35)">Л<tspan class="cls-10" x="5.7" y="0">О</tspan><tspan class="cls-8" x="11.52" y="0">ДЖИЯ</tspan><tspan x="9.6" y="8.95">2</tspan><tspan class="cls-11" x="14.31" y="8.95">,</tspan><tspan x="15.9" y="8.95">02</tspan></text></g></g></svg>