<svg xmlns="http://www.w3.org/2000/svg" viewBox="0 0 369.44 389.6"><defs><style>.cls-1{fill:#00ada8;}.cls-1,.cls-3{fill-rule:evenodd;}.cls-2,.cls-3{fill:none;stroke:#231f20;stroke-linejoin:bevel;stroke-width:0.4px;}.cls-4{font-size:8px;fill:#231f20;font-family:ProximaNova-Regular, Proxima Nova;}.cls-5{letter-spacing:-0.03em;}.cls-6{letter-spacing:-0.03em;}.cls-7{letter-spacing:-0.03em;}.cls-8{letter-spacing:-0.07em;}.cls-9{letter-spacing:-0.04em;}.cls-10{letter-spacing:0em;}.cls-11{letter-spacing:-0.07em;}.cls-12{letter-spacing:0em;}.cls-13{letter-spacing:-0.04em;}</style></defs><title>4 комнатная</title><g id="Layer_2" data-name="Layer 2"><g id="Layer_1-2" data-name="Layer 1"><path class="cls-1" d="M16.52,77.12H.2V37H44.84V50.72H16.52v26.4Zm165.12,55.56H129.32v3.84h-2V84.68h-3.6V51.3H105.86V36.92H117.2V.2h41.4V9.08H129.32V130.52h52.32v2.16ZM282.56,9.08H264.92v75.6h-3.48v55h-2.16v-7h-52.2v-2.16h52.2V9.08h-35.4V.2h58.68V9.08Zm30.36,224.64V249.2h8.52V233.72Zm-2,15.48h-46V168.68h56.52v26.4h2V166.52h-62v-1.44h-2.16v1.44H213.44v33.84h2V168.68h43.8v40.2h3.48v29.76H215.48V223h-2v36.6h2v-8.28H262v31h-31v3.5h-15.6v-3.5h-2V288H262V295h5.76v-40.2H369.44V.2H342.2V9.08h21.6V249.2H323.48V217.76h-2v13.8H310.88V249.2Zm-48.12-8.4v8.4H251.6v-8.4Zm-13.32,8.4h-34v-8.4h34v8.4ZM262,330.32v-7.08h5.76V336h-28V389.6H.2V347h8v33.89H41.6v-37h7.54V384h128.3v-67.8h2V350h12v34H234.2V330.32H262ZM189.44,384V374h-10v10Zm-140-101.64H72.92V288H49.48v7.32H41.6v-4.2H8.24v6.72H.2V267.68H8.6v14.64H49.48Zm130,89.64h10v-19.8h-10V372Zm-30.36-89.64H112.4V288h65v2.76h2v-8.4h-2v3.48H149.12v-3.48Zm28.32-113.64V240h2V166.52H129.32V162h-2v7.32h-6.36v6.36H50.36v-3.48H16.52V137.84H.2v64H8.6v-24H120.92v2.88H132.2v-11.4h-2.88v-.6Z"/><rect class="cls-2" x="0.2" y="297.8" width="10.92" height="49.15"/><rect class="cls-2" x="5" y="320.34" width="2.26" height="4.07"/><path class="cls-3" d="M5.57,301.87v18.47m0,4.07v18.47"/><path class="cls-3" d="M6.7,301.87v18.47m0,4.07v18.47"/><rect class="cls-2" x="5" y="342.88" width="2.26" height="4.07"/><rect class="cls-2" x="5" y="297.8" width="2.26" height="4.07"/><rect class="cls-2" x="0.2" y="201.8" width="11.28" height="65.88"/><rect class="cls-2" x="5" y="232.7" width="2.26" height="4.07"/><path class="cls-3" d="M5.57,205.88V232.7m0,4.08v26.83"/><path class="cls-3" d="M6.7,205.88V232.7m0,4.08v26.83"/><rect class="cls-2" x="5" y="263.61" width="2.26" height="4.07"/><rect class="cls-2" x="5" y="201.8" width="2.26" height="4.07"/><rect class="cls-2" x="0.2" y="77.12" width="19.2" height="60.72"/><rect class="cls-2" x="5" y="105.44" width="2.26" height="4.07"/><path class="cls-3" d="M5.57,81.19v24.25m0,4.08v24.36"/><path class="cls-3" d="M6.7,81.19v24.25m0,4.08v24.39"/><rect class="cls-2" x="5" y="133.77" width="2.26" height="4.07"/><rect class="cls-2" x="5" y="77.12" width="2.26" height="4.07"/><rect class="cls-2" x="44.84" y="37.04" width="61.02" height="16.56"/><rect class="cls-2" x="73.31" y="41.84" width="4.07" height="2.26"/><path class="cls-3" d="M48.91,42.41h24.4m4.08,0h24.4"/><path class="cls-3" d="M48.91,43.54h24.4m4.08,0h24.4"/><rect class="cls-2" x="101.79" y="41.84" width="4.07" height="2.26"/><rect class="cls-2" x="44.84" y="41.84" width="4.07" height="2.26"/><rect class="cls-2" x="158.6" y="0.2" width="65.28" height="11.76"/><rect class="cls-2" x="189.2" y="4.42" width="4.07" height="2.26"/><path class="cls-3" d="M162.68,6.11H189.2m4.08,0h26.53"/><path class="cls-3" d="M162.68,5H189.2m4.08,0h26.53"/><rect class="cls-2" x="219.81" y="4.42" width="4.07" height="2.26"/><rect class="cls-2" x="158.6" y="4.42" width="4.07" height="2.26"/><rect class="cls-2" x="282.56" y="0.2" width="59.64" height="11.76"/><rect class="cls-2" x="310.34" y="4.42" width="4.07" height="2.26"/><path class="cls-3" d="M286.64,6.11h23.7m4.08,0h23.71"/><path class="cls-3" d="M286.64,5h23.7m4.08,0h23.71"/><rect class="cls-2" x="338.13" y="4.42" width="4.07" height="2.26"/><rect class="cls-2" x="282.56" y="4.42" width="4.07" height="2.26"/><line class="cls-2" x1="46.95" y1="295.28" x2="44.19" y2="295.28"/><rect class="cls-2" x="50.8" y="294.98" width="0.42" height="22.18" transform="translate(-113.14 42.75) rotate(-22.48)"/><rect class="cls-2" x="40.61" y="317.27" width="9.52" height="26.61"/><rect class="cls-2" x="44.24" y="317.27" width="2.26" height="4.07"/><line class="cls-2" x1="44.87" y1="321.34" x2="44.87" y2="339.81"/><line class="cls-2" x1="46" y1="321.34" x2="46" y2="339.81"/><rect class="cls-2" x="44.24" y="339.81" width="2.26" height="4.07"/><path class="cls-3" d="M265.77,55.34V21.07h10.78a2.5,2.5,0,0,1,2.49,2.5V52.84a2.51,2.51,0,0,1-2.49,2.5Z"/><rect class="cls-2" x="266.43" y="21.84" width="1.6" height="32.73"/><path class="cls-3" d="M291.21,31.09a5.06,5.06,0,1,0-5.06,5.06A5.06,5.06,0,0,0,291.21,31.09Z"/><polygon class="cls-3" points="117.3 159.85 117.27 174.84 56.41 174.79 56.42 160 117.3 159.85"/><path class="cls-3" d="M109.79,168.29a.94.94,0,1,1,0-1.88,1.12,1.12,0,0,1,.92.48c.54.7,1,.36,1,0l1-4.17a.84.84,0,0,1,1.56.34v8.54a.85.85,0,0,1-1.59.3l-.88-3.89"/><path class="cls-3" d="M88.21,168.29a.94.94,0,1,1,0-1.88,1.1,1.1,0,0,1,.91.48c.55.7,1,.36,1,0l1-4.17a.83.83,0,0,1,1.55.34v8.54a.85.85,0,0,1-1.59.3L90.2,168"/><path class="cls-3" d="M95.68,168.29a.94.94,0,1,1,0-1.88,1.11,1.11,0,0,1,.91.48c.55.7,1,.36,1,0l1-4.17a.84.84,0,0,1,1.56.34v8.54a.85.85,0,0,1-1.59.3L97.67,168"/><path class="cls-3" d="M103,168.29a.94.94,0,1,1,0-1.88,1.12,1.12,0,0,1,.92.48c.54.7,1,.36,1,0l1-4.17a.84.84,0,0,1,1.56.34v8.54a.85.85,0,0,1-1.59.3L105,168"/><path class="cls-3" d="M80.86,168.29a1,1,0,0,1-1-.95,1,1,0,0,1,1-.93,1.12,1.12,0,0,1,.92.48c.54.7,1,.36,1,0l1-4.17a.84.84,0,0,1,1.56.34v8.54a.85.85,0,0,1-1.59.3L82.85,168"/><rect class="cls-2" x="59.39" y="162.7" width="8.09" height="9.29" rx="0.46"/><polyline class="cls-3" points="63.44 171.82 63.44 166.41 61.9 162.69"/><line class="cls-2" x1="63.43" y1="166.55" x2="64.83" y2="162.85"/><line class="cls-2" x1="64.53" y1="166.85" x2="66.54" y2="166.85"/><rect class="cls-2" x="70" y="162.7" width="8.09" height="9.29" rx="0.46"/><polyline class="cls-3" points="74.04 171.82 74.04 166.41 72.51 162.69"/><line class="cls-2" x1="74.03" y1="166.55" x2="75.44" y2="162.85"/><line class="cls-2" x1="75.14" y1="166.85" x2="77.14" y2="166.85"/><rect class="cls-2" x="38.74" y="137.73" width="11.87" height="11.87" rx="2.68" transform="translate(-96.42 91.43) rotate(-52.41)"/><rect class="cls-2" x="39.32" y="138.31" width="10.72" height="10.72" rx="2.42" transform="translate(-96.42 91.43) rotate(-52.41)"/><path class="cls-3" d="M53.33,141.52c-.83,1-1-1-2-1.86L46.69,136c-1-.83-2.55-.12-1.73-1.15C47.22,132,55.58,138.71,53.33,141.52Z"/><rect class="cls-2" x="108.42" y="85.36" width="15.82" height="27.32"/><path class="cls-3" d="M78,85.36h-2.7A2.29,2.29,0,0,0,73,87.64V110.4a2.28,2.28,0,0,0,2.28,2.27H78Z"/><path class="cls-3" d="M78,87.24H76a2.29,2.29,0,0,0-2.28,2.28v19A2.29,2.29,0,0,0,76,110.79H78Z"/><rect class="cls-2" x="108.42" y="87.24" width="15.82" height="23.55"/><path class="cls-3" d="M122.63,91.31,110.77,90a1.23,1.23,0,0,0-1.37,1.1l-1,9.23v6.28a1.25,1.25,0,0,0,.54.23l11.86,1.3a1.24,1.24,0,0,0,1.37-1.1l1.58-14.37A1.24,1.24,0,0,0,122.63,91.31Z"/><path class="cls-3" d="M110.83,93a1,1,0,0,1,1.06-.85l9.19,1a1,1,0,0,1,.86,1.06l-1.22,11a1,1,0,0,1-1.06.85l-9.2-1a1,1,0,0,1-.85-1.05"/><path class="cls-3" d="M110.67,94.38l.16-1.43a1,1,0,0,1,1.06-.85l9.19,1a1,1,0,0,1,.86,1.06l-1.22,11a1,1,0,0,1-1.06.85l-9.2-1a1,1,0,0,1-.85-1.05l.3-2.69"/><path class="cls-3" d="M110.49,101.46a.83.83,0,0,1-.95-.71l-.72-5.32a.85.85,0,0,1,.73-.94l4.8-.64a.82.82,0,0,1,.94.71l.72,5.31a.84.84,0,0,1-.72.94Z"/><path class="cls-3" d="M110.49,101.46a.83.83,0,0,1-.95-.71l-.72-5.32a.85.85,0,0,1,.73-.94l4.8-.64a.82.82,0,0,1,.94.71l.72,5.31a.84.84,0,0,1-.72.94Z"/><path class="cls-3" d="M80.27,114.44A2.09,2.09,0,0,1,78,112.65V85.35a2.09,2.09,0,0,1,2.28-1.79H106.1a2.09,2.09,0,0,1,2.28,1.79v27.3a2.09,2.09,0,0,1-2.28,1.79H80.27Z"/><rect class="cls-2" x="124.55" y="85.36" width="1.88" height="27.31"/><path class="cls-3" d="M121.49,120a.53.53,0,0,0-.53.53.52.52,0,0,0,.48.52h0a.53.53,0,0,0,.53-.53v-.06a.54.54,0,0,0-.53-.47Zm0,.69h0a.16.16,0,0,1-.16-.16.16.16,0,0,1,.16-.16.16.16,0,0,1,.17.14A.17.17,0,0,1,121.49,120.72Z"/><path class="cls-3" d="M121.49,124.52a4,4,0,1,0-3.95-4A4,4,0,0,0,121.49,124.52Z"/><circle class="cls-2" cx="121.49" cy="120.56" r="1.65"/><line class="cls-2" x1="121.46" y1="122.33" x2="121.46" y2="121.09"/><line class="cls-2" x1="122.02" y1="120.56" x2="123.14" y2="120.56"/><line class="cls-2" x1="120.96" y1="120.56" x2="119.85" y2="120.56"/><line class="cls-2" x1="121.49" y1="120.03" x2="121.49" y2="118.76"/><rect class="cls-2" x="116.56" y="115.6" width="9.87" height="9.93" rx="0.42"/><rect class="cls-2" x="181.35" y="126.87" width="23.83" height="0.45" transform="matrix(0.92, -0.38, 0.38, 0.92, -33.92, 83.59)"/><rect class="cls-2" x="161.17" y="301.6" width="23.83" height="0.45" transform="translate(-174.65 313.34) rotate(-62.06)"/><rect class="cls-2" x="270.47" y="294.14" width="0.49" height="25.79" transform="translate(-112.26 162.51) rotate(-27.92)"/><rect class="cls-2" x="200.17" y="268.62" width="19.48" height="0.37" transform="translate(-125.89 328.45) rotate(-62.08)"/><rect class="cls-2" x="200.17" y="209.26" width="19.48" height="0.37" transform="translate(-73.45 296.81) rotate(-62.07)"/><rect class="cls-2" x="317.08" y="208.41" width="19.48" height="0.37" transform="translate(-10.56 399.65) rotate(-62.07)"/><rect class="cls-2" x="254.57" y="142.06" width="0.45" height="23.83" transform="translate(-42.44 137.32) rotate(-27.94)"/><rect class="cls-2" x="121.76" y="150.53" width="23.83" height="0.45" transform="translate(-62.14 198.23) rotate(-62.06)"/><rect class="cls-2" x="63.39" y="288.68" width="23.83" height="0.45"/><rect class="cls-2" x="97.37" y="288.68" width="23.83" height="0.45"/><rect class="cls-2" x="164.52" y="248.96" width="19.32" height="0.37" transform="translate(-127.52 286.44) rotate(-62.09)"/><rect class="cls-2" x="173.99" y="263.45" width="0.37" height="19.34" transform="translate(-107.64 113.4) rotate(-27.93)"/><rect class="cls-2" x="161.66" y="331.15" width="14.02" height="31.94" rx="0.9"/><line class="cls-2" x1="173.98" y1="332.46" x2="173.98" y2="345.41"/><line class="cls-2" x1="171.85" y1="332.46" x2="171.85" y2="345.41"/><line class="cls-2" x1="169.73" y1="332.46" x2="169.73" y2="345.41"/><line class="cls-2" x1="167.6" y1="332.46" x2="167.6" y2="345.41"/><line class="cls-2" x1="165.48" y1="332.46" x2="165.48" y2="345.41"/><line class="cls-2" x1="163.35" y1="332.46" x2="163.35" y2="345.41"/><polygon class="cls-3" points="160.74 320.77 160.74 367.17 69.66 367.17 69.66 383.11 176.59 383.11 176.59 320.77 160.74 320.77"/><rect class="cls-2" x="49.99" y="367.06" width="19.1" height="16.05"/><polygon class="cls-3" points="49.99 365.89 68.69 365.89 68.69 366.28 68.89 366.48 69.1 366.48 69.1 367.06 49.99 367.06 49.99 365.89"/><rect class="cls-2" x="50.79" y="364.31" width="17.46" height="0.58"/><polygon class="cls-3" points="49.99 365.89 69.1 365.89 69.1 365.5 52.26 365.5 51.23 365.5 51.02 365.5 50.79 365.5 49.99 365.5 49.99 365.89"/><rect class="cls-2" x="51.23" y="364.92" width="1.03" height="0.58"/><rect class="cls-2" x="66.84" y="364.92" width="0.82" height="0.54"/><path class="cls-3" d="M168.66,354.53a.79.79,0,1,1,0-.51A.65.65,0,0,1,168.66,354.53Z"/><path class="cls-3" d="M173.94,355.38a.58.58,0,1,0,.58.58A.59.59,0,0,0,173.94,355.38Z"/><path class="cls-3" d="M173.94,352a.58.58,0,1,0,.58.58A.59.59,0,0,0,173.94,352Z"/><polygon class="cls-3" points="173.54 354.45 169.91 354.45 169.62 354.45 169.62 354.16 169.62 353.87 169.91 353.87 173.54 353.87 173.83 353.87 173.83 354.16 173.83 354.45 173.54 354.45"/><path class="cls-3" d="M162.82,360V348.48a1.27,1.27,0,0,1,1.27-1.27h7.61a1.27,1.27,0,0,1,1.27,1.27v5.39h-3.35v.58H173V360a1.27,1.27,0,0,1-1.27,1.27h-7.61A1.27,1.27,0,0,1,162.82,360Z"/><rect class="cls-2" x="105.33" y="368.27" width="23.36" height="13.89" rx="0.41"/><path class="cls-3" d="M109.55,376.21a2,2,0,1,0,2,2A2,2,0,0,0,109.55,376.21Z"/><path class="cls-3" d="M109.55,377.39a.8.8,0,1,0,.8.8A.8.8,0,0,0,109.55,377.39Z"/><path class="cls-3" d="M109.55,370.24a2,2,0,1,0,2,2A2,2,0,0,0,109.55,370.24Z"/><path class="cls-3" d="M109.55,371.52a.7.7,0,1,0,.69.7A.69.69,0,0,0,109.55,371.52Z"/><path class="cls-3" d="M117,376.21a2,2,0,1,0,2,2A2,2,0,0,0,117,376.21Z"/><path class="cls-3" d="M117,377.39a.8.8,0,1,0,.8.8A.8.8,0,0,0,117,377.39Z"/><path class="cls-3" d="M124.47,376.21a2,2,0,1,0,2,2A2,2,0,0,0,124.47,376.21Z"/><path class="cls-3" d="M124.47,377.39a.8.8,0,1,0,.8.8A.8.8,0,0,0,124.47,377.39Z"/><path class="cls-3" d="M124.47,370.24a2,2,0,1,0,2,2A2,2,0,0,0,124.47,370.24Z"/><path class="cls-3" d="M124.47,371.52a.7.7,0,1,0,.7.7A.7.7,0,0,0,124.47,371.52Z"/><path class="cls-3" d="M115.19,371a.52.52,0,0,0,.52-.52.52.52,0,1,0-1,0A.52.52,0,0,0,115.19,371Z"/><path class="cls-3" d="M115.19,373.3a.52.52,0,0,0,.52-.52.52.52,0,1,0-1,0A.52.52,0,0,0,115.19,373.3Z"/><path class="cls-3" d="M117,373.3a.52.52,0,0,0,.53-.52.53.53,0,0,0-.53-.53.52.52,0,0,0-.52.53A.52.52,0,0,0,117,373.3Z"/><path class="cls-3" d="M118.83,371a.52.52,0,0,0,.53-.52.53.53,0,1,0-1,0A.52.52,0,0,0,118.83,371Z"/><path class="cls-3" d="M118.83,373.3a.52.52,0,0,0,.53-.52.53.53,0,1,0-1,0A.52.52,0,0,0,118.83,373.3Z"/><rect class="cls-2" x="73.06" y="320.21" width="10.02" height="14.87"/><rect class="cls-2" x="112.14" y="320.21" width="10.61" height="14.87"/><rect class="cls-2" x="90.18" y="301.58" width="14.87" height="10.75"/><rect class="cls-2" x="83.08" y="312.33" width="29.06" height="28.33"/><rect class="cls-2" x="90.18" y="340.66" width="14.87" height="10.61"/><path class="cls-3" d="M225.14,358a1,1,0,1,1,1.9,0,1.1,1.1,0,0,1-.49.93c-.71.55-.36,1,0,1l4.23,1a.85.85,0,0,1-.35,1.58h-8.67a.86.86,0,0,1-.29-1.61l3.94-.9"/><path class="cls-3" d="M225.14,365.59a1,1,0,1,1,1.9,0,1.1,1.1,0,0,1-.49.92c-.71.56-.36,1,0,1l4.23,1a.85.85,0,0,1-.35,1.58h-8.67a.86.86,0,0,1-.29-1.61l3.94-.89"/><path class="cls-3" d="M225.14,373.05a1,1,0,1,1,1.9,0,1.12,1.12,0,0,1-.49.93c-.71.55-.36,1,0,1l4.23,1a.85.85,0,0,1-.35,1.58h-8.67a.86.86,0,0,1-.29-1.62l3.94-.89"/><path class="cls-3" d="M225.14,350.56a1,1,0,1,1,1.9,0,1.1,1.1,0,0,1-.49.93c-.71.55-.36,1,0,1l4.23,1a.85.85,0,0,1-.35,1.58h-8.67a.86.86,0,0,1-.29-1.61l3.94-.9"/><path class="cls-3" d="M225.14,343a1,1,0,1,1,1.9,0,1.12,1.12,0,0,1-.49.93c-.71.55-.36,1,0,1l4.23,1a.85.85,0,0,1-.35,1.58h-8.67a.86.86,0,0,1-.29-1.62l3.94-.89"/><path class="cls-3" d="M225.14,335.52a1,1,0,1,1,1.9,0,1.12,1.12,0,0,1-.49.93c-.71.55-.36,1,0,1l4.23,1a.85.85,0,0,1-.35,1.58h-8.67a.86.86,0,0,1-.29-1.61l3.94-.9"/><rect class="cls-2" x="208.08" y="371.12" width="8.2" height="9.42" rx="0.46"/><polyline class="cls-3" points="212.18 380.37 212.18 374.89 213.74 371.11"/><line class="cls-2" x1="212.19" y1="375.02" x2="210.76" y2="371.28"/><line class="cls-2" x1="211.07" y1="375.33" x2="209.03" y2="375.33"/><rect class="cls-2" x="195.62" y="371.12" width="8.2" height="9.42" rx="0.46"/><polyline class="cls-3" points="199.72 380.37 199.72 374.89 201.28 371.11"/><line class="cls-2" x1="199.73" y1="375.02" x2="198.3" y2="371.28"/><line class="cls-2" x1="198.61" y1="375.33" x2="196.58" y2="375.33"/><polygon class="cls-3" points="218.53 330.32 233.35 330.32 233.35 368.29 233.35 383.11 218.53 383.11 192.33 383.11 192.33 368.29 218.53 368.29 218.53 330.32"/><rect class="cls-2" x="57.78" y="178.65" width="42.78" height="5.91"/><path class="cls-3" d="M62.32,181.61A1.68,1.68,0,1,0,64,179.93,1.68,1.68,0,0,0,62.32,181.61Z"/><path class="cls-3" d="M87,179.77H77.49a1,1,0,0,0-1,.82H88a1,1,0,0,0-1-.82Zm-10.53,1.55v.46a1,1,0,0,0,1,1H87a1,1,0,0,0,1-1v-.46Z"/><rect class="cls-2" x="67.29" y="180.59" width="29.95" height="0.73"/><path class="cls-3" d="M60.28,182.64a1,1,0,1,1,1-1A1,1,0,0,1,60.28,182.64Z"/><path class="cls-3" d="M105.66,262.21h2.26a2.27,2.27,0,0,0,2.27-2.26v-18.7a2.27,2.27,0,0,0-2.27-2.26h-2.26Z"/><path class="cls-3" d="M26.4,262.21h2.27V239H26.4a2.26,2.26,0,0,0-2.26,2.26V260A2.27,2.27,0,0,0,26.4,262.21Z"/><rect class="cls-2" x="80" y="257.68" width="25.67" height="4.53"/><rect class="cls-2" x="54.33" y="257.68" width="25.67" height="4.53"/><rect class="cls-2" x="28.67" y="257.68" width="25.67" height="4.53"/><path class="cls-3" d="M105.66,257.68H80v-16.3A2.39,2.39,0,0,1,82.39,239h20.88a2.4,2.4,0,0,1,2.39,2.39Z"/><path class="cls-3" d="M80,257.68H54.33v-16.3a2.4,2.4,0,0,1,2.4-2.39H77.6a2.4,2.4,0,0,1,2.4,2.39Z"/><path class="cls-3" d="M54.33,257.68H28.67V213.33a2.4,2.4,0,0,1,2.39-2.39H51.94a2.4,2.4,0,0,1,2.39,2.39Z"/><rect class="cls-2" x="67.06" y="212.16" width="28.72" height="16.24"/><rect class="cls-2" x="123.77" y="201.48" width="23.22" height="4.23" rx="1.38"/><rect class="cls-2" x="123.77" y="205.72" width="18.11" height="18.87" rx="1.38"/><rect class="cls-2" x="141.89" y="205.72" width="5.62" height="18.87" rx="1.38"/><rect class="cls-2" x="123.77" y="224.6" width="23.22" height="4.23" rx="1.38"/><path class="cls-3" d="M241,267.16c0,2,2.47,5.9,7.66,5.9,2.93,0,5-1.7,7-2.16a2.6,2.6,0,0,1-.06-.56V264a2.69,2.69,0,0,1,.06-.57c-2-.45-4.09-2.16-7-2.16C243.45,261.26,241,265.16,241,267.16Z"/><path class="cls-3" d="M260.72,273.13H258.4a2.81,2.81,0,0,1-2.8-2.79V264a2.81,2.81,0,0,1,2.8-2.8h2.32a.48.48,0,0,1,.47.48v11A.47.47,0,0,1,260.72,273.13Z"/><path class="cls-3" d="M258.4,267.93a.77.77,0,1,1,.76-.77A.76.76,0,0,1,258.4,267.93Z"/><path class="cls-3" d="M242.09,267.16c0,1.6,1.93,4.7,6,4.7,2,0,3.51-1.1,4.89-1.58.38-.14.45-.24.45-.57v-5.09c0-.34-.07-.44-.45-.57-1.38-.49-2.84-1.58-4.89-1.58-4,0-6,3.1-6,4.69Z"/><path class="cls-3" d="M252,267.16c0-1.5-.47-1.61-1-1.61s-1,.72-1,1.61.47,1.62,1,1.62S252,268.67,252,267.16Z"/><path class="cls-3" d="M236.14,253.06v4.2c0,7-14.36,7-14.36,0v-4.2a.86.86,0,0,1,.86-.85h12.65A.86.86,0,0,1,236.14,253.06Z"/><path class="cls-3" d="M229.38,254.52c2.87.11,5.61,1.4,5.61,3.85,0,1.9-3,3.37-6,3.37s-6-1.47-6-3.37c0-2.45,2.74-3.74,5.61-3.85"/><path class="cls-3" d="M229.73,256.92a.77.77,0,1,1-1.19-.64v.22a.42.42,0,0,0,.42.42h0a.42.42,0,0,0,.42-.42v-.22A.77.77,0,0,1,229.73,256.92Z"/><path class="cls-3" d="M228.1,253.44a.52.52,0,1,1-.51-.52A.51.51,0,0,1,228.1,253.44Z"/><path class="cls-3" d="M230.85,253.44a.52.52,0,1,1-.52-.52A.51.51,0,0,1,230.85,253.44Z"/><path class="cls-3" d="M228.54,253.55v2.95a.42.42,0,0,0,.42.42h0a.42.42,0,0,0,.42-.42v-2.95a.23.23,0,0,0-.23-.23h-.38A.23.23,0,0,0,228.54,253.55Z"/><path class="cls-3" d="M216.57,170H217l.14-.46h13.57l.14.46h.4a.23.23,0,0,1,.25.21v9.88a.51.51,0,0,1-.53.48H216.86a.51.51,0,0,1-.53-.48V170.2A.23.23,0,0,1,216.57,170Z"/><path class="cls-3" d="M219.15,180.56h9.51a.12.12,0,0,1,.12.13V181a.47.47,0,0,1-.47.47h-8.82A.47.47,0,0,1,219,181v-.34A.13.13,0,0,1,219.15,180.56Z"/><line class="cls-2" x1="216.33" y1="179.23" x2="231.48" y2="179.23"/><rect class="cls-2" x="265.77" y="169.53" width="46.21" height="20.29" rx="0.86"/><path class="cls-3" d="M272.3,188.31h27.19a8.67,8.67,0,0,0,8.64-8.64h0a8.67,8.67,0,0,0-8.64-8.63H272.3a3.52,3.52,0,0,0-3.5,3.5v4.64h3.28a.49.49,0,0,1,.49.49h0a.49.49,0,0,1-.49.5H268.8v4.64A3.52,3.52,0,0,0,272.3,188.31Z"/><path class="cls-3" d="M272.18,180.73a1.06,1.06,0,1,0-.93-1.55h.83a.49.49,0,0,1,.49.49h0a.49.49,0,0,1-.49.5h-.83A1.07,1.07,0,0,0,272.18,180.73Z"/><path class="cls-3" d="M267.33,179.18h4.75a.49.49,0,0,1,.49.49h0a.49.49,0,0,1-.49.5h-4.75a.27.27,0,0,1-.27-.27v-.45A.27.27,0,0,1,267.33,179.18Z"/><path class="cls-3" d="M267.4,178.49a.62.62,0,1,0-.61-.62A.61.61,0,0,0,267.4,178.49Z"/><path class="cls-3" d="M267.4,182.09a.62.62,0,1,0-.61-.62A.61.61,0,0,0,267.4,182.09Z"/><path class="cls-3" d="M241.7,217.3c0,2,2.47,5.9,7.66,5.9,2.93,0,5-1.71,7-2.16a2.62,2.62,0,0,1-.06-.57v-6.35a2.6,2.6,0,0,1,.06-.56c-2-.46-4.09-2.16-7-2.16C244.17,211.4,241.7,215.29,241.7,217.3Z"/><path class="cls-3" d="M261.44,223.27h-2.32a2.81,2.81,0,0,1-2.8-2.8v-6.35a2.81,2.81,0,0,1,2.8-2.79h2.32a.47.47,0,0,1,.47.47v11A.48.48,0,0,1,261.44,223.27Z"/><path class="cls-3" d="M259.12,218.07a.77.77,0,1,1,0-1.54.77.77,0,0,1,0,1.54Z"/><path class="cls-3" d="M242.81,217.3c0,1.59,1.93,4.69,6,4.69,2,0,3.51-1.09,4.89-1.58.38-.13.45-.24.45-.57v-5.09c0-.33-.07-.43-.45-.57-1.38-.48-2.84-1.58-4.89-1.58-4,0-6,3.1-6,4.7Z"/><path class="cls-3" d="M252.68,217.3c0-1.51-.46-1.62-1-1.62s-1,.73-1,1.62.47,1.61,1,1.61S252.68,218.8,252.68,217.3Z"/><path class="cls-3" d="M222.38,236.94v-4.2c0-7,14.36-7,14.36,0v4.2a.86.86,0,0,1-.86.85H223.23A.85.85,0,0,1,222.38,236.94Z"/><path class="cls-3" d="M229.14,235.48c-2.87-.11-5.61-1.4-5.61-3.85,0-1.9,3-3.37,6-3.37s6,1.47,6,3.37c0,2.45-2.74,3.74-5.61,3.85"/><path class="cls-3" d="M228.79,233.08a.77.77,0,1,1,1.53,0,.76.76,0,0,1-.34.64v-.22a.42.42,0,0,0-.42-.42h0a.42.42,0,0,0-.42.42v.22A.77.77,0,0,1,228.79,233.08Z"/><path class="cls-3" d="M230.42,236.56a.51.51,0,0,1,.51-.51.52.52,0,1,1,0,1A.51.51,0,0,1,230.42,236.56Z"/><path class="cls-3" d="M227.67,236.56a.52.52,0,1,1,.52.52A.51.51,0,0,1,227.67,236.56Z"/><path class="cls-3" d="M230,236.45V233.5a.42.42,0,0,0-.42-.42h0a.42.42,0,0,0-.42.42v2.95a.23.23,0,0,0,.23.23h.38A.23.23,0,0,0,230,236.45Z"/><path class="cls-3" d="M257.34,187.66V171.82a1.21,1.21,0,0,0-1.21-1.21H240.28a1.12,1.12,0,0,0-1.14,1.13V182.1a1.09,1.09,0,0,0,.33.8l5.5,5.56a1.14,1.14,0,0,0,.8.33h10.42a1.15,1.15,0,0,0,1.15-1.13Zm1.09-18.12-20.38-.06,0,13.65,6.81,6.75,13.55,0,.05-20.37Z"/><path class="cls-3" d="M253.64,175a.81.81,0,1,0-.8-.81A.81.81,0,0,0,253.64,175Z"/><path class="cls-3" d="M267.91,215.73h4.2c7,0,7,14.36,0,14.36h-4.2a.85.85,0,0,1-.85-.85V216.59A.86.86,0,0,1,267.91,215.73Z"/><path class="cls-3" d="M269.37,222.49c.11-2.87,1.4-5.61,3.85-5.61,1.9,0,3.37,3,3.37,6s-1.47,6-3.37,6c-2.45,0-3.74-2.74-3.85-5.61"/><path class="cls-3" d="M271.77,222.14a.77.77,0,1,1-.64,1.19h.22a.42.42,0,0,0,.42-.42h0a.42.42,0,0,0-.42-.42h-.22A.77.77,0,0,1,271.77,222.14Z"/><path class="cls-3" d="M268.29,223.77a.52.52,0,1,1-.52.51A.51.51,0,0,1,268.29,223.77Z"/><path class="cls-3" d="M268.29,221a.52.52,0,1,1-.52.52A.51.51,0,0,1,268.29,221Z"/><path class="cls-3" d="M268.4,223.33h3a.42.42,0,0,0,.42-.42h0a.42.42,0,0,0-.42-.42h-3a.23.23,0,0,0-.23.23v.38A.23.23,0,0,0,268.4,223.33Z"/><path class="cls-3" d="M267.91,196.3h4.2c7,0,7,14.36,0,14.36h-4.2a.85.85,0,0,1-.85-.85V197.16A.86.86,0,0,1,267.91,196.3Z"/><path class="cls-3" d="M269.37,203.06c.11-2.87,1.4-5.61,3.85-5.61,1.9,0,3.37,3,3.37,6s-1.47,6-3.37,6c-2.45,0-3.74-2.74-3.85-5.61"/><path class="cls-3" d="M271.77,202.71a.77.77,0,1,1-.64,1.19h.22a.42.42,0,0,0,.42-.42h0a.42.42,0,0,0-.42-.42h-.22A.77.77,0,0,1,271.77,202.71Z"/><path class="cls-3" d="M268.29,204.34a.52.52,0,1,1-.52.51A.51.51,0,0,1,268.29,204.34Z"/><path class="cls-3" d="M268.29,201.59a.52.52,0,1,1-.52.52A.51.51,0,0,1,268.29,201.59Z"/><path class="cls-3" d="M268.4,203.9h3a.42.42,0,0,0,.42-.42h0a.42.42,0,0,0-.42-.42h-3a.23.23,0,0,0-.23.23v.38A.23.23,0,0,0,268.4,203.9Z"/><rect class="cls-2" x="265.77" y="194.1" width="13.25" height="38.19"/><path class="cls-3" d="M296.38,228.14c2,0,5.9,2.47,5.9,7.66,0,2.93-1.7,5-2.16,7a2.6,2.6,0,0,0-.56-.06h-6.35a2.76,2.76,0,0,0-.57.06c-.45-2-2.16-4.09-2.16-7C290.48,230.61,294.38,228.14,296.38,228.14Z"/><path class="cls-3" d="M302.35,247.88v-2.32a2.8,2.8,0,0,0-2.79-2.8h-6.35a2.81,2.81,0,0,0-2.8,2.8v2.32a.48.48,0,0,0,.48.47h11A.47.47,0,0,0,302.35,247.88Z"/><path class="cls-3" d="M297.15,245.56a.77.77,0,1,0-.77.76A.76.76,0,0,0,297.15,245.56Z"/><path class="cls-3" d="M296.38,229.25c1.6,0,4.7,1.93,4.7,6,0,2-1.1,3.51-1.58,4.89-.13.38-.24.45-.57.45h-5.09c-.33,0-.44-.07-.57-.45-.49-1.38-1.58-2.84-1.58-4.89,0-4,3.1-6,4.69-6Z"/><path class="cls-3" d="M296.38,239.12c-1.5,0-1.61-.46-1.61-1s.72-1.05,1.61-1.05,1.62.47,1.62,1.05S297.89,239.12,296.38,239.12Z"/><path class="cls-3" d="M354.74,224.39a1,1,0,1,1,1.9,0,1.1,1.1,0,0,1-.49.92c-.71.56-.36,1,0,1l4.23,1a.85.85,0,0,1-.35,1.58h-8.67a.86.86,0,0,1-.29-1.61l3.94-.89"/><path class="cls-3" d="M354.74,232a1,1,0,1,1,1.9,0,1.12,1.12,0,0,1-.49.93c-.71.55-.36,1,0,1l4.23,1a.85.85,0,0,1-.35,1.58h-8.67a.86.86,0,0,1-.29-1.61L355,234"/><path class="cls-3" d="M354.74,239.43a1,1,0,1,1,1.9,0,1.1,1.1,0,0,1-.49.93c-.71.55-.36,1,0,1l4.23,1a.85.85,0,0,1-.35,1.58h-8.67a.86.86,0,0,1-.29-1.61l3.94-.9"/><path class="cls-3" d="M354.74,216.93a1,1,0,1,1,1.9,0,1.09,1.09,0,0,1-.49.92c-.71.56-.36,1,0,1l4.23,1a.85.85,0,0,1-.35,1.58h-8.67a.86.86,0,0,1-.29-1.61L355,219"/><path class="cls-3" d="M354.74,209.36a1,1,0,1,1,1.9,0,1.1,1.1,0,0,1-.49.93c-.71.56-.36,1,0,1l4.23,1a.85.85,0,0,1-.35,1.58h-8.67a.86.86,0,0,1-.29-1.61l3.94-.9"/><path class="cls-3" d="M354.74,201.9a1,1,0,1,1,1.9,0,1.1,1.1,0,0,1-.49.92c-.71.56-.36,1,0,1l4.23,1a.85.85,0,0,1-.35,1.58h-8.67a.86.86,0,0,1-.29-1.61l3.94-.9"/><rect class="cls-2" x="337.96" y="236.36" width="8.2" height="9.42" rx="0.46"/><polyline class="cls-3" points="342.06 245.61 342.06 240.13 343.62 236.35"/><line class="cls-2" x1="342.07" y1="240.26" x2="340.64" y2="236.52"/><line class="cls-2" x1="340.95" y1="240.57" x2="338.92" y2="240.57"/><rect class="cls-2" x="326.35" y="236.36" width="8.2" height="9.42" rx="0.46"/><polyline class="cls-3" points="330.45 245.61 330.45 240.13 332.01 236.35"/><line class="cls-2" x1="330.46" y1="240.26" x2="329.04" y2="236.52"/><line class="cls-2" x1="329.34" y1="240.57" x2="327.31" y2="240.57"/><polygon class="cls-3" points="348.13 174.31 362.95 174.31 362.95 233.53 362.95 248.35 348.13 248.35 324.33 248.35 324.33 233.53 348.13 233.53 348.13 174.31"/><path class="cls-3" d="M354.74,194.32a1,1,0,1,1,1.9,0,1.12,1.12,0,0,1-.49.93c-.71.55-.36,1,0,1l4.23,1a.85.85,0,0,1-.35,1.58h-8.67a.86.86,0,0,1-.29-1.61l3.94-.9"/><path class="cls-3" d="M354.74,186.75a1,1,0,1,1,1.9,0,1.09,1.09,0,0,1-.49.92c-.71.56-.36,1,0,1l4.23,1a.85.85,0,0,1-.35,1.58h-8.67a.86.86,0,0,1-.29-1.61l3.94-.89"/><path class="cls-3" d="M354.74,179.29a1,1,0,1,1,1.9,0,1.09,1.09,0,0,1-.49.92c-.71.56-.36,1,0,1l4.23,1a.85.85,0,0,1-.35,1.58h-8.67a.86.86,0,0,1-.29-1.61l3.94-.89"/><rect class="cls-2" x="361.79" y="60.6" width="1.16" height="43.73"/><rect class="cls-2" x="309.78" y="60.6" width="52.01" height="43.73"/><rect class="cls-2" x="308.62" y="60.6" width="1.16" height="43.73"/><path class="cls-3" d="M360.6,100.81V85.53a.76.76,0,0,0-.76-.76H351.2v3.62l-1.32,1.83v10.59a.76.76,0,0,0,.76.76h9.2A.76.76,0,0,0,360.6,100.81Z"/><path class="cls-3" d="M360.6,79.39V64.12a.77.77,0,0,0-.76-.77H351.2v16.8h8.64A.76.76,0,0,0,360.6,79.39Z"/><polygon class="cls-3" points="311.6 102.98 311.6 61.95 351.2 61.95 351.2 88.39 340.69 102.98 311.6 102.98"/><polygon class="cls-3" points="351.2 88.39 337.36 93.02 340.69 102.98 351.2 88.39"/><rect class="cls-2" x="353.21" y="48.06" width="9.75" height="9.68"/><path class="cls-3" d="M355.3,52.9a2.78,2.78,0,1,1,2.78,2.78A2.77,2.77,0,0,1,355.3,52.9Z"/><path class="cls-3" d="M357.1,52.9a1,1,0,1,1,1,1A1,1,0,0,1,357.1,52.9Z"/><line class="cls-2" x1="357.1" y1="52.9" x2="357.72" y2="52.9"/><line class="cls-2" x1="358.43" y1="52.9" x2="359.05" y2="52.9"/><line class="cls-2" x1="358.08" y1="53.88" x2="358.08" y2="53.26"/><line class="cls-2" x1="358.08" y1="52.55" x2="358.08" y2="51.92"/><path class="cls-3" d="M357.65,52.9a.43.43,0,0,1,.43-.43.43.43,0,1,1,0,.86A.43.43,0,0,1,357.65,52.9Z"/><rect class="cls-2" x="353.21" y="107.19" width="9.75" height="9.68"/><path class="cls-3" d="M355.3,112a2.78,2.78,0,1,1,2.78,2.78A2.77,2.77,0,0,1,355.3,112Z"/><path class="cls-3" d="M357.1,112a1,1,0,1,1,1,1A1,1,0,0,1,357.1,112Z"/><line class="cls-2" x1="357.1" y1="112.03" x2="357.72" y2="112.03"/><line class="cls-2" x1="358.43" y1="112.03" x2="359.05" y2="112.03"/><line class="cls-2" x1="358.08" y1="113.01" x2="358.08" y2="112.38"/><line class="cls-2" x1="358.08" y1="111.68" x2="358.08" y2="111.05"/><path class="cls-3" d="M357.65,112a.43.43,0,0,1,.43-.43.43.43,0,1,1,0,.86A.43.43,0,0,1,357.65,112Z"/><polygon class="cls-3" points="17.37 171.31 17.37 155.01 17.37 138.32 33.67 138.32 33.67 147.14 41.54 155.01 50.36 155.01 50.36 171.31 33.67 171.31 17.37 171.31"/><path class="cls-3" d="M258.43,51V16.69H247.65a2.51,2.51,0,0,0-2.49,2.5V48.47A2.5,2.5,0,0,0,247.65,51Z"/><rect class="cls-2" x="256.17" y="17.46" width="1.6" height="32.73"/><path class="cls-3" d="M233,26.72a5.06,5.06,0,1,1,5.06,5.05A5.06,5.06,0,0,1,233,26.72Z"/><rect class="cls-2" x="130.17" y="46.88" width="1.16" height="43.73"/><rect class="cls-2" x="131.33" y="46.88" width="52.01" height="43.73"/><rect class="cls-2" x="183.34" y="46.88" width="1.16" height="43.73"/><path class="cls-3" d="M132.51,87.09V71.82a.78.78,0,0,1,.77-.77h8.64v3.63l1.32,1.83V87.09a.77.77,0,0,1-.76.77h-9.2A.78.78,0,0,1,132.51,87.09Z"/><path class="cls-3" d="M132.51,65.68V50.4a.77.77,0,0,1,.77-.76h8.64v16.8h-8.64A.77.77,0,0,1,132.51,65.68Z"/><polygon class="cls-3" points="181.52 89.27 181.52 48.23 141.92 48.23 141.92 74.68 152.43 89.27 181.52 89.27"/><polygon class="cls-3" points="141.92 74.68 155.76 79.3 152.43 89.27 141.92 74.68"/><rect class="cls-2" x="130.17" y="34.35" width="9.75" height="9.68"/><path class="cls-3" d="M137.82,39.19A2.78,2.78,0,1,0,135,42,2.77,2.77,0,0,0,137.82,39.19Z"/><path class="cls-3" d="M136,39.19a1,1,0,1,0-1,1A1,1,0,0,0,136,39.19Z"/><line class="cls-2" x1="136.02" y1="39.19" x2="135.4" y2="39.19"/><line class="cls-2" x1="134.69" y1="39.19" x2="134.06" y2="39.19"/><line class="cls-2" x1="135.04" y1="40.16" x2="135.04" y2="39.54"/><line class="cls-2" x1="135.04" y1="38.83" x2="135.04" y2="38.21"/><path class="cls-3" d="M135.47,39.19a.43.43,0,1,0-.43.43A.43.43,0,0,0,135.47,39.19Z"/><rect class="cls-2" x="130.17" y="93.48" width="9.75" height="9.68"/><path class="cls-3" d="M137.82,98.32A2.78,2.78,0,1,0,135,101.1,2.77,2.77,0,0,0,137.82,98.32Z"/><path class="cls-3" d="M136,98.32a1,1,0,1,0-1,1A1,1,0,0,0,136,98.32Z"/><line class="cls-2" x1="136.02" y1="98.32" x2="135.4" y2="98.32"/><line class="cls-2" x1="134.69" y1="98.32" x2="134.06" y2="98.32"/><line class="cls-2" x1="135.04" y1="99.29" x2="135.04" y2="98.67"/><line class="cls-2" x1="135.04" y1="97.96" x2="135.04" y2="97.34"/><path class="cls-3" d="M135.47,98.32a.43.43,0,0,0-.86,0,.43.43,0,0,0,.86,0Z"/><path class="cls-3" d="M250.22,105.71a1,1,0,1,1,1.9,0,1.1,1.1,0,0,1-.49.92c-.71.56-.36,1,0,1l4.23,1a.85.85,0,0,1-.35,1.58h-8.67a.86.86,0,0,1-.29-1.61l3.94-.89"/><path class="cls-3" d="M250.22,113.28a1,1,0,1,1,1.9,0,1.12,1.12,0,0,1-.49.93c-.71.55-.36,1,0,1l4.23,1a.85.85,0,0,1-.35,1.58h-8.67a.86.86,0,0,1-.29-1.61l3.94-.9"/><path class="cls-3" d="M250.22,120.75a1,1,0,1,1,1.9,0,1.1,1.1,0,0,1-.49.93c-.71.55-.36,1,0,1l4.23,1a.85.85,0,0,1-.35,1.58h-8.67a.86.86,0,0,1-.29-1.61l3.94-.9"/><path class="cls-3" d="M250.22,98.25a1,1,0,1,1,1.9,0,1.09,1.09,0,0,1-.49.92c-.71.56-.36,1,0,1l4.23,1a.85.85,0,0,1-.35,1.58h-8.67a.86.86,0,0,1-.29-1.61l3.94-.89"/><path class="cls-3" d="M250.22,90.68a1,1,0,1,1,1.9,0,1.1,1.1,0,0,1-.49.93c-.71.55-.36,1,0,1l4.23,1a.85.85,0,0,1-.35,1.58h-8.67a.86.86,0,0,1-.29-1.61l3.94-.9"/><path class="cls-3" d="M250.22,83.22a1,1,0,1,1,1.9,0,1.1,1.1,0,0,1-.49.92c-.71.56-.36,1,0,1l4.23,1a.85.85,0,0,1-.35,1.58h-8.67a.86.86,0,0,1-.29-1.61l3.94-.9"/><rect class="cls-2" x="233.44" y="117.68" width="8.2" height="9.42" rx="0.46"/><polyline class="cls-3" points="237.54 126.93 237.54 121.45 239.1 117.67"/><line class="cls-2" x1="237.55" y1="121.58" x2="236.12" y2="117.84"/><line class="cls-2" x1="236.43" y1="121.89" x2="234.4" y2="121.89"/><rect class="cls-2" x="221.83" y="117.68" width="8.2" height="9.42" rx="0.46"/><polyline class="cls-3" points="225.93 126.93 225.93 121.45 227.49 117.67"/><line class="cls-2" x1="225.94" y1="121.58" x2="224.52" y2="117.84"/><line class="cls-2" x1="224.82" y1="121.89" x2="222.79" y2="121.89"/><polygon class="cls-3" points="243.61 65.38 258.43 65.38 258.43 114.85 258.43 129.67 243.61 129.67 219.81 129.67 219.81 114.85 243.61 114.85 243.61 65.38"/><path class="cls-3" d="M250.22,75.64a1,1,0,1,1,1.9,0,1.12,1.12,0,0,1-.49.93c-.71.55-.36,1,0,1l4.23,1a.85.85,0,0,1-.35,1.58h-8.67a.86.86,0,0,1-.29-1.61l3.94-.9"/><path class="cls-3" d="M250.22,68.07a1,1,0,1,1,1.9,0,1.09,1.09,0,0,1-.49.92c-.71.56-.36,1,0,1l4.23,1a.85.85,0,0,1-.35,1.58h-8.67a.86.86,0,0,1-.29-1.61l3.94-.89"/><text class="cls-4" transform="translate(194.55 309.93)">ПРИ<tspan class="cls-5" x="16.06" y="0">ХО</tspan><tspan x="26.91" y="0">ЖАЯ</tspan><tspan class="cls-6" x="14.4" y="8.95">9</tspan><tspan x="18.88" y="8.95">,49</tspan></text><text class="cls-4" transform="translate(128.64 307.73)">КУХНЯ<tspan x="3.75" y="8.95">15,27</tspan></text><text class="cls-4" transform="translate(120.05 259.26)"><tspan class="cls-7">Г</tspan><tspan x="4.18" y="0">ОСТИНАЯ</tspan><tspan x="11.1" y="8.95">22</tspan><tspan class="cls-8" x="20.5" y="8.95">,</tspan><tspan x="21.82" y="8.95">76</tspan></text><text class="cls-4" transform="translate(183.23 154.76)"><tspan class="cls-5">Х<tspan class="cls-9" x="4.98" y="0">О</tspan><tspan class="cls-10" x="10.8" y="0">ЛЛ</tspan></tspan><tspan x="5.61" y="8.95">8</tspan><tspan class="cls-6" x="10.26" y="8.95">,</tspan><tspan x="11.85" y="8.95">6</tspan></text><text class="cls-4" transform="translate(220.49 202.54)">ВАННАЯ<tspan x="10.44" y="8.95">3,8</tspan></text><text class="cls-4" transform="translate(216.56 272.45)">С/У<tspan x="-0.04" y="8.95">1</tspan><tspan class="cls-11" x="2.67" y="8.95">,</tspan><tspan x="3.98" y="8.95">75</tspan></text><text class="cls-4" transform="translate(28 99.76)">СПАЛЬНЯ<tspan x="9.86" y="8.95">16</tspan><tspan class="cls-11" x="17.3" y="8.95">,</tspan><tspan class="cls-12" x="18.61" y="8.95">79</tspan></text><text class="cls-4" transform="translate(193.8 70.76)">СПАЛЬНЯ<tspan x="9.84" y="8.95">1</tspan><tspan class="cls-6" x="12.56" y="8.95">9,</tspan><tspan class="cls-12" x="18.63" y="8.95">67</tspan></text><text class="cls-4" transform="translate(294.3 134.76)">СПАЛЬНЯ<tspan x="9" y="8.95">23</tspan><tspan class="cls-8" x="18.16" y="8.95">,</tspan><tspan x="19.47" y="8.95">79</tspan></text><text class="cls-4" transform="translate(283.52 208.73)">ВАННАЯ<tspan x="8.04" y="8.95">5,24</tspan></text><text class="cls-4" transform="translate(11.1 313.26)">Л<tspan class="cls-13" x="5.7" y="0">О</tspan><tspan x="11.52" y="0">ДЖИЯ</tspan><tspan x="10.63" y="8.95">1,88</tspan></text></g></g></svg>