<svg xmlns="http://www.w3.org/2000/svg" viewBox="0 0 309.91 220.32"><defs><style>.cls-1{fill:#00ada8;}.cls-1,.cls-3{fill-rule:evenodd;}.cls-2,.cls-3{fill:none;stroke:#231f20;stroke-linejoin:bevel;stroke-width:0.4px;}.cls-4{font-size:8px;fill:#231f20;font-family:ProximaNova-Regular, Proxima Nova;}.cls-5{letter-spacing:-0.03em;}.cls-6{letter-spacing:-0.04em;}.cls-7{letter-spacing:-0.03em;}.cls-8{letter-spacing:-0.08em;}.cls-9{letter-spacing:-0.03em;}.cls-10{letter-spacing:0em;}.cls-11{letter-spacing:0em;}.cls-12{letter-spacing:-0.03em;}</style></defs><title>Ресурс 7</title><g id="Слой_2" data-name="Слой 2"><g id="Layer_1" data-name="Layer 1"><path class="cls-1" d="M75.59,220.32H309.71v-42.6h-8.52v33.84H268v-37H260v40.08H162.59v-67.8h-2.28v2.88h-36.6v2h26v29.64h-2.88v33.24H81V151.8h20.16v-2H78.83V161h-64V148.32H9.23v18.36H75.35v53.64ZM300.83,33.24h8.88V2.88H188.51V0H177.23V2.88H157.55V77.76H9.23v42.36h5.64V83.4H160.31v2h2.16v-2h.72V8.52h14V11.4h11.28V8.52H300.83V33.24ZM41.75,118.68V113H78.47v5.64ZM149,205.44h11.28v9.24H149v-9.24Zm11.28-2H149V183.6h2.76V151.8h8.52v51.6Zm0-92.52h2.16V113H197v5.64H162.47v2.76h-2.16V110.88ZM300.83,98.4h8.88v30.12h-8.52V121.8H268V126H260v-7.32H236.51V113h64.32Z"/><rect class="cls-2" x="297.95" y="33.24" width="11.76" height="65.16"/><rect class="cls-2" x="304.06" y="63.78" width="2.26" height="4.07"/><path class="cls-3" d="M305.76,94.33V67.86m0-4.08V37.31"/><path class="cls-3" d="M304.63,94.33V67.86m0-4.08V37.31"/><rect class="cls-2" x="304.06" y="33.24" width="2.26" height="4.07"/><rect class="cls-2" x="304.06" y="94.33" width="2.26" height="4.07"/><rect class="cls-2" x="298.31" y="128.52" width="11.4" height="49.2"/><rect class="cls-2" x="304.4" y="151.08" width="2.26" height="4.07"/><path class="cls-3" d="M306,173.65V155.16m0-4.08V132.59"/><path class="cls-3" d="M304.91,173.65V155.16m0-4.08V132.59"/><rect class="cls-2" x="304.35" y="128.52" width="2.26" height="4.07"/><rect class="cls-2" x="304.35" y="173.65" width="2.26" height="4.07"/><line class="cls-2" x1="262.36" y1="126" x2="265.12" y2="126"/><rect class="cls-2" x="247.21" y="136.58" width="22.18" height="0.42" transform="matrix(0.38, -0.92, 0.92, 0.38, 33.15, 323.17)"/><rect class="cls-2" x="259.18" y="148.27" width="9.52" height="26.33"/><rect class="cls-2" x="262.81" y="148.27" width="2.26" height="4.07"/><line class="cls-2" x1="264.44" y1="152.34" x2="264.52" y2="171.09"/><line class="cls-2" x1="263.31" y1="152.34" x2="263.31" y2="171.09"/><rect class="cls-2" x="262.81" y="171.09" width="2.26" height="3.51"/><rect class="cls-2" x="101" y="146.84" width="20.82" height="0.39" transform="translate(-47.75 53.77) rotate(-22.48)"/><rect class="cls-2" x="155.95" y="124.31" width="0.44" height="23.26" transform="translate(-45.47 88.94) rotate(-27.92)"/><rect class="cls-2" x="187.74" y="119.43" width="23.83" height="0.45"/><rect class="cls-2" x="221.72" y="119.43" width="23.83" height="0.45"/><rect class="cls-2" x="6.07" y="123.82" width="0.48" height="25.29" transform="translate(-63.15 18.83) rotate(-27.91)"/><rect class="cls-2" x="144.54" y="96.16" width="23.26" height="0.44" transform="translate(-2.12 189.25) rotate(-62.08)"/><path class="cls-3" d="M84,169.21h4.2c7,0,7-14.36,0-14.36H84a.85.85,0,0,0-.85.85v12.65A.86.86,0,0,0,84,169.21Z"/><path class="cls-3" d="M85.44,162.45c.11,2.87,1.4,5.61,3.85,5.61,1.9,0,3.37-3,3.37-6s-1.47-6-3.37-6c-2.45,0-3.74,2.74-3.85,5.61"/><path class="cls-3" d="M87.84,162.8a.77.77,0,1,0-.64-1.19h.22a.42.42,0,0,1,.42.42h0a.42.42,0,0,1-.42.42H87.2A.77.77,0,0,0,87.84,162.8Z"/><path class="cls-3" d="M84.36,161.17a.52.52,0,1,0-.52-.51A.51.51,0,0,0,84.36,161.17Z"/><path class="cls-3" d="M84.36,163.92a.52.52,0,1,0-.52-.52A.51.51,0,0,0,84.36,163.92Z"/><path class="cls-3" d="M84.47,161.61h3a.42.42,0,0,1,.42.42h0a.42.42,0,0,1-.42.42h-3a.23.23,0,0,1-.23-.23v-.38A.23.23,0,0,1,84.47,161.61Z"/><path class="cls-3" d="M84,188.64h4.2c7,0,7-14.36,0-14.36H84a.85.85,0,0,0-.85.85v12.65A.86.86,0,0,0,84,188.64Z"/><path class="cls-3" d="M85.44,181.88c.11,2.87,1.4,5.61,3.85,5.61,1.9,0,3.37-3,3.37-6s-1.47-6-3.37-6c-2.45,0-3.74,2.74-3.85,5.61"/><path class="cls-3" d="M87.84,182.23A.77.77,0,1,0,87.2,181h.22a.42.42,0,0,1,.42.42h0a.42.42,0,0,1-.42.42H87.2A.77.77,0,0,0,87.84,182.23Z"/><path class="cls-3" d="M84.36,180.6a.52.52,0,1,0-.52-.51A.51.51,0,0,0,84.36,180.6Z"/><path class="cls-3" d="M84.36,183.35a.52.52,0,1,0-.52-.52A.51.51,0,0,0,84.36,183.35Z"/><path class="cls-3" d="M84.47,181h3a.42.42,0,0,1,.42.42h0a.42.42,0,0,1-.42.42h-3a.23.23,0,0,1-.23-.23v-.38A.23.23,0,0,1,84.47,181Z"/><rect class="cls-2" x="81.84" y="152.65" width="13.25" height="38.19"/><path class="cls-3" d="M125.81,181.06c0-2,2.47-5.9,7.66-5.9,2.93,0,5,1.71,7,2.16a2.69,2.69,0,0,0-.06.57v6.35a2.6,2.6,0,0,0,.06.56c-2,.46-4.09,2.16-7,2.16C128.28,187,125.81,183.07,125.81,181.06Z"/><path class="cls-3" d="M145.55,175.09h-2.32a2.81,2.81,0,0,0-2.8,2.8v6.35a2.8,2.8,0,0,0,2.8,2.79h2.32a.47.47,0,0,0,.47-.47v-11A.48.48,0,0,0,145.55,175.09Z"/><path class="cls-3" d="M143.23,180.29a.77.77,0,0,0,0,1.54.77.77,0,0,0,0-1.54Z"/><path class="cls-3" d="M126.92,181.06c0-1.59,1.93-4.69,6-4.69,2.05,0,3.51,1.09,4.89,1.58.38.13.45.24.45.57v5.09c0,.33-.07.44-.45.57-1.38.49-2.84,1.58-4.89,1.58-4,0-6-3.1-6-4.7Z"/><path class="cls-3" d="M136.79,181.06c0,1.51-.46,1.62-1,1.62s-1.05-.72-1.05-1.62.47-1.61,1.05-1.61S136.79,179.56,136.79,181.06Z"/><rect class="cls-2" x="99.81" y="193.54" width="46.21" height="20.29" rx="0.86"/><path class="cls-3" d="M139.49,195.05h-27.2a8.66,8.66,0,0,0-8.63,8.63h0a8.67,8.67,0,0,0,8.63,8.64h27.2a3.51,3.51,0,0,0,3.49-3.5v-4.64h-3.27a.49.49,0,0,1-.49-.5h0a.49.49,0,0,1,.49-.49H143v-4.64A3.51,3.51,0,0,0,139.49,195.05Z"/><path class="cls-3" d="M139.61,202.63a1.06,1.06,0,1,0,.93,1.55h-.83a.49.49,0,0,1-.49-.5h0a.49.49,0,0,1,.49-.49h.83A1.07,1.07,0,0,0,139.61,202.63Z"/><path class="cls-3" d="M144.46,204.18h-4.75a.49.49,0,0,1-.49-.5h0a.49.49,0,0,1,.49-.49h4.75a.27.27,0,0,1,.27.27v.45A.27.27,0,0,1,144.46,204.18Z"/><path class="cls-3" d="M144.39,204.87a.62.62,0,1,0,.61.61A.61.61,0,0,0,144.39,204.87Z"/><path class="cls-3" d="M144.39,201.27a.62.62,0,1,0,.61.62A.61.61,0,0,0,144.39,201.27Z"/><path class="cls-3" d="M148.34,171.05v-.5l.56-.18V153.63l-.56-.18V153a.28.28,0,0,0-.27-.3h-12.2a.63.63,0,0,0-.59.66v17.38a.63.63,0,0,0,.59.66h12.2A.28.28,0,0,0,148.34,171.05Z"/><path class="cls-3" d="M135.28,167.87V156.13a.16.16,0,0,0-.16-.15h-.42a.58.58,0,0,0-.58.58v10.88a.58.58,0,0,0,.58.58h.42A.16.16,0,0,0,135.28,167.87Z"/><line class="cls-2" x1="136.93" y1="171.35" x2="136.93" y2="152.65"/><path class="cls-3" d="M40.94,92.46a1,1,0,1,1,0-1.9,1.1,1.1,0,0,1,.92.49c.56.71,1,.36,1,0l1-4.23a.85.85,0,0,1,1.58.35v8.67a.86.86,0,0,1-1.61.29L43,92.2"/><path class="cls-3" d="M48.51,92.46a1,1,0,1,1,0-1.9,1.09,1.09,0,0,1,.92.49c.56.71,1,.36,1,0l1-4.23a.85.85,0,0,1,1.58.35v8.67a.86.86,0,0,1-1.62.29l-.89-3.94"/><path class="cls-3" d="M56,92.46a1,1,0,1,1,0-1.9,1.1,1.1,0,0,1,.93.49c.55.71,1,.36,1,0l1-4.23a.85.85,0,0,1,1.58.35v8.67a.86.86,0,0,1-1.61.29L58,92.2"/><path class="cls-3" d="M33.48,92.46a1,1,0,1,1,0-1.9,1.1,1.1,0,0,1,.92.49c.56.71,1,.36,1,0l1-4.23a.85.85,0,0,1,1.58.35v8.67a.86.86,0,0,1-1.61.29L35.5,92.2"/><path class="cls-3" d="M25.91,92.46a1,1,0,1,1,0-1.9,1.1,1.1,0,0,1,.93.49c.55.71,1,.36,1,0l1-4.23a.85.85,0,0,1,1.58.35v8.67a.86.86,0,0,1-1.61.29l-.9-3.94"/><path class="cls-3" d="M18.45,92.46a1,1,0,1,1,0-1.9,1.1,1.1,0,0,1,.93.49c.55.71,1,.36,1,0l1-4.23a.85.85,0,0,1,1.58.35v8.67a.86.86,0,0,1-1.61.29l-.9-3.94"/><rect class="cls-2" x="95.08" y="86.8" width="8.2" height="9.42" rx="0.46"/><polyline class="cls-3" points="99.18 96.05 99.18 90.57 100.74 86.8"/><line class="cls-2" x1="99.19" y1="90.7" x2="97.77" y2="86.96"/><line class="cls-2" x1="98.07" y1="91.02" x2="96.04" y2="91.02"/><rect class="cls-2" x="84.32" y="86.8" width="8.2" height="9.42" rx="0.46"/><polyline class="cls-3" points="88.42 96.05 88.42 90.57 89.98 86.8"/><line class="cls-2" x1="88.44" y1="90.7" x2="87.01" y2="86.96"/><line class="cls-2" x1="87.32" y1="91.02" x2="85.28" y2="91.02"/><rect class="cls-2" x="73.59" y="86.8" width="8.2" height="9.42" rx="0.46"/><polyline class="cls-3" points="77.69 96.05 77.69 90.57 79.25 86.8"/><line class="cls-2" x1="77.69" y1="90.7" x2="76.26" y2="86.96"/><line class="cls-2" x1="76.58" y1="91.02" x2="74.55" y2="91.02"/><rect class="cls-2" x="62.83" y="86.8" width="8.2" height="9.42" rx="0.46"/><polyline class="cls-3" points="66.93 96.05 66.93 90.57 68.49 86.8"/><line class="cls-2" x1="66.94" y1="90.7" x2="65.52" y2="86.96"/><line class="cls-2" x1="65.82" y1="91.02" x2="63.79" y2="91.02"/><rect class="cls-2" x="15.72" y="84.25" width="89.41" height="14.82"/><rect class="cls-2" x="164.36" y="160.97" width="14.03" height="31.96" rx="0.9"/><line class="cls-2" x1="166.05" y1="162.28" x2="166.05" y2="175.25"/><line class="cls-2" x1="168.18" y1="162.28" x2="168.18" y2="175.25"/><line class="cls-2" x1="170.31" y1="162.28" x2="170.31" y2="175.25"/><line class="cls-2" x1="172.43" y1="162.28" x2="172.43" y2="175.25"/><line class="cls-2" x1="174.56" y1="162.28" x2="174.56" y2="175.25"/><line class="cls-2" x1="176.69" y1="162.28" x2="176.69" y2="175.25"/><polygon class="cls-3" points="179.3 154.56 179.3 197.88 239.21 197.88 239.21 213.83 163.44 213.83 163.44 154.56 179.3 154.56"/><rect class="cls-2" x="240.06" y="197.76" width="19.12" height="16.07"/><polygon class="cls-3" points="259.18 196.6 240.47 196.6 240.47 196.99 240.26 197.18 240.06 197.18 240.06 197.76 259.18 197.76 259.18 196.6"/><rect class="cls-2" x="240.91" y="195.01" width="17.47" height="0.58"/><polygon class="cls-3" points="259.18 196.6 240.06 196.6 240.06 196.21 256.92 196.21 257.94 196.21 258.15 196.21 258.38 196.21 259.18 196.21 259.18 196.6"/><rect class="cls-2" x="256.92" y="195.62" width="1.03" height="0.58"/><rect class="cls-2" x="241.5" y="195.62" width="0.82" height="0.54"/><path class="cls-3" d="M171.38,184.38a.78.78,0,0,0,1.52-.28.79.79,0,0,0-1.54-.23A.65.65,0,0,0,171.38,184.38Z"/><path class="cls-3" d="M166.1,185.23a.58.58,0,1,1-.58.58A.58.58,0,0,1,166.1,185.23Z"/><path class="cls-3" d="M166.1,181.82a.58.58,0,1,1-.58.58A.58.58,0,0,1,166.1,181.82Z"/><polygon class="cls-3" points="166.49 184.3 170.13 184.3 170.42 184.3 170.42 184.01 170.42 183.72 170.13 183.72 166.49 183.72 166.2 183.72 166.2 184.01 166.2 184.3 166.49 184.3"/><path class="cls-3" d="M177.22,189.89V178.32A1.28,1.28,0,0,0,176,177h-7.62a1.28,1.28,0,0,0-1.27,1.28v5.4h3.36v.58h-3.36v5.59a1.27,1.27,0,0,0,1.27,1.27H176A1.27,1.27,0,0,0,177.22,189.89Z"/><rect class="cls-2" x="190.37" y="198.98" width="23.38" height="13.9" rx="0.41"/><path class="cls-3" d="M209.53,206.93a2,2,0,1,1-2,2A2,2,0,0,1,209.53,206.93Z"/><path class="cls-3" d="M209.53,208.11a.79.79,0,0,1,.79.79.8.8,0,1,1-.79-.79Z"/><path class="cls-3" d="M209.53,201a2,2,0,1,1-2,2A2,2,0,0,1,209.53,201Z"/><path class="cls-3" d="M209.53,202.23a.7.7,0,1,1-.7.7A.69.69,0,0,1,209.53,202.23Z"/><path class="cls-3" d="M202.06,206.93a2,2,0,1,1-2,2A2,2,0,0,1,202.06,206.93Z"/><path class="cls-3" d="M202.06,208.11a.79.79,0,0,1,.79.79.79.79,0,0,1-.79.8.8.8,0,0,1-.8-.8A.79.79,0,0,1,202.06,208.11Z"/><path class="cls-3" d="M194.59,206.93a2,2,0,1,1-2,2A2,2,0,0,1,194.59,206.93Z"/><path class="cls-3" d="M194.59,208.11a.79.79,0,0,1,.8.79.8.8,0,0,1-.8.8.79.79,0,0,1-.79-.8A.79.79,0,0,1,194.59,208.11Z"/><path class="cls-3" d="M194.59,201a2,2,0,1,1-2,2A2,2,0,0,1,194.59,201Z"/><path class="cls-3" d="M194.59,202.23a.7.7,0,1,1,0,1.39.7.7,0,0,1,0-1.39Z"/><path class="cls-3" d="M203.88,201.74a.53.53,0,0,1,0-1.05.53.53,0,1,1,0,1.05Z"/><path class="cls-3" d="M203.88,204a.52.52,0,0,1,0-1,.52.52,0,1,1,0,1Z"/><path class="cls-3" d="M202.06,204a.52.52,0,1,1,.52-.52A.52.52,0,0,1,202.06,204Z"/><path class="cls-3" d="M200.23,201.74a.53.53,0,1,1,.53-.52A.53.53,0,0,1,200.23,201.74Z"/><path class="cls-3" d="M200.23,204a.52.52,0,1,1,.53-.52A.52.52,0,0,1,200.23,204Z"/><rect class="cls-2" x="198.57" y="148.55" width="10.02" height="14.87"/><rect class="cls-2" x="237.65" y="148.55" width="10.61" height="14.87"/><rect class="cls-2" x="215.69" y="129.92" width="14.87" height="10.75"/><rect class="cls-2" x="208.59" y="140.67" width="29.06" height="28.33"/><rect class="cls-2" x="215.69" y="169" width="14.87" height="10.61"/><rect class="cls-2" x="210.69" y="9.53" width="42.78" height="5.91"/><path class="cls-3" d="M215.24,12.49a1.68,1.68,0,1,0,1.68-1.68A1.68,1.68,0,0,0,215.24,12.49Z"/><path class="cls-3" d="M240,10.66h-9.54a1,1,0,0,0-1,.81h11.48a1,1,0,0,0-1-.81ZM229.43,12.2v.46a1,1,0,0,0,1,1H240a1,1,0,0,0,1-1V12.2Z"/><rect class="cls-2" x="220.2" y="11.47" width="29.95" height="0.73"/><path class="cls-3" d="M213.19,13.53a1,1,0,1,1,1-1A1,1,0,0,1,213.19,13.53Z"/><path class="cls-3" d="M208.25,94.68H206a2.27,2.27,0,0,1-2.26-2.26V73.72A2.27,2.27,0,0,1,206,71.45h2.27Z"/><path class="cls-3" d="M287.51,94.68h-2.27V71.45h2.27a2.27,2.27,0,0,1,2.26,2.27v18.7A2.27,2.27,0,0,1,287.51,94.68Z"/><rect class="cls-2" x="208.25" y="90.15" width="25.67" height="4.53"/><rect class="cls-2" x="233.91" y="90.15" width="25.67" height="4.53"/><rect class="cls-2" x="259.58" y="90.15" width="25.67" height="4.53"/><path class="cls-3" d="M208.25,90.15h25.66V73.85a2.4,2.4,0,0,0-2.39-2.4H210.64a2.4,2.4,0,0,0-2.39,2.4Z"/><path class="cls-3" d="M233.91,90.15h25.67V73.85a2.41,2.41,0,0,0-2.4-2.4H236.31a2.41,2.41,0,0,0-2.4,2.4Z"/><path class="cls-3" d="M259.58,90.15h25.66V45.8a2.4,2.4,0,0,0-2.39-2.39H262a2.4,2.4,0,0,0-2.39,2.39Z"/><rect class="cls-2" x="218.13" y="44.63" width="28.72" height="16.24"/><rect class="cls-2" x="174.63" y="38.78" width="23.22" height="4.23" rx="1.38"/><rect class="cls-2" x="179.74" y="43.02" width="18.11" height="18.87" rx="1.38"/><rect class="cls-2" x="174.13" y="43.02" width="5.62" height="18.87" rx="1.38"/><rect class="cls-2" x="174.63" y="61.9" width="23.22" height="4.23" rx="1.38"/><text class="cls-4" transform="translate(24.37 136.86)">ПРИ<tspan class="cls-5" x="16.06" y="0">ХО</tspan><tspan x="26.91" y="0">ЖАЯ</tspan><tspan x="16.78" y="8.95">3,3</tspan></text><text class="cls-4" transform="translate(109.71 121.78)"><tspan class="cls-5">Х</tspan><tspan class="cls-6" x="4.98" y="0">О</tspan><tspan x="10.8" y="0">ЛЛ</tspan><tspan class="cls-7" x="4.53" y="8.95">9</tspan><tspan class="cls-8" x="9.01" y="8.95">,</tspan><tspan x="10.22" y="8.95">19</tspan></text><text class="cls-4" transform="translate(97.4 174.32)">ВАННАЯ<tspan x="8.24" y="8.95">5</tspan><tspan class="cls-7" x="12.96" y="8.95">,</tspan><tspan x="14.56" y="8.95">07</tspan></text><text class="cls-4" transform="translate(183.51 181.82)">КУХНЯ<tspan x="4.69" y="8.95">11</tspan><tspan class="cls-9" x="10.12" y="8.95">,</tspan><tspan class="cls-10" x="11.71" y="8.95">64</tspan></text><text class="cls-4" transform="translate(263.47 142.36)">Л<tspan class="cls-6" x="5.7" y="0">О</tspan><tspan class="cls-11" x="11.52" y="0">ДЖИЯ</tspan><tspan x="10.63" y="8.95">1,88</tspan></text><text class="cls-4" transform="translate(213.93 29.36)"><tspan class="cls-12">Г</tspan><tspan x="4.18" y="0">ОСТИНАЯ</tspan><tspan x="11.9" y="8.95">18</tspan><tspan class="cls-7" x="19.25" y="8.95">,</tspan><tspan class="cls-11" x="20.85" y="8.95">07</tspan></text></g></g></svg>