<svg xmlns="http://www.w3.org/2000/svg" viewBox="0 0 237.24 328.64"><defs><style>.cls-1{fill:#00ada8;}.cls-1,.cls-3{fill-rule:evenodd;}.cls-2,.cls-3{fill:none;stroke:#231f20;stroke-linejoin:bevel;stroke-width:0.4px;}.cls-4{font-size:8px;fill:#231f20;font-family:ProximaNova-Regular, Proxima Nova;}.cls-5{letter-spacing:-0.03em;}.cls-6{letter-spacing:-0.07em;}.cls-7{letter-spacing:0em;}.cls-8{letter-spacing:-0.03em;}.cls-9{letter-spacing:-0.03em;}.cls-10{letter-spacing:-0.04em;}</style></defs><title>Ресурс 10</title><g id="Слой_2" data-name="Слой 2"><g id="Layer_1" data-name="Layer 1"><path class="cls-1" d="M67,53.88H61.32v102.6H0v172H16.68v-8.52H8.76V285.24h5.4v-7.46H5.64V162.12H67v-35H76.2v-2.16H67V59.52h3.6V53.88Zm83.4,25.44H148.2V53.88h3.48V5.64H110.16V59.52H98.88V53.88h5.64V0h52.8V53.88h79.92V328.44h-31v-9H231.6V130.56H148.2V101.88h2.16V128.4h23.28V117.84H208.2v-2.76h23.4V59.52H150.36v19.8ZM141,319.44v9H65.76v-8.52H101.4V285.24H62.64v-7.86H101.4v-.06h3.12V241.08H108V198.72h-3.48V156.48H108v-29.4h-6.36v-2.16h8.52V319.44Zm90.6-202.32H210.36V120H184.92v8.4H231.6V117.12ZM182.88,128.4V120H175.8v8.4Z"/><rect class="cls-2" x="141" y="316.56" width="65.28" height="11.88"/><rect class="cls-2" x="171.6" y="321.38" width="4.07" height="2.26"/><path class="cls-3" d="M145.07,323.07H171.6m4.08,0h26.53"/><path class="cls-3" d="M145.07,321.94H171.6m4.08,0h26.53"/><rect class="cls-2" x="202.21" y="321.38" width="4.07" height="2.26"/><rect class="cls-2" x="141" y="321.38" width="4.07" height="2.26"/><line class="cls-2" x1="14.16" y1="279.68" x2="14.16" y2="282.44"/><rect class="cls-2" x="13.86" y="275.42" width="22.18" height="0.42" transform="translate(-103.48 30.48) rotate(-22.48)"/><rect class="cls-2" x="36.15" y="276.5" width="26.49" height="9.52"/><rect class="cls-2" x="36.15" y="280.13" width="4.07" height="2.26"/><line class="cls-2" x1="40.22" y1="281.77" x2="58.57" y2="281.77"/><line class="cls-2" x1="40.22" y1="280.63" x2="58.57" y2="280.63"/><rect class="cls-2" x="58.57" y="280.13" width="4.07" height="2.26"/><rect class="cls-2" x="177.5" y="288.52" width="14.48" height="9.76"/><rect class="cls-2" x="152.16" y="288.52" width="14.48" height="9.76"/><rect class="cls-2" x="177.5" y="249.89" width="14.48" height="10.34"/><rect class="cls-2" x="152.16" y="249.89" width="14.48" height="10.34"/><rect class="cls-2" x="199.66" y="267.13" width="10.47" height="14.48"/><rect class="cls-2" x="144.48" y="260.22" width="55.18" height="28.3"/><rect class="cls-2" x="78.16" y="130.3" width="23.83" height="0.45" transform="translate(-43.1 44.42) rotate(-22.51)"/><rect class="cls-2" x="133.81" y="89.09" width="21.29" height="0.4" transform="translate(-2.05 175.18) rotate(-62.1)"/><rect class="cls-2" x="85.89" y="38.44" width="0.49" height="26.09" transform="translate(5.59 111.35) rotate(-67.49)"/><rect class="cls-2" x="164.05" y="132.33" width="31.94" height="14.02" rx="0.9"/><line class="cls-2" x1="165.36" y1="134.02" x2="178.31" y2="134.02"/><line class="cls-2" x1="165.36" y1="136.15" x2="178.31" y2="136.15"/><line class="cls-2" x1="165.36" y1="138.27" x2="178.31" y2="138.27"/><line class="cls-2" x1="165.36" y1="140.4" x2="178.31" y2="140.4"/><line class="cls-2" x1="165.36" y1="142.52" x2="178.31" y2="142.52"/><line class="cls-2" x1="165.36" y1="144.65" x2="178.31" y2="144.65"/><polygon class="cls-3" points="155.38 147.26 214.81 147.26 214.81 211.76 230.75 211.76 230.75 131.41 155.38 131.41 155.38 147.26"/><rect class="cls-2" x="214.7" y="212.27" width="16.05" height="19.1"/><polygon class="cls-3" points="213.53 231.37 213.53 212.68 213.92 212.68 214.12 212.47 214.12 212.27 214.7 212.27 214.7 231.37 213.53 231.37"/><rect class="cls-2" x="211.95" y="213.11" width="0.58" height="17.46"/><polygon class="cls-3" points="213.53 231.37 213.53 212.27 213.14 212.27 213.14 229.11 213.14 230.14 213.14 230.34 213.14 230.57 213.14 231.37 213.53 231.37"/><rect class="cls-2" x="212.56" y="229.11" width="0.58" height="1.03"/><rect class="cls-2" x="212.56" y="213.71" width="0.54" height="0.82"/><path class="cls-3" d="M187.43,139.34a.78.78,0,1,1-1.06.74.82.82,0,0,1,.55-.76A.7.7,0,0,1,187.43,139.34Z"/><path class="cls-3" d="M188.28,134.06a.58.58,0,1,0,.58-.58A.59.59,0,0,0,188.28,134.06Z"/><path class="cls-3" d="M184.88,134.06a.58.58,0,1,0,.58-.58A.59.59,0,0,0,184.88,134.06Z"/><polygon class="cls-3" points="187.35 134.46 187.35 138.09 187.35 138.38 187.06 138.38 186.77 138.38 186.77 138.09 186.77 134.46 186.77 134.17 187.06 134.17 187.35 134.17 187.35 134.46"/><path class="cls-3" d="M192.94,145.18H181.38a1.27,1.27,0,0,1-1.27-1.27v-7.62a1.28,1.28,0,0,1,1.27-1.27h5.39v3.36h.58V135h5.59a1.28,1.28,0,0,1,1.27,1.27v7.62A1.27,1.27,0,0,1,192.94,145.18Z"/><rect class="cls-2" x="215.91" y="167.12" width="13.89" height="23.36" rx="0.41"/><path class="cls-3" d="M223.85,186.26a2,2,0,1,0,2-2A2,2,0,0,0,223.85,186.26Z"/><path class="cls-3" d="M225,186.26a.8.8,0,1,0,.8-.8A.8.8,0,0,0,225,186.26Z"/><path class="cls-3" d="M217.88,186.26a2,2,0,1,0,2-2A2,2,0,0,0,217.88,186.26Z"/><path class="cls-3" d="M219.16,186.26a.7.7,0,1,0,.7-.69A.69.69,0,0,0,219.16,186.26Z"/><path class="cls-3" d="M223.85,178.8a2,2,0,1,0,2-2A2,2,0,0,0,223.85,178.8Z"/><path class="cls-3" d="M225,178.8a.8.8,0,1,0,.8-.8A.8.8,0,0,0,225,178.8Z"/><path class="cls-3" d="M223.85,171.34a2,2,0,1,0,2-2A2,2,0,0,0,223.85,171.34Z"/><path class="cls-3" d="M225,171.34a.8.8,0,1,0,.8-.8A.8.8,0,0,0,225,171.34Z"/><path class="cls-3" d="M217.88,171.34a2,2,0,1,0,2-2A2,2,0,0,0,217.88,171.34Z"/><path class="cls-3" d="M219.16,171.34a.7.7,0,1,0,.7-.69A.69.69,0,0,0,219.16,171.34Z"/><path class="cls-3" d="M218.67,180.62a.52.52,0,0,0-.52-.52.52.52,0,1,0,0,1A.52.52,0,0,0,218.67,180.62Z"/><path class="cls-3" d="M220.94,180.62a.52.52,0,0,0-.52-.52.52.52,0,1,0,0,1A.52.52,0,0,0,220.94,180.62Z"/><path class="cls-3" d="M220.94,178.8a.52.52,0,0,0-.52-.52.52.52,0,1,0,0,1A.52.52,0,0,0,220.94,178.8Z"/><path class="cls-3" d="M218.67,177a.52.52,0,0,0-.52-.53.53.53,0,1,0,0,1.05A.52.52,0,0,0,218.67,177Z"/><path class="cls-3" d="M220.94,177a.52.52,0,0,0-.52-.53.53.53,0,1,0,0,1.05A.52.52,0,0,0,220.94,177Z"/><rect class="cls-2" x="134.01" y="267.13" width="10.47" height="14.48"/><rect class="cls-2" x="16.68" y="317.04" width="49.08" height="11.4"/><rect class="cls-2" x="39.18" y="321.38" width="4.07" height="2.26"/><path class="cls-3" d="M20.75,323.07H39.18m4.08,0H61.69"/><path class="cls-3" d="M20.75,321.94H39.18m4.08,0H61.69"/><rect class="cls-2" x="61.69" y="321.38" width="4.07" height="2.26"/><rect class="cls-2" x="16.68" y="321.38" width="4.07" height="2.26"/><rect class="cls-2" x="96.22" y="203.48" width="5.91" height="42.78"/><path class="cls-3" d="M99.18,208a1.68,1.68,0,1,0,1.67,1.68A1.68,1.68,0,0,0,99.18,208Z"/><path class="cls-3" d="M101,232.75V223.2a1,1,0,0,0-.82-1v11.48a1,1,0,0,0,.82-1Zm-1.55-10.53H99a1,1,0,0,0-1,1v9.55a1,1,0,0,0,1,1h.45Z"/><rect class="cls-2" x="99.46" y="213" width="0.73" height="29.95"/><path class="cls-3" d="M98.14,206a1,1,0,1,1,1,1A1,1,0,0,1,98.14,206Z"/><rect class="cls-2" x="36.52" y="247.44" width="4.23" height="23.22" rx="1.38"/><rect class="cls-2" x="40.76" y="247.44" width="18.87" height="18.11" rx="1.38"/><rect class="cls-2" x="40.76" y="265.55" width="18.87" height="5.62" rx="1.38"/><rect class="cls-2" x="59.64" y="247.44" width="4.23" height="23.22" rx="1.38"/><rect class="cls-2" x="11.97" y="201.37" width="17.81" height="39.53" rx="1.75"/><rect class="cls-2" x="6.49" y="201.37" width="5.48" height="39.53" rx="1.38"/><rect class="cls-2" x="6.56" y="240.9" width="23.22" height="4.23" rx="1.38"/><rect class="cls-2" x="6.56" y="197.06" width="23.22" height="4.23" rx="1.38"/><rect class="cls-2" x="36.52" y="170.83" width="4.23" height="23.22" rx="1.38"/><rect class="cls-2" x="40.76" y="175.94" width="18.87" height="18.11" rx="1.38"/><rect class="cls-2" x="40.76" y="170.32" width="18.87" height="5.62" rx="1.38"/><rect class="cls-2" x="59.64" y="170.83" width="4.23" height="23.22" rx="1.38"/><rect class="cls-2" x="42.69" y="207.33" width="14.81" height="26.2"/><rect class="cls-2" x="210.46" y="60.31" width="20.29" height="46.21" rx="0.86"/><path class="cls-3" d="M229.24,66.84V94a8.66,8.66,0,0,1-8.64,8.63h0A8.66,8.66,0,0,1,212,94V66.84a3.52,3.52,0,0,1,3.5-3.5h4.64v3.27a.5.5,0,0,0,.49.5h0a.5.5,0,0,0,.5-.5V63.34h4.64A3.52,3.52,0,0,1,229.24,66.84Z"/><path class="cls-3" d="M221.66,66.72a1.06,1.06,0,0,1-2.11,0,1,1,0,0,1,.56-.93v.82a.5.5,0,0,0,.49.5h0a.5.5,0,0,0,.5-.5v-.82A1,1,0,0,1,221.66,66.72Z"/><path class="cls-3" d="M220.11,61.87v4.74a.5.5,0,0,0,.49.5h0a.5.5,0,0,0,.5-.5V61.87a.27.27,0,0,0-.27-.27h-.45A.27.27,0,0,0,220.11,61.87Z"/><path class="cls-3" d="M219.42,61.94a.62.62,0,1,1-.62-.61A.61.61,0,0,1,219.42,61.94Z"/><path class="cls-3" d="M223,61.94a.62.62,0,1,1-.62-.61A.61.61,0,0,1,223,61.94Z"/><path class="cls-3" d="M187.73,62.51v4.2c0,7-14.36,7-14.36,0v-4.2a.86.86,0,0,1,.86-.85h12.65A.85.85,0,0,1,187.73,62.51Z"/><path class="cls-3" d="M181,64c2.87.11,5.61,1.4,5.61,3.85,0,1.9-3,3.37-6,3.37s-6-1.47-6-3.37c0-2.45,2.74-3.74,5.61-3.85"/><path class="cls-3" d="M181.32,66.37a.77.77,0,1,1-1.53,0,.76.76,0,0,1,.34-.64V66a.42.42,0,0,0,.42.42h0A.42.42,0,0,0,181,66v-.22A.77.77,0,0,1,181.32,66.37Z"/><path class="cls-3" d="M179.69,62.89a.51.51,0,0,1-.51.51.52.52,0,1,1,0-1A.51.51,0,0,1,179.69,62.89Z"/><path class="cls-3" d="M182.44,62.89a.52.52,0,1,1-.52-.52A.51.51,0,0,1,182.44,62.89Z"/><path class="cls-3" d="M180.13,63v3a.42.42,0,0,0,.42.42h0A.42.42,0,0,0,181,66V63a.23.23,0,0,0-.23-.23h-.38A.23.23,0,0,0,180.13,63Z"/><path class="cls-3" d="M161.94,107.34c2,0,5.9,2.47,5.9,7.66,0,2.93-1.7,5-2.16,7a2.6,2.6,0,0,0-.56-.06h-6.35a2.69,2.69,0,0,0-.57.06c-.45-2-2.16-4.09-2.16-7C156,109.81,159.94,107.34,161.94,107.34Z"/><path class="cls-3" d="M167.91,127.08v-2.32a2.81,2.81,0,0,0-2.79-2.8h-6.35a2.81,2.81,0,0,0-2.8,2.8v2.32a.47.47,0,0,0,.48.47h11A.47.47,0,0,0,167.91,127.08Z"/><path class="cls-3" d="M162.71,124.76a.77.77,0,1,0-.77.76A.76.76,0,0,0,162.71,124.76Z"/><path class="cls-3" d="M161.94,108.45c1.6,0,4.7,1.93,4.7,6,0,2-1.1,3.51-1.58,4.89-.14.38-.24.45-.57.45h-5.1c-.33,0-.43-.07-.56-.45-.49-1.38-1.58-2.84-1.58-4.89,0-4,3.1-6,4.69-6Z"/><path class="cls-3" d="M161.94,118.32c-1.5,0-1.61-.46-1.61-1s.72-1,1.61-1,1.62.47,1.62,1S163.45,118.32,161.94,118.32Z"/><path class="cls-3" d="M207.16,62.51v4.2c0,7-14.36,7-14.36,0v-4.2a.86.86,0,0,1,.86-.85h12.65A.85.85,0,0,1,207.16,62.51Z"/><path class="cls-3" d="M200.4,64c2.87.11,5.62,1.4,5.62,3.85,0,1.9-3,3.37-6,3.37s-6-1.47-6-3.37c0-2.45,2.74-3.74,5.61-3.85"/><path class="cls-3" d="M200.75,66.37a.77.77,0,1,1-1.53,0,.76.76,0,0,1,.34-.64V66a.42.42,0,0,0,.42.42h0a.42.42,0,0,0,.42-.42v-.22A.77.77,0,0,1,200.75,66.37Z"/><path class="cls-3" d="M199.12,62.89a.51.51,0,0,1-.51.51.52.52,0,1,1,0-1A.51.51,0,0,1,199.12,62.89Z"/><path class="cls-3" d="M201.87,62.89a.52.52,0,1,1-.52-.52A.51.51,0,0,1,201.87,62.89Z"/><path class="cls-3" d="M199.56,63v3a.42.42,0,0,0,.42.42h0a.42.42,0,0,0,.42-.42V63a.23.23,0,0,0-.23-.23h-.38A.23.23,0,0,0,199.56,63Z"/><rect class="cls-2" x="171.17" y="60.37" width="38.19" height="13.25"/><path class="cls-3" d="M151.83,60.93h.5l.18-.56h16.74l.18.56h.5a.29.29,0,0,1,.3.27V73.4a.63.63,0,0,1-.66.59H152.19a.62.62,0,0,1-.66-.59V61.2A.28.28,0,0,1,151.83,60.93Z"/><path class="cls-3" d="M155,74h11.74a.16.16,0,0,1,.15.16v.42a.58.58,0,0,1-.58.58H155.43a.57.57,0,0,1-.57-.58v-.42A.16.16,0,0,1,155,74Z"/><line class="cls-2" x1="151.53" y1="72.34" x2="170.23" y2="72.34"/><path class="cls-3" d="M142.62,35.49a1,1,0,1,1,1.9,0,1.1,1.1,0,0,1-.49.92c-.71.56-.36,1,0,1l4.23,1A.85.85,0,0,1,147.9,40h-8.67a.86.86,0,0,1-.29-1.61l3.94-.89"/><path class="cls-3" d="M142.62,43.06a1,1,0,1,1,1.9,0A1.09,1.09,0,0,1,144,44c-.71.56-.36,1,0,1l4.23,1a.85.85,0,0,1-.35,1.58h-8.67a.86.86,0,0,1-.29-1.62l3.94-.89"/><path class="cls-3" d="M142.62,28a1,1,0,1,1,1.9,0A1.1,1.1,0,0,1,144,29c-.71.56-.36,1,0,1l4.23,1a.85.85,0,0,1-.35,1.58h-8.67a.86.86,0,0,1-.29-1.61l3.94-.89"/><path class="cls-3" d="M142.62,20.45a1,1,0,1,1,1.9,0,1.1,1.1,0,0,1-.49.93c-.71.55-.36,1,0,1l4.23,1A.85.85,0,0,1,147.9,25h-8.67a.86.86,0,0,1-.29-1.61l3.94-.9"/><path class="cls-3" d="M142.62,13a1,1,0,1,1,1.9,0A1.1,1.1,0,0,1,144,14c-.71.55-.36,1,0,1l4.23,1a.85.85,0,0,1-.35,1.58h-8.67a.86.86,0,0,1-.29-1.61l3.94-.9"/><rect class="cls-2" x="126.12" y="9.07" width="8.2" height="9.42" rx="0.46"/><polyline class="cls-3" points="130.22 18.32 130.22 12.83 131.78 9.06"/><line class="cls-2" x1="130.24" y1="12.97" x2="128.81" y2="9.22"/><line class="cls-2" x1="129.12" y1="13.28" x2="127.08" y2="13.28"/><rect class="cls-2" x="113.66" y="9.07" width="8.2" height="9.42" rx="0.46"/><polyline class="cls-3" points="117.77 18.32 117.77 12.83 119.32 9.06"/><line class="cls-2" x1="117.78" y1="12.97" x2="116.35" y2="9.22"/><line class="cls-2" x1="116.66" y1="13.28" x2="114.62" y2="13.28"/><polygon class="cls-3" points="136.01 53.03 150.83 53.03 150.83 21.31 150.83 6.49 136.01 6.49 111.01 6.49 111.01 21.31 136.01 21.31 136.01 53.03"/><text class="cls-4" transform="translate(85.27 95.47)">ПРИ<tspan class="cls-5" x="16.06" y="0">ХО</tspan><tspan x="26.91" y="0">ЖАЯ</tspan><tspan x="17.08" y="8.95">6</tspan><tspan class="cls-6" x="21.8" y="8.95">,</tspan><tspan class="cls-7" x="23.12" y="8.95">7</tspan></text><text class="cls-4" transform="translate(116.77 40.12)">2<tspan class="cls-6" x="4.7" y="0">,</tspan><tspan x="6.02" y="0">71</tspan></text><text class="cls-4" transform="translate(165.01 94.01)">ВАННАЯ<tspan x="10.26" y="8.95">5,9</tspan></text><text class="cls-4" transform="translate(54.04 206.55)"><tspan class="cls-8">Г<tspan class="cls-7" x="4.18" y="0">ОСТИНАЯ</tspan></tspan><tspan x="11.69" y="8.95">16</tspan><tspan class="cls-9" x="19.13" y="8.95">,</tspan><tspan x="20.72" y="8.95">03</tspan></text><text class="cls-4" transform="translate(38.59 301.55)">Л<tspan class="cls-10" x="5.7" y="0">О</tspan><tspan x="11.52" y="0">ДЖИЯ</tspan><tspan x="9.6" y="8.95">2</tspan><tspan class="cls-9" x="14.31" y="8.95">,</tspan><tspan x="15.9" y="8.95">02</tspan></text><text class="cls-4" transform="translate(152.13 204.51)">КУХНЯ<tspan x="2.64" y="8.95">28</tspan><tspan class="cls-9" x="11.99" y="8.95">,</tspan><tspan x="13.58" y="8.95">68</tspan></text></g></g></svg>