<svg xmlns="http://www.w3.org/2000/svg" viewBox="0 0 326.72 282.32"><defs><style>.cls-1{fill:#00ada8;}.cls-1,.cls-3{fill-rule:evenodd;}.cls-2,.cls-3{fill:none;stroke:#231f20;stroke-linejoin:bevel;stroke-width:0.4px;}.cls-13,.cls-4{font-size:8px;fill:#231f20;font-family:ProximaNova-Regular, Proxima Nova;}.cls-5{letter-spacing:-0.03em;}.cls-6{letter-spacing:-0.04em;}.cls-7{letter-spacing:0em;}.cls-8{letter-spacing:-0.07em;}.cls-9{letter-spacing:0em;}.cls-10,.cls-13{letter-spacing:-0.03em;}.cls-11{letter-spacing:-0.03em;}.cls-12{letter-spacing:-0.04em;}</style></defs><title>Ресурс 2</title><g id="Слой_2" data-name="Слой 2"><g id="Layer_1" data-name="Layer 1"><path class="cls-1" d="M274.16,7.56h-5.88V0H.2V32.64H9.08v-27H156V26h2.16V5.64h58.56V16.92h9.84V56.4H216V74H158.12V48.72H156V74H109.4v7.8h2.17V76.2H264.68V50.76h-2.16V74h-28.2V57.84h-5.64V5.64h33.84V28.2h2.16v-15h9.48V7.56ZM218.84,5.64h7.68v9.12h-7.68V5.64ZM232.28,60V74H218.12V58.56h8.4V60ZM16.88,251H45.44V237.12H16.88V210.9H.2V251H16.88ZM.2,149.76H16.88v-34h34v-3.6h62v-2h-1.32v-2.88H109.4v2.88H9.08v-18H.2v57.6Zm251-37.56v14.88h8.52V112.2Zm-2,14.88V112.2H229.4v14.88Zm-22,0V112.2h-14v-2H321.08v-97H302.36V7.56h24.36V115.8H265.4V282.12H223.82V273.6h32.82V238.8H215.12v-8h44.64V129.1H177.92V112.2H175v-2h9.84v2H180v14.88Zm-82.56-8.52v39.6h2.16v-39.6h2.76V107.28H138.32v11.28ZM141.2,237.12V194.76h5.64v36.72h11.28v7.32H150v34.8h13.38v8.52H134.6V251h-28V237.12H141.2Z"/><rect class="cls-2" x="0.2" y="32.64" width="11.76" height="59.52"/><rect class="cls-2" x="5" y="60.36" width="2.26" height="4.07"/><path class="cls-3" d="M5.57,36.71V60.36m0,4.08V88.09"/><path class="cls-3" d="M6.7,36.71V60.36m0,4.08V88.09"/><rect class="cls-2" x="5" y="88.09" width="2.26" height="4.07"/><rect class="cls-2" x="5" y="32.64" width="2.26" height="4.07"/><rect class="cls-2" x="0.2" y="149.76" width="19.56" height="61.14"/><rect class="cls-2" x="5" y="178.29" width="2.26" height="4.07"/><path class="cls-3" d="M5.57,153.83v24.46m0,4.08v24.46"/><path class="cls-3" d="M6.7,153.83v24.46m0,4.08v24.46"/><rect class="cls-2" x="5" y="206.83" width="2.26" height="4.07"/><rect class="cls-2" x="5" y="149.76" width="2.26" height="4.07"/><rect class="cls-2" x="45.44" y="234.24" width="61.14" height="16.8"/><rect class="cls-2" x="73.97" y="243.98" width="4.07" height="2.26"/><path class="cls-3" d="M49.51,245.67H74m4.08,0h24.46"/><path class="cls-3" d="M49.51,244.54H74m4.08,0h24.46"/><rect class="cls-2" x="102.51" y="243.98" width="4.07" height="2.26"/><rect class="cls-2" x="45.44" y="243.98" width="4.07" height="2.26"/><rect class="cls-2" x="163.34" y="270.72" width="60.48" height="11.4"/><rect class="cls-2" x="191.54" y="275.06" width="4.07" height="2.26"/><path class="cls-3" d="M167.41,276.75h24.13m4.08,0h24.13"/><path class="cls-3" d="M167.41,275.62h24.13m4.08,0h24.13"/><rect class="cls-2" x="219.75" y="275.06" width="4.07" height="2.26"/><rect class="cls-2" x="163.34" y="275.06" width="4.07" height="2.26"/><line class="cls-2" x1="158.12" y1="233.16" x2="158.12" y2="235.92"/><rect class="cls-2" x="157.82" y="228.89" width="22.18" height="0.42" transform="translate(-74.72 81.93) rotate(-22.46)"/><rect class="cls-2" x="180.11" y="229.98" width="35.01" height="9.52"/><rect class="cls-2" x="180.11" y="233.61" width="4.07" height="2.26"/><line class="cls-2" x1="184.18" y1="235.24" x2="211.05" y2="235.24"/><line class="cls-2" x1="184.18" y1="234.11" x2="211.05" y2="234.11"/><rect class="cls-2" x="211.05" y="233.61" width="4.07" height="2.26"/><rect class="cls-2" x="192.21" y="130.87" width="31.94" height="14.02" rx="0.9"/><line class="cls-2" x1="193.52" y1="132.56" x2="206.47" y2="132.56"/><line class="cls-2" x1="193.52" y1="134.69" x2="206.47" y2="134.69"/><line class="cls-2" x1="193.52" y1="136.81" x2="206.47" y2="136.81"/><line class="cls-2" x1="193.52" y1="138.94" x2="206.47" y2="138.94"/><line class="cls-2" x1="193.52" y1="141.06" x2="206.47" y2="141.06"/><line class="cls-2" x1="193.52" y1="143.19" x2="206.47" y2="143.19"/><path class="cls-3" d="M239.66,72.63h.5l.18.56h16.75l.18-.56h.49a.28.28,0,0,0,.3-.27V60.16a.62.62,0,0,0-.65-.59H240a.63.63,0,0,0-.66.59v12.2A.29.29,0,0,0,239.66,72.63Z"/><path class="cls-3" d="M242.85,59.57h11.73a.16.16,0,0,0,.16-.16V59a.58.58,0,0,0-.58-.58H243.27a.58.58,0,0,0-.58.58v.42A.16.16,0,0,0,242.85,59.57Z"/><line class="cls-2" x1="239.36" y1="61.22" x2="258.06" y2="61.22"/><rect class="cls-2" x="158.97" y="52.9" width="46.21" height="20.29" rx="0.86"/><path class="cls-3" d="M165.5,71.68h27.2a8.66,8.66,0,0,0,8.63-8.63h0a8.67,8.67,0,0,0-8.63-8.64H165.5a3.51,3.51,0,0,0-3.49,3.5v4.64h3.27a.49.49,0,0,1,.49.5h0a.49.49,0,0,1-.49.49H162v4.64A3.51,3.51,0,0,0,165.5,71.68Z"/><path class="cls-3" d="M165.38,64.1a1.06,1.06,0,0,0,0-2.11,1.07,1.07,0,0,0-.93.56h.83a.49.49,0,0,1,.49.5h0a.49.49,0,0,1-.49.49h-.83A1.07,1.07,0,0,0,165.38,64.1Z"/><path class="cls-3" d="M160.53,62.55h4.75a.49.49,0,0,1,.49.5h0a.49.49,0,0,1-.49.49h-4.75a.27.27,0,0,1-.27-.27v-.45A.27.27,0,0,1,160.53,62.55Z"/><path class="cls-3" d="M160.6,61.86a.62.62,0,1,0-.61-.61A.61.61,0,0,0,160.6,61.86Z"/><path class="cls-3" d="M160.6,65.46a.62.62,0,1,0-.61-.61A.61.61,0,0,0,160.6,65.46Z"/><path class="cls-3" d="M185,8.63v4.2c0,7-14.36,7-14.36,0V8.63a.86.86,0,0,1,.86-.85h12.65A.85.85,0,0,1,185,8.63Z"/><path class="cls-3" d="M178.25,10.09c2.87.11,5.61,1.4,5.61,3.85,0,1.9-3,3.37-6,3.37s-6-1.47-6-3.37c0-2.45,2.74-3.74,5.61-3.85"/><path class="cls-3" d="M178.6,12.49a.77.77,0,1,1-1.53,0,.76.76,0,0,1,.34-.64v.22a.42.42,0,0,0,.42.42h0a.42.42,0,0,0,.42-.42v-.22A.77.77,0,0,1,178.6,12.49Z"/><path class="cls-3" d="M177,9a.52.52,0,1,1-.51-.52A.51.51,0,0,1,177,9Z"/><path class="cls-3" d="M179.72,9a.52.52,0,1,1-.52-.52A.51.51,0,0,1,179.72,9Z"/><path class="cls-3" d="M177.41,9.12v3a.42.42,0,0,0,.42.42h0a.42.42,0,0,0,.42-.42v-3a.23.23,0,0,0-.23-.23h-.38A.23.23,0,0,0,177.41,9.12Z"/><path class="cls-3" d="M205.46,35.74c0,2,2.47,5.9,7.66,5.9,2.93,0,5-1.7,7-2.16a2.6,2.6,0,0,1-.06-.56V32.57a2.62,2.62,0,0,1,.06-.57c-2-.45-4.09-2.16-7-2.16C207.93,29.84,205.46,33.74,205.46,35.74Z"/><path class="cls-3" d="M225.2,41.71h-2.32a2.81,2.81,0,0,1-2.8-2.79V32.56a2.81,2.81,0,0,1,2.8-2.79h2.32a.47.47,0,0,1,.47.47v11A.47.47,0,0,1,225.2,41.71Z"/><path class="cls-3" d="M222.88,36.51a.77.77,0,1,1,.76-.77A.76.76,0,0,1,222.88,36.51Z"/><path class="cls-3" d="M206.57,35.74c0,1.6,1.93,4.69,6,4.69,2.05,0,3.51-1.09,4.89-1.57.38-.14.45-.24.45-.57v-5.1c0-.33-.07-.43-.45-.56-1.38-.49-2.84-1.58-4.89-1.58-4,0-6,3.1-6,4.69Z"/><path class="cls-3" d="M216.44,35.74c0-1.5-.46-1.61-1-1.61s-1.05.72-1.05,1.61.47,1.61,1.05,1.61S216.44,37.24,216.44,35.74Z"/><rect class="cls-2" x="39.47" y="6.49" width="43.73" height="1.16"/><rect class="cls-2" x="39.47" y="7.65" width="43.73" height="52.01"/><rect class="cls-2" x="39.47" y="59.66" width="43.73" height="1.16"/><path class="cls-3" d="M43,8.84H58.26A.77.77,0,0,1,59,9.6v8.64H55.4l-1.83,1.32H43a.76.76,0,0,1-.76-.76V9.6A.76.76,0,0,1,43,8.84Z"/><path class="cls-3" d="M64.4,8.84H79.68a.76.76,0,0,1,.76.76v8.64H63.64V9.6A.76.76,0,0,1,64.4,8.84Z"/><polygon class="cls-3" points="40.81 57.84 81.85 57.84 81.85 18.24 55.4 18.24 40.81 28.75 40.81 57.84"/><polygon class="cls-3" points="55.4 18.24 50.78 32.08 40.81 28.75 55.4 18.24"/><rect class="cls-2" x="86.06" y="6.49" width="9.68" height="9.75"/><path class="cls-3" d="M90.89,14.14a2.78,2.78,0,1,0-2.78-2.78A2.77,2.77,0,0,0,90.89,14.14Z"/><path class="cls-3" d="M90.89,12.34a1,1,0,1,0,0-1.95,1,1,0,0,0,0,1.95Z"/><line class="cls-2" x1="90.89" y1="12.34" x2="90.89" y2="11.72"/><line class="cls-2" x1="90.89" y1="11.01" x2="90.89" y2="10.39"/><line class="cls-2" x1="89.92" y1="11.36" x2="90.54" y2="11.36"/><line class="cls-2" x1="91.25" y1="11.36" x2="91.87" y2="11.36"/><path class="cls-3" d="M90.89,11.79a.43.43,0,0,0,.43-.43.43.43,0,0,0-.43-.43.44.44,0,0,0-.43.43A.43.43,0,0,0,90.89,11.79Z"/><rect class="cls-2" x="26.92" y="6.49" width="9.68" height="9.75"/><path class="cls-3" d="M31.76,14.14A2.78,2.78,0,1,0,29,11.36,2.78,2.78,0,0,0,31.76,14.14Z"/><path class="cls-3" d="M31.76,12.34a1,1,0,1,0,0-1.95,1,1,0,0,0,0,1.95Z"/><line class="cls-2" x1="31.76" y1="12.34" x2="31.76" y2="11.72"/><line class="cls-2" x1="31.76" y1="11.01" x2="31.76" y2="10.39"/><line class="cls-2" x1="30.79" y1="11.36" x2="31.41" y2="11.36"/><line class="cls-2" x1="32.12" y1="11.36" x2="32.74" y2="11.36"/><path class="cls-3" d="M31.76,11.79a.43.43,0,0,0,.43-.43.43.43,0,1,0-.85,0A.42.42,0,0,0,31.76,11.79Z"/><polygon class="cls-3" points="75.38 106.7 46.83 106.7 46.83 107.57 75.38 107.57 75.38 106.7 75.38 106.7"/><polygon class="cls-3" points="46.83 107.57 51.9 108.44 70.3 108.44 75.38 107.57 46.83 107.57"/><rect class="cls-2" x="57.99" y="108.44" width="6.23" height="0.87"/><rect class="cls-2" x="160.99" y="103.72" width="0.45" height="23.83" transform="translate(-7.32 220.31) rotate(-67.49)"/><text class="cls-4" transform="translate(257.07 86.55)">ПРИ<tspan class="cls-5" x="16.06" y="0">ХО</tspan><tspan x="26.91" y="0">ЖАЯ</tspan><tspan x="14.28" y="8.95">6,45</tspan></text><rect class="cls-2" x="104.86" y="84.3" width="0.45" height="23.83" transform="translate(-32.83 60.44) rotate(-27.94)"/><rect class="cls-2" x="141.58" y="35.88" width="21.29" height="0.4" transform="translate(49.11 153.73) rotate(-62.1)"/><rect class="cls-2" x="268.22" y="27.53" width="0.4" height="21.29" transform="translate(13.34 130.05) rotate(-27.9)"/><rect class="cls-2" x="205.99" y="101.43" width="0.27" height="14.23" transform="translate(27 257.48) rotate(-67.51)"/><rect class="cls-2" x="184.79" y="108.42" width="14.18" height="0.27" transform="translate(-26.93 81.66) rotate(-22.49)"/><rect class="cls-2" x="147.6" y="145.19" width="0.45" height="23.83"/><rect class="cls-2" x="147.6" y="179.16" width="0.45" height="23.83"/><rect class="cls-2" x="273.75" y="5.33" width="25.68" height="0.49" transform="translate(19.68 110.09) rotate(-22.5)"/><path class="cls-3" d="M204.44,8.63v4.2c0,7-14.36,7-14.36,0V8.63a.86.86,0,0,1,.86-.85h12.65A.85.85,0,0,1,204.44,8.63Z"/><path class="cls-3" d="M197.68,10.09c2.87.11,5.61,1.4,5.61,3.85,0,1.9-3,3.37-6,3.37s-6-1.47-6-3.37c0-2.45,2.74-3.74,5.61-3.85"/><path class="cls-3" d="M198,12.49a.77.77,0,1,1-1.53,0,.76.76,0,0,1,.34-.64v.22a.42.42,0,0,0,.42.42h0a.42.42,0,0,0,.42-.42v-.22A.77.77,0,0,1,198,12.49Z"/><path class="cls-3" d="M196.4,9a.52.52,0,1,1-.51-.52A.51.51,0,0,1,196.4,9Z"/><path class="cls-3" d="M199.15,9a.52.52,0,1,1-.52-.52A.51.51,0,0,1,199.15,9Z"/><path class="cls-3" d="M196.84,9.12v3a.42.42,0,0,0,.42.42h0a.42.42,0,0,0,.42-.42v-3a.23.23,0,0,0-.23-.23h-.38A.23.23,0,0,0,196.84,9.12Z"/><rect class="cls-2" x="168.45" y="6.49" width="38.19" height="13.25"/><path class="cls-3" d="M245.72,26.7c2,0,5.9-2.47,5.9-7.66,0-2.93-1.71-5-2.17-7a2.6,2.6,0,0,1-.56.06h-6.35A2.6,2.6,0,0,1,242,12c-.46,2-2.17,4.09-2.17,7C239.81,24.23,243.71,26.7,245.72,26.7Z"/><path class="cls-3" d="M251.68,7V9.28a2.8,2.8,0,0,1-2.79,2.8h-6.35a2.8,2.8,0,0,1-2.79-2.8V7a.47.47,0,0,1,.47-.47h11A.47.47,0,0,1,251.68,7Z"/><path class="cls-3" d="M246.48,9.28a.77.77,0,1,1-.77-.76A.76.76,0,0,1,246.48,9.28Z"/><path class="cls-3" d="M245.71,25.59c1.6,0,4.7-1.93,4.7-6,0-2.05-1.09-3.51-1.58-4.89-.13-.38-.24-.45-.57-.45h-5.09c-.33,0-.44.07-.57.45-.49,1.38-1.58,2.84-1.58,4.89,0,4,3.1,6,4.69,6Z"/><path class="cls-3" d="M245.71,15.72c-1.5,0-1.61.46-1.61,1s.72,1,1.61,1,1.62-.47,1.62-1S247.22,15.72,245.71,15.72Z"/><path class="cls-3" d="M230.38,33.78h4.2c7,0,7,14.36,0,14.36h-4.2a.86.86,0,0,1-.85-.86V34.64A.86.86,0,0,1,230.38,33.78Z"/><path class="cls-3" d="M231.84,40.54c.11-2.87,1.4-5.61,3.85-5.61,1.9,0,3.37,3,3.37,6s-1.47,6-3.37,6c-2.45,0-3.74-2.74-3.85-5.61"/><path class="cls-3" d="M234.24,40.19a.77.77,0,1,1-.64,1.19h.22a.42.42,0,0,0,.42-.42h0a.42.42,0,0,0-.42-.42h-.22A.77.77,0,0,1,234.24,40.19Z"/><path class="cls-3" d="M230.76,41.82a.52.52,0,1,1-.52.51A.51.51,0,0,1,230.76,41.82Z"/><path class="cls-3" d="M230.76,39.07a.52.52,0,1,1-.52.52A.51.51,0,0,1,230.76,39.07Z"/><path class="cls-3" d="M230.87,41.38h2.95a.42.42,0,0,0,.42-.42h0a.42.42,0,0,0-.42-.42h-2.95a.23.23,0,0,0-.23.23v.38A.23.23,0,0,0,230.87,41.38Z"/><path class="cls-3" d="M312,40.69a1,1,0,1,1,1.9,0,1.1,1.1,0,0,1-.49.92c-.71.56-.36,1,0,1l4.23,1a.85.85,0,0,1-.35,1.58h-8.66a.86.86,0,0,1-.3-1.61l3.94-.89"/><path class="cls-3" d="M312,48.26a1,1,0,1,1,1.9,0,1.12,1.12,0,0,1-.49.93c-.71.55-.36,1,0,1l4.23,1a.85.85,0,0,1-.35,1.58h-8.66a.86.86,0,0,1-.3-1.62l3.94-.89"/><path class="cls-3" d="M312,55.73a1,1,0,1,1,1.9,0,1.1,1.1,0,0,1-.49.93c-.71.55-.36,1,0,1l4.23,1a.85.85,0,0,1-.35,1.58h-8.66a.86.86,0,0,1-.3-1.61l3.94-.9"/><path class="cls-3" d="M312,33.23a1,1,0,1,1,1.9,0,1.1,1.1,0,0,1-.49.92c-.71.56-.36,1,0,1l4.23,1a.84.84,0,0,1-.35,1.57h-8.66a.86.86,0,0,1-.3-1.61l3.94-.89"/><path class="cls-3" d="M312,25.66a1,1,0,1,1,1.9,0,1.1,1.1,0,0,1-.49.93c-.71.55-.36,1,0,1l4.23,1a.85.85,0,0,1-.35,1.58h-8.66a.86.86,0,0,1-.3-1.61l3.94-.9"/><path class="cls-3" d="M312,18.2a1,1,0,1,1,1.9,0,1.1,1.1,0,0,1-.49.93c-.71.55-.36,1,0,1l4.23,1a.85.85,0,0,1-.35,1.58h-8.66a.86.86,0,0,1-.3-1.61l3.94-.9"/><rect class="cls-2" x="308.26" y="97.95" width="9.42" height="8.2" rx="0.46"/><polyline class="cls-3" points="308.43 102.05 313.91 102.05 317.68 103.61"/><line class="cls-2" x1="313.78" y1="102.06" x2="317.52" y2="100.63"/><line class="cls-2" x1="313.46" y1="100.94" x2="313.46" y2="98.91"/><rect class="cls-2" x="308.26" y="87.19" width="9.42" height="8.2" rx="0.46"/><polyline class="cls-3" points="308.43 91.29 313.91 91.29 317.68 92.85"/><line class="cls-2" x1="313.78" y1="91.3" x2="317.52" y2="89.88"/><line class="cls-2" x1="313.46" y1="90.18" x2="313.46" y2="88.15"/><rect class="cls-2" x="308.26" y="76.46" width="9.42" height="8.2" rx="0.46"/><polyline class="cls-3" points="308.43 80.56 313.91 80.56 317.68 82.12"/><line class="cls-2" x1="313.78" y1="80.56" x2="317.52" y2="79.13"/><line class="cls-2" x1="313.46" y1="79.45" x2="313.46" y2="77.42"/><rect class="cls-2" x="308.26" y="65.7" width="9.42" height="8.2" rx="0.46"/><polyline class="cls-3" points="308.43 69.8 313.91 69.8 317.68 71.36"/><line class="cls-2" x1="313.78" y1="69.81" x2="317.52" y2="68.39"/><line class="cls-2" x1="313.46" y1="68.69" x2="313.46" y2="66.66"/><polygon class="cls-3" points="183.53 145.8 242.97 145.8 242.97 210.3 258.91 210.3 258.91 129.95 183.53 129.95 183.53 145.8"/><rect class="cls-2" x="242.86" y="210.81" width="16.05" height="19.1"/><polygon class="cls-3" points="241.69 229.91 241.69 211.22 242.08 211.22 242.28 211.01 242.28 210.81 242.86 210.81 242.86 229.91 241.69 229.91"/><rect class="cls-2" x="240.11" y="211.65" width="0.58" height="17.46"/><polygon class="cls-3" points="241.69 229.91 241.69 210.81 241.3 210.81 241.3 227.65 241.3 228.68 241.3 228.88 241.3 229.11 241.3 229.91 241.69 229.91"/><rect class="cls-2" x="240.72" y="227.65" width="0.58" height="1.03"/><rect class="cls-2" x="240.72" y="212.25" width="0.54" height="0.82"/><path class="cls-3" d="M215.59,137.88a.78.78,0,1,1-1.06.74.81.81,0,0,1,.55-.76A.7.7,0,0,1,215.59,137.88Z"/><path class="cls-3" d="M216.44,132.6A.58.58,0,1,0,217,132,.59.59,0,0,0,216.44,132.6Z"/><path class="cls-3" d="M213,132.6a.58.58,0,1,0,.58-.58A.59.59,0,0,0,213,132.6Z"/><polygon class="cls-3" points="215.51 133 215.51 136.63 215.51 136.92 215.22 136.92 214.93 136.92 214.93 136.63 214.93 133 214.93 132.71 215.22 132.71 215.51 132.71 215.51 133"/><path class="cls-3" d="M221.1,143.72H209.54a1.27,1.27,0,0,1-1.27-1.27v-7.62a1.28,1.28,0,0,1,1.27-1.27h5.39v3.36h.58v-3.36h5.59a1.28,1.28,0,0,1,1.27,1.27v7.62A1.27,1.27,0,0,1,221.1,143.72Z"/><rect class="cls-2" x="244.07" y="165.66" width="13.89" height="23.36" rx="0.41"/><path class="cls-3" d="M252,184.8a2,2,0,1,0,2-2A2,2,0,0,0,252,184.8Z"/><path class="cls-3" d="M253.19,184.8a.8.8,0,1,0,.8-.8A.8.8,0,0,0,253.19,184.8Z"/><path class="cls-3" d="M246,184.8a2,2,0,1,0,2-2A2,2,0,0,0,246,184.8Z"/><path class="cls-3" d="M247.32,184.8a.7.7,0,1,0,.69-.69A.69.69,0,0,0,247.32,184.8Z"/><path class="cls-3" d="M252,177.34a2,2,0,1,0,2-2A2,2,0,0,0,252,177.34Z"/><path class="cls-3" d="M253.19,177.34a.8.8,0,1,0,.8-.8A.8.8,0,0,0,253.19,177.34Z"/><path class="cls-3" d="M252,169.88a2,2,0,1,0,2-2A2,2,0,0,0,252,169.88Z"/><path class="cls-3" d="M253.19,169.88a.8.8,0,1,0,.8-.8A.8.8,0,0,0,253.19,169.88Z"/><path class="cls-3" d="M246,169.88a2,2,0,1,0,2-2A2,2,0,0,0,246,169.88Z"/><path class="cls-3" d="M247.32,169.88a.7.7,0,0,0,1.39,0,.7.7,0,1,0-1.39,0Z"/><path class="cls-3" d="M246.83,179.16a.52.52,0,0,0-.52-.52.52.52,0,1,0,0,1A.52.52,0,0,0,246.83,179.16Z"/><path class="cls-3" d="M249.1,179.16a.52.52,0,0,0-.52-.52.52.52,0,1,0,0,1A.52.52,0,0,0,249.1,179.16Z"/><path class="cls-3" d="M249.1,177.34a.52.52,0,0,0-.52-.53.53.53,0,0,0-.53.53.52.52,0,0,0,.53.52A.52.52,0,0,0,249.1,177.34Z"/><path class="cls-3" d="M246.83,175.52a.52.52,0,0,0-.52-.53.53.53,0,1,0,0,1A.52.52,0,0,0,246.83,175.52Z"/><path class="cls-3" d="M249.1,175.52a.52.52,0,0,0-.52-.53.53.53,0,1,0,0,1A.52.52,0,0,0,249.1,175.52Z"/><rect class="cls-2" x="164.8" y="187.84" width="10.02" height="14.87"/><rect class="cls-2" x="203.88" y="187.84" width="10.61" height="14.87"/><rect class="cls-2" x="181.92" y="169.21" width="14.87" height="10.75"/><rect class="cls-2" x="174.82" y="179.96" width="29.06" height="28.33"/><rect class="cls-2" x="181.92" y="208.29" width="14.87" height="10.61"/><rect class="cls-2" x="215.68" y="115.21" width="8.2" height="9.42" rx="0.46"/><polyline class="cls-3" points="219.78 124.46 219.78 118.98 221.34 115.21"/><line class="cls-2" x1="219.79" y1="119.11" x2="218.36" y2="115.37"/><line class="cls-2" x1="218.67" y1="119.42" x2="216.63" y2="119.42"/><rect class="cls-2" x="204.92" y="115.21" width="8.2" height="9.42" rx="0.46"/><polyline class="cls-3" points="209.02 124.46 209.02 118.98 210.58 115.21"/><line class="cls-2" x1="209.03" y1="119.11" x2="207.6" y2="115.37"/><line class="cls-2" x1="207.91" y1="119.42" x2="205.88" y2="119.42"/><rect class="cls-2" x="305.41" y="14.05" width="14.82" height="95.25"/><polygon class="cls-3" points="155.13 58.2 155.11 73.19 109.4 73.14 109.41 58.36 155.13 58.2"/><path class="cls-3" d="M148.47,66.64a.94.94,0,1,1,0-1.88,1.09,1.09,0,0,1,.91.49c.55.7,1,.35,1,0l1-4.17a.84.84,0,0,1,1.56.34V70a.85.85,0,0,1-1.59.29l-.89-3.89"/><path class="cls-3" d="M126.9,66.64a1,1,0,0,1-1-1,1,1,0,0,1,1-.93,1.12,1.12,0,0,1,.91.49c.55.7,1,.35,1,0l1-4.17a.84.84,0,0,1,1.56.34V70a.85.85,0,0,1-1.59.29l-.88-3.89"/><path class="cls-3" d="M134.37,66.64a.94.94,0,1,1,0-1.88,1.12,1.12,0,0,1,.92.49c.54.7,1,.35,1,0l1-4.17a.84.84,0,0,1,1.56.34V70a.85.85,0,0,1-1.59.29l-.88-3.89"/><path class="cls-3" d="M141.72,66.64a.94.94,0,1,1,0-1.88,1.09,1.09,0,0,1,.91.49c.55.7,1,.35,1,0l1-4.17a.84.84,0,0,1,1.56.34V70a.85.85,0,0,1-1.59.29l-.89-3.89"/><path class="cls-3" d="M119.54,66.64a.94.94,0,1,1,0-1.88,1.09,1.09,0,0,1,.91.49c.55.7,1,.35,1,0l1-4.17a.84.84,0,0,1,1.56.34V70a.84.84,0,0,1-1.58.29l-.89-3.89"/><rect class="cls-2" x="112.49" y="9.2" width="8.09" height="9.29" rx="0.46"/><polyline class="cls-3" points="116.53 18.32 116.53 12.91 114.99 9.19"/><line class="cls-2" x1="116.52" y1="13.04" x2="117.93" y2="9.35"/><line class="cls-2" x1="117.62" y1="13.35" x2="119.63" y2="13.35"/><rect class="cls-2" x="123.09" y="9.2" width="8.09" height="9.29" rx="0.46"/><polyline class="cls-3" points="127.14 18.32 127.14 12.91 125.6 9.19"/><line class="cls-2" x1="127.12" y1="13.04" x2="128.53" y2="9.35"/><line class="cls-2" x1="128.23" y1="13.35" x2="130.23" y2="13.35"/><path class="cls-3" d="M112.19,66.64a1,1,0,0,1-1-1,1,1,0,0,1,1-.93,1.12,1.12,0,0,1,.91.49c.55.7,1,.35,1,0l1-4.17a.84.84,0,0,1,1.56.34V70a.85.85,0,0,1-1.59.29l-.88-3.89"/><polygon class="cls-3" points="155.13 6.49 155.11 21.48 109.4 21.43 109.41 6.65 155.13 6.49"/><rect class="cls-2" x="133.7" y="9.2" width="8.09" height="9.29" rx="0.46"/><polyline class="cls-3" points="137.74 18.32 137.74 12.91 136.21 9.19"/><line class="cls-2" x1="137.73" y1="13.04" x2="139.14" y2="9.35"/><line class="cls-2" x1="138.84" y1="13.35" x2="140.84" y2="13.35"/><rect class="cls-2" x="144.31" y="9.2" width="8.09" height="9.29" rx="0.46"/><polyline class="cls-3" points="148.35 18.32 148.35 12.91 146.81 9.19"/><line class="cls-2" x1="148.34" y1="13.04" x2="149.75" y2="9.35"/><line class="cls-2" x1="149.44" y1="13.35" x2="151.45" y2="13.35"/><rect class="cls-2" x="51.69" y="113.05" width="42.78" height="5.91"/><path class="cls-3" d="M56.24,116a1.68,1.68,0,1,0,1.68-1.68A1.68,1.68,0,0,0,56.24,116Z"/><path class="cls-3" d="M81,114.17H71.41a1,1,0,0,0-1,.82H81.92a1,1,0,0,0-1-.82Zm-10.53,1.55v.46a1,1,0,0,0,1,1H81a1,1,0,0,0,1-1v-.46Z"/><rect class="cls-2" x="61.21" y="114.99" width="29.95" height="0.73"/><path class="cls-3" d="M54.19,117a1,1,0,1,1,1-1A1,1,0,0,1,54.19,117Z"/><path class="cls-3" d="M109.79,225.38h2.27a2.26,2.26,0,0,0,2.26-2.26v-18.7a2.27,2.27,0,0,0-2.26-2.26h-2.27Z"/><path class="cls-3" d="M30.54,225.38H32.8V202.16H30.54a2.27,2.27,0,0,0-2.27,2.26v18.7A2.27,2.27,0,0,0,30.54,225.38Z"/><rect class="cls-2" x="84.13" y="220.86" width="25.67" height="4.53"/><rect class="cls-2" x="58.46" y="220.86" width="25.67" height="4.53"/><rect class="cls-2" x="32.8" y="220.86" width="25.67" height="4.53"/><path class="cls-3" d="M109.79,220.86H84.13v-16.3a2.4,2.4,0,0,1,2.39-2.4H107.4a2.4,2.4,0,0,1,2.39,2.4Z"/><path class="cls-3" d="M84.13,220.86H58.46v-16.3a2.41,2.41,0,0,1,2.4-2.4H81.73a2.41,2.41,0,0,1,2.4,2.4Z"/><path class="cls-3" d="M58.46,220.86H32.8V176.51a2.4,2.4,0,0,1,2.39-2.4H56.07a2.4,2.4,0,0,1,2.39,2.4Z"/><rect class="cls-2" x="71.19" y="175.34" width="28.72" height="16.24"/><rect class="cls-2" x="111.68" y="163.49" width="23.22" height="4.23" rx="1.38"/><rect class="cls-2" x="111.68" y="167.72" width="18.11" height="18.87" rx="1.38"/><rect class="cls-2" x="129.79" y="167.72" width="5.62" height="18.87" rx="1.38"/><rect class="cls-2" x="111.68" y="186.61" width="23.22" height="4.23" rx="1.38"/><text class="cls-4" transform="translate(160.32 91.13)"><tspan class="cls-5">Х<tspan class="cls-6" x="4.98" y="0">О</tspan><tspan class="cls-7" x="10.8" y="0">ЛЛ</tspan></tspan><tspan x="6.02" y="8.95">6</tspan><tspan class="cls-8" x="10.74" y="8.95">,</tspan><tspan class="cls-9" x="12.06" y="8.95">7</tspan></text><text class="cls-4" transform="translate(244.28 41.32)">С/У<tspan x="-1.35" y="8.95">2</tspan><tspan class="cls-10" x="3.35" y="8.95">,</tspan><tspan x="4.94" y="8.95">64</tspan></text><text class="cls-4" transform="translate(168.29 37.35)">ВАННАЯ<tspan x="7.91" y="8.95">5,29</tspan></text><text class="cls-4" transform="translate(41.07 80.63)">СПАЛЬНЯ<tspan x="9.29" y="8.95">16,96</tspan></text><text class="cls-4" transform="translate(58.32 146.63)"><tspan class="cls-11">Г<tspan class="cls-9" x="4.18" y="0">ОСТИНАЯ</tspan></tspan><tspan x="11.77" y="8.95">1</tspan><tspan class="cls-10" x="14.48" y="8.95">9</tspan><tspan x="18.96" y="8.95">,39</tspan></text><text class="cls-4" transform="translate(208.9 163.6)">КУХНЯ<tspan x="3.56" y="8.95">14,95</tspan></text><text class="cls-4" transform="translate(184.36 256.13)">Л<tspan class="cls-12" x="5.7" y="0">О</tspan><tspan x="11.52" y="0">ДЖИЯ</tspan><tspan x="9.82" y="8.95">2,33</tspan></text><text class="cls-13" transform="translate(184.88 121.99)">0<tspan class="cls-7" x="4.65" y="0">,88</tspan></text></g></g></svg>