<svg xmlns="http://www.w3.org/2000/svg" viewBox="0 0 372.92 260.04"><defs><style>.cls-1{fill:#00ada8;}.cls-1,.cls-3{fill-rule:evenodd;}.cls-2,.cls-3{fill:none;stroke:#231f20;stroke-linejoin:bevel;stroke-width:0.4px;}.cls-4{font-size:8px;fill:#231f20;font-family:ProximaNova-Regular, Proxima Nova;}.cls-5{letter-spacing:-0.03em;}.cls-6{letter-spacing:-0.07em;}.cls-7{letter-spacing:-0.04em;}.cls-8{letter-spacing:-0.03em;}.cls-9{letter-spacing:-0.03em;}.cls-10{letter-spacing:-0.08em;}.cls-11{letter-spacing:-0.03em;}.cls-12{letter-spacing:0em;}.cls-13{letter-spacing:0em;}</style></defs><title>2 комнатная_1</title><g id="Layer_2" data-name="Layer 2"><g id="Layer_1-2" data-name="Layer 1"><path class="cls-1" d="M11.88.2H0V207.68H3.12v45H42.6V247h-.72v-2.88H39.72V247h-31V200.36h31V221.6h2.16V187H35.52V177.8h72v31.08h5.64V172.16h-3.48v-2.88h-2.16v6.36H8.76V49.88H52.2V42H11.88V8.72H46.8V.2ZM173.52,168.68h2v3.48h8.28v2.16H162.72v14h-12v40.92H161.4V247h59.16V174.32H206.4v-2.16h33.84v-2.88h11.28v2.88h104V137.38h17.24V177.8H251.52v2.88H240.24V177.8h-14v74.88H70.8V247h77.88V172.16h24.84v-3.48ZM113.16,9.08v75.6h-5.64V49.88H100.8V42h3.6V8.72H96V.2h52.68V9.08Zm-3.48,112.2V144h-2.16V121.28ZM213.84,9.08h29.28v75.6h3.48v51.48H173.52v7.08h2v-4.92h73.2V51.2h17.86V36.92H255V.2H213.84V9.08Zm141.6,27.84H326.88V51.2h28.56V77.12h17.28V36.92ZM150.72,247h8.52v-15.6h-8.52V247Zm0-72.72v12h10v-12ZM33.48,187v2h6.24v9.24H23.52v-9.24H13.68V177.8h19.8V187Zm-22-9.24v13.44h10v7.08H8.76V177.8Z"/><rect class="cls-2" x="352.56" y="77.12" width="20.16" height="60.26"/><rect class="cls-2" x="367.41" y="105.21" width="2.26" height="4.07"/><path class="cls-3" d="M369.05,133.3v-24m0-4.07v-24"/><path class="cls-3" d="M367.92,133.3v-24m0-4.07v-24"/><rect class="cls-2" x="367.36" y="77.12" width="2.26" height="4.07"/><rect class="cls-2" x="367.36" y="133.3" width="2.26" height="4.07"/><rect class="cls-2" x="266.62" y="36.92" width="60.26" height="17.16"/><rect class="cls-2" x="294.72" y="39.97" width="4.07" height="2.26"/><path class="cls-3" d="M270.7,40.59h24m4.07,0h24"/><path class="cls-3" d="M270.7,41.72h24m4.07,0h24"/><rect class="cls-2" x="322.81" y="40.02" width="4.07" height="2.26"/><rect class="cls-2" x="266.62" y="40.02" width="4.07" height="2.26"/><rect class="cls-2" x="148.68" y="0.2" width="65.16" height="11.76"/><rect class="cls-2" x="179.22" y="3.25" width="4.07" height="2.26"/><path class="cls-3" d="M152.75,3.87h26.47m4.08,0h26.47"/><path class="cls-3" d="M152.75,5h26.47m4.08,0h26.47"/><rect class="cls-2" x="209.77" y="3.3" width="4.07" height="2.26"/><rect class="cls-2" x="148.68" y="3.3" width="4.07" height="2.26"/><rect class="cls-2" x="46.8" y="0.2" width="49.2" height="11.4"/><rect class="cls-2" x="69.36" y="3.25" width="4.07" height="2.26"/><path class="cls-3" d="M50.87,3.87H69.36m4.08,0H91.93"/><path class="cls-3" d="M50.87,5H69.36m4.08,0H91.93"/><rect class="cls-2" x="91.93" y="3.3" width="4.07" height="2.26"/><rect class="cls-2" x="46.8" y="3.3" width="4.07" height="2.26"/><line class="cls-2" x1="100.8" y1="47.73" x2="100.8" y2="44.97"/><rect class="cls-2" x="78.92" y="51.58" width="22.18" height="0.42" transform="translate(-12.96 38.31) rotate(-22.46)"/><rect class="cls-2" x="52.2" y="41.39" width="26.33" height="9.52"/><rect class="cls-2" x="74.46" y="45.02" width="4.07" height="2.26"/><line class="cls-2" x1="74.46" y1="45.65" x2="55.71" y2="45.57"/><line class="cls-2" x1="74.46" y1="46.78" x2="55.7" y2="46.78"/><rect class="cls-2" x="52.2" y="45.02" width="3.5" height="2.26"/><rect class="cls-2" x="169.07" y="146.11" width="0.44" height="23.26" transform="translate(-54.16 97.64) rotate(-27.92)"/><rect class="cls-2" x="103.13" y="146.71" width="0.44" height="23.26" transform="translate(-62.11 66.83) rotate(-27.92)"/><rect class="cls-2" x="106.27" y="74.5" width="0.45" height="23.83"/><rect class="cls-2" x="106.27" y="108.48" width="0.45" height="23.83"/><rect class="cls-2" x="183.69" y="169.12" width="20.82" height="0.39" transform="translate(-50 87.1) rotate(-22.48)"/><rect class="cls-2" x="35.45" y="234.54" width="19.87" height="0.38" transform="translate(-183.26 164.88) rotate(-62.07)"/><rect class="cls-2" x="45.21" y="254.43" width="25.91" height="0.49" transform="translate(-92.97 41.6) rotate(-22.48)"/><rect class="cls-2" x="30.49" y="159.86" width="31.94" height="14.02" rx="0.9"/><line class="cls-2" x1="61.11" y1="172.18" x2="48.16" y2="172.18"/><line class="cls-2" x1="61.11" y1="170.05" x2="48.16" y2="170.05"/><line class="cls-2" x1="61.11" y1="167.93" x2="48.16" y2="167.93"/><line class="cls-2" x1="61.11" y1="165.8" x2="48.16" y2="165.8"/><line class="cls-2" x1="61.11" y1="163.68" x2="48.16" y2="163.68"/><line class="cls-2" x1="61.11" y1="161.55" x2="48.16" y2="161.55"/><polygon class="cls-3" points="68.83 158.94 25.55 158.94 25.55 70.4 9.61 70.4 9.61 174.79 68.83 174.79 68.83 158.94"/><rect class="cls-2" x="9.61" y="50.73" width="16.05" height="19.1"/><polygon class="cls-3" points="26.82 50.73 26.82 69.42 26.44 69.42 26.24 69.63 26.24 69.83 25.66 69.83 25.66 50.73 26.82 50.73"/><rect class="cls-2" x="27.83" y="51.53" width="0.58" height="17.46"/><polygon class="cls-3" points="26.82 50.73 26.83 69.83 27.22 69.83 27.22 52.99 27.22 51.96 27.22 51.76 27.22 51.53 27.22 50.73 26.82 50.73"/><rect class="cls-2" x="27.22" y="51.96" width="0.58" height="1.03"/><rect class="cls-2" x="27.26" y="67.57" width="0.54" height="0.82"/><path class="cls-3" d="M39,166.86a.78.78,0,1,1,1.06-.74.82.82,0,0,1-.55.76A.7.7,0,0,1,39,166.86Z"/><path class="cls-3" d="M38.19,172.14a.58.58,0,1,0-.58.58A.59.59,0,0,0,38.19,172.14Z"/><path class="cls-3" d="M41.59,172.14a.58.58,0,1,0-.58.58A.59.59,0,0,0,41.59,172.14Z"/><polygon class="cls-3" points="39.12 171.74 39.12 168.11 39.12 167.82 39.41 167.82 39.7 167.82 39.7 168.11 39.7 171.74 39.7 172.03 39.41 172.03 39.12 172.03 39.12 171.74"/><path class="cls-3" d="M33.53,161H45.09a1.27,1.27,0,0,1,1.27,1.27v7.62a1.28,1.28,0,0,1-1.27,1.27H39.7v-3.36h-.58v3.36H33.53a1.28,1.28,0,0,1-1.27-1.27v-7.62A1.27,1.27,0,0,1,33.53,161Z"/><rect class="cls-2" x="10.56" y="107.78" width="13.89" height="23.36" rx="0.41"/><path class="cls-3" d="M16.51,112a2,2,0,1,0-2,2A2,2,0,0,0,16.51,112Z"/><path class="cls-3" d="M15.33,112a.8.8,0,0,0-.8-.79.8.8,0,0,0,0,1.59A.8.8,0,0,0,15.33,112Z"/><path class="cls-3" d="M22.48,112a2,2,0,1,0-2,2A2,2,0,0,0,22.48,112Z"/><path class="cls-3" d="M21.2,112a.7.7,0,1,0-.7.7A.69.69,0,0,0,21.2,112Z"/><path class="cls-3" d="M16.51,119.46a2,2,0,1,0-2,2A2,2,0,0,0,16.51,119.46Z"/><path class="cls-3" d="M15.33,119.46a.8.8,0,0,0-.8-.79.8.8,0,0,0,0,1.59A.8.8,0,0,0,15.33,119.46Z"/><circle class="cls-2" cx="14.53" cy="126.92" r="1.97"/><path class="cls-3" d="M15.33,126.92a.8.8,0,0,0-.8-.79.8.8,0,0,0,0,1.59A.8.8,0,0,0,15.33,126.92Z"/><circle class="cls-2" cx="20.5" cy="126.92" r="1.97"/><path class="cls-3" d="M21.2,126.92a.7.7,0,1,0-.7.7A.69.69,0,0,0,21.2,126.92Z"/><path class="cls-3" d="M21.69,117.64a.52.52,0,0,0,.52.52.52.52,0,1,0,0-1A.52.52,0,0,0,21.69,117.64Z"/><path class="cls-3" d="M19.42,117.64a.52.52,0,1,0,.52-.52A.52.52,0,0,0,19.42,117.64Z"/><path class="cls-3" d="M19.42,119.46a.52.52,0,1,0,.52-.52A.52.52,0,0,0,19.42,119.46Z"/><path class="cls-3" d="M21.69,121.29a.52.52,0,0,0,.52.52.52.52,0,0,0,.53-.52.53.53,0,0,0-.53-.53A.52.52,0,0,0,21.69,121.29Z"/><path class="cls-3" d="M19.42,121.29a.52.52,0,0,0,1,0,.52.52,0,1,0-1,0Z"/><rect class="cls-2" x="44.78" y="90.26" width="10.02" height="14.87"/><rect class="cls-2" x="83.86" y="90.26" width="10.61" height="14.87"/><rect class="cls-2" x="61.9" y="71.63" width="14.87" height="10.75"/><rect class="cls-2" x="54.81" y="82.38" width="29.06" height="28.33"/><rect class="cls-2" x="61.9" y="110.71" width="14.87" height="10.61"/><path class="cls-3" d="M61.87,186.86a1,1,0,1,1,0-1.9,1.1,1.1,0,0,1,.93.49c.55.71,1,.36,1,0l1-4.23a.85.85,0,0,1,1.58.35v8.67a.86.86,0,0,1-1.61.29l-.9-3.94"/><path class="cls-3" d="M69.44,186.86a1,1,0,1,1,0-1.9,1.1,1.1,0,0,1,.92.49c.56.71,1,.36,1,0l1-4.23a.85.85,0,0,1,1.58.35v8.67a.86.86,0,0,1-1.61.29l-.89-3.94"/><path class="cls-3" d="M76.9,186.86a1,1,0,1,1,0-1.9,1.12,1.12,0,0,1,.93.49c.55.71,1,.36,1,0l1-4.23a.85.85,0,0,1,1.58.35v8.67a.86.86,0,0,1-1.61.29l-.9-3.94"/><path class="cls-3" d="M54.41,186.86a1,1,0,1,1,0-1.9,1.1,1.1,0,0,1,.93.49c.55.71,1,.36,1,0l1-4.23a.85.85,0,0,1,1.58.35v8.67a.86.86,0,0,1-1.61.29l-.9-3.94"/><path class="cls-3" d="M46.83,186.86a1,1,0,1,1,0-1.9,1.12,1.12,0,0,1,.93.49c.55.71,1,.36,1,0l1-4.23a.85.85,0,0,1,1.58.35v8.67a.86.86,0,0,1-1.61.29l-.9-3.94"/><rect class="cls-2" x="95.08" y="181.2" width="8.2" height="9.42" rx="0.46"/><polyline class="cls-3" points="99.19 190.45 99.19 184.97 100.74 181.2"/><line class="cls-2" x1="99.19" y1="185.1" x2="97.76" y2="181.36"/><line class="cls-2" x1="98.08" y1="185.42" x2="96.04" y2="185.42"/><rect class="cls-2" x="84.33" y="181.2" width="8.2" height="9.42" rx="0.46"/><polyline class="cls-3" points="88.43 190.45 88.43 184.97 89.99 181.2"/><line class="cls-2" x1="88.44" y1="185.1" x2="87.01" y2="181.36"/><line class="cls-2" x1="87.32" y1="185.42" x2="85.29" y2="185.42"/><rect class="cls-2" x="43.35" y="178.65" width="62.61" height="14.82"/><path class="cls-3" d="M217.57,200.54h-4.2c-7,0-7-14.36,0-14.36h4.2a.86.86,0,0,1,.85.86v12.65A.85.85,0,0,1,217.57,200.54Z"/><path class="cls-3" d="M216.11,193.78c-.11,2.87-1.4,5.62-3.85,5.62-1.9,0-3.37-3-3.37-6s1.47-6,3.37-6c2.45,0,3.74,2.75,3.85,5.62"/><path class="cls-3" d="M213.71,194.13a.77.77,0,1,1,.64-1.18h-.22a.41.41,0,0,0-.42.41h0a.42.42,0,0,0,.42.42h.22A.77.77,0,0,1,213.71,194.13Z"/><path class="cls-3" d="M217.19,192.5a.51.51,0,1,1,.52-.51A.51.51,0,0,1,217.19,192.5Z"/><path class="cls-3" d="M217.19,195.25a.52.52,0,1,1,.52-.51A.51.51,0,0,1,217.19,195.25Z"/><path class="cls-3" d="M217.08,192.94h-3a.42.42,0,0,0-.42.42h0a.42.42,0,0,0,.42.42h3a.23.23,0,0,0,.23-.23v-.38A.23.23,0,0,0,217.08,192.94Z"/><path class="cls-3" d="M217.57,220h-4.2c-7,0-7-14.36,0-14.36h4.2a.86.86,0,0,1,.85.86v12.65A.85.85,0,0,1,217.57,220Z"/><path class="cls-3" d="M216.11,213.21c-.11,2.87-1.4,5.62-3.85,5.62-1.9,0-3.37-3-3.37-6s1.47-6,3.37-6c2.45,0,3.74,2.75,3.85,5.62"/><path class="cls-3" d="M213.71,213.56a.77.77,0,1,1,.64-1.18h-.22a.41.41,0,0,0-.42.41h0a.42.42,0,0,0,.42.42h.22A.77.77,0,0,1,213.71,213.56Z"/><path class="cls-3" d="M217.19,211.93a.51.51,0,1,1,.52-.51A.51.51,0,0,1,217.19,211.93Z"/><path class="cls-3" d="M217.19,214.68a.52.52,0,1,1,.52-.51A.51.51,0,0,1,217.19,214.68Z"/><path class="cls-3" d="M217.08,212.37h-3a.42.42,0,0,0-.42.42h0a.42.42,0,0,0,.42.42h3a.23.23,0,0,0,.23-.23v-.38A.23.23,0,0,0,217.08,212.37Z"/><rect class="cls-2" x="206.46" y="183.98" width="13.25" height="38.19"/><path class="cls-3" d="M24.6,221.42c-2,0-5.91-2.47-5.91-7.66,0-2.93,1.71-5,2.17-7a2.6,2.6,0,0,0,.56.06h6.35a2.6,2.6,0,0,0,.56-.06c.46,2,2.17,4.09,2.17,7C30.5,219,26.6,221.42,24.6,221.42Z"/><path class="cls-3" d="M18.63,201.68V204a2.8,2.8,0,0,0,2.79,2.8h6.35a2.81,2.81,0,0,0,2.8-2.8v-2.32a.48.48,0,0,0-.48-.47h-11A.47.47,0,0,0,18.63,201.68Z"/><path class="cls-3" d="M23.83,204a.77.77,0,1,0,.77-.76A.76.76,0,0,0,23.83,204Z"/><path class="cls-3" d="M24.6,220.31c-1.6,0-4.7-1.93-4.7-6,0-2,1.1-3.51,1.58-4.89.13-.38.24-.45.57-.45h5.09c.33,0,.44.07.57.45.49,1.38,1.58,2.84,1.58,4.89,0,4-3.1,6-4.69,6Z"/><path class="cls-3" d="M24.6,210.44c1.5,0,1.61.46,1.61,1s-.72,1.05-1.61,1.05S23,212.06,23,211.48,23.09,210.44,24.6,210.44Z"/><rect class="cls-2" x="173.5" y="225.9" width="46.21" height="20.29" rx="0.86"/><path class="cls-3" d="M213.18,227.41H186a8.67,8.67,0,0,0-8.64,8.64h0a8.67,8.67,0,0,0,8.64,8.63h27.19a3.52,3.52,0,0,0,3.5-3.5v-4.64H213.4a.49.49,0,0,1-.49-.49h0a.49.49,0,0,1,.49-.5h3.28v-4.64A3.52,3.52,0,0,0,213.18,227.41Z"/><path class="cls-3" d="M213.3,235a1.06,1.06,0,1,0,.93,1.55h-.83a.49.49,0,0,1-.49-.49h0a.49.49,0,0,1,.49-.5h.83A1.07,1.07,0,0,0,213.3,235Z"/><path class="cls-3" d="M218.15,236.54H213.4a.49.49,0,0,1-.49-.49h0a.49.49,0,0,1,.49-.5h4.75a.27.27,0,0,1,.27.27v.45A.27.27,0,0,1,218.15,236.54Z"/><path class="cls-3" d="M218.08,237.23a.62.62,0,1,0,.61.62A.61.61,0,0,0,218.08,237.23Z"/><path class="cls-3" d="M218.08,233.63a.62.62,0,1,0,.61.62A.61.61,0,0,0,218.08,233.63Z"/><path class="cls-3" d="M164,188.23v-.35l-.4-.13V175.86l.4-.12v-.36a.21.21,0,0,1,.19-.21h8.66a.45.45,0,0,1,.42.47V188a.45.45,0,0,1-.42.47h-8.66A.21.21,0,0,1,164,188.23Z"/><path class="cls-3" d="M173.24,186v-8.34a.11.11,0,0,1,.11-.11h.3a.41.41,0,0,1,.41.41v7.73a.41.41,0,0,1-.41.42h-.3A.11.11,0,0,1,173.24,186Z"/><line class="cls-2" x1="172.07" y1="188.45" x2="172.07" y2="175.17"/><path class="cls-3" d="M31.3,245.34v-4.2c0-7-14.36-7-14.36,0v4.2a.86.86,0,0,0,.86.85H30.45A.85.85,0,0,0,31.3,245.34Z"/><path class="cls-3" d="M24.54,243.88c2.87-.11,5.61-1.4,5.61-3.85,0-1.9-3-3.37-6-3.37s-6,1.47-6,3.37c0,2.45,2.74,3.74,5.61,3.85"/><path class="cls-3" d="M24.89,241.48a.77.77,0,1,0-1.19.64v-.22a.42.42,0,0,1,.42-.42h0a.42.42,0,0,1,.42.42v.22A.77.77,0,0,0,24.89,241.48Z"/><path class="cls-3" d="M23.26,245a.52.52,0,1,0-.51.52A.51.51,0,0,0,23.26,245Z"/><path class="cls-3" d="M26,245a.52.52,0,1,0-.52.52A.51.51,0,0,0,26,245Z"/><path class="cls-3" d="M23.7,244.85V241.9a.42.42,0,0,1,.42-.42h0a.42.42,0,0,1,.42.42v2.95a.23.23,0,0,1-.23.23h-.38A.23.23,0,0,1,23.7,244.85Z"/><path class="cls-3" d="M171.78,208.78c0-2-2.47-5.9-7.66-5.9-2.93,0-5,1.7-7,2.16a2.6,2.6,0,0,1,.06.56V212a2.69,2.69,0,0,1-.06.57c2,.45,4.09,2.16,7,2.16C169.31,214.68,171.78,210.78,171.78,208.78Z"/><path class="cls-3" d="M152,202.81h2.32a2.81,2.81,0,0,1,2.8,2.79V212a2.81,2.81,0,0,1-2.8,2.8H152a.48.48,0,0,1-.47-.48v-11A.47.47,0,0,1,152,202.81Z"/><path class="cls-3" d="M154.36,208a.77.77,0,1,1-.76.77A.76.76,0,0,1,154.36,208Z"/><path class="cls-3" d="M170.67,208.78c0-1.6-1.93-4.7-6-4.7-2.05,0-3.51,1.1-4.89,1.58-.38.14-.45.24-.45.57v5.1c0,.33.07.43.45.56,1.38.49,2.84,1.58,4.89,1.58,4,0,6-3.1,6-4.69Z"/><path class="cls-3" d="M160.8,208.78c0,1.5.46,1.61,1,1.61s1-.72,1-1.61-.47-1.62-1-1.62S160.8,207.27,160.8,208.78Z"/><rect class="cls-2" x="114.01" y="25.97" width="5.91" height="42.78"/><path class="cls-3" d="M117,64.2a1.68,1.68,0,1,0-1.68-1.68A1.68,1.68,0,0,0,117,64.2Z"/><path class="cls-3" d="M115.13,39.48V49a1,1,0,0,0,.82,1V38.51a1,1,0,0,0-.82,1ZM116.68,50h.45a1,1,0,0,0,1-1V39.48a1,1,0,0,0-1-1h-.45Z"/><rect class="cls-2" x="115.95" y="29.28" width="0.73" height="29.95"/><path class="cls-3" d="M118,66.24a1,1,0,1,1-1-1A1,1,0,0,1,118,66.24Z"/><path class="cls-3" d="M232.37,101.92v2.26a2.27,2.27,0,0,1-2.27,2.27H211.41a2.27,2.27,0,0,1-2.27-2.27v-2.26Z"/><path class="cls-3" d="M232.37,22.66v2.26H209.14V22.66a2.27,2.27,0,0,1,2.27-2.26H230.1A2.27,2.27,0,0,1,232.37,22.66Z"/><rect class="cls-2" x="227.84" y="76.25" width="4.53" height="25.67"/><rect class="cls-2" x="227.84" y="50.59" width="4.53" height="25.67"/><rect class="cls-2" x="227.84" y="24.92" width="4.53" height="25.67"/><path class="cls-3" d="M227.84,101.92V76.25h-16.3a2.41,2.41,0,0,0-2.4,2.4V99.53a2.4,2.4,0,0,0,2.4,2.39Z"/><path class="cls-3" d="M227.84,76.25V50.59h-16.3a2.4,2.4,0,0,0-2.4,2.39V73.86a2.4,2.4,0,0,0,2.4,2.39Z"/><path class="cls-3" d="M227.84,50.59V24.92H183.49a2.4,2.4,0,0,0-2.39,2.4V48.2a2.4,2.4,0,0,0,2.39,2.39Z"/><rect class="cls-2" x="182.32" y="63.32" width="16.24" height="28.72"/><rect class="cls-2" x="176.47" y="107.21" width="4.23" height="23.22" rx="1.38"/><rect class="cls-2" x="180.71" y="107.21" width="18.87" height="18.11" rx="1.38"/><rect class="cls-2" x="180.71" y="125.32" width="18.87" height="5.62" rx="1.38"/><rect class="cls-2" x="199.59" y="107.21" width="4.23" height="23.22" rx="1.38"/><rect class="cls-2" x="249.55" y="73.08" width="1.16" height="43.73"/><rect class="cls-2" x="250.71" y="73.08" width="52.01" height="43.73"/><rect class="cls-2" x="302.72" y="73.08" width="1.16" height="43.73"/><path class="cls-3" d="M251.9,113.29V98a.77.77,0,0,1,.76-.77h8.64v3.63l1.32,1.83v10.58a.76.76,0,0,1-.76.76h-9.2A.76.76,0,0,1,251.9,113.29Z"/><path class="cls-3" d="M251.9,91.88V76.6a.76.76,0,0,1,.76-.76h8.64v16.8h-8.64A.76.76,0,0,1,251.9,91.88Z"/><polygon class="cls-3" points="300.9 115.47 300.9 74.43 261.3 74.43 261.3 100.88 271.81 115.47 300.9 115.47"/><polygon class="cls-3" points="261.3 100.88 275.14 105.5 271.81 115.47 261.3 100.88"/><rect class="cls-2" x="249.55" y="60.55" width="9.75" height="9.68"/><path class="cls-3" d="M257.21,65.39a2.79,2.79,0,1,0-2.79,2.78A2.78,2.78,0,0,0,257.21,65.39Z"/><path class="cls-3" d="M255.4,65.39a1,1,0,1,0-2,0,1,1,0,0,0,2,0Z"/><line class="cls-2" x1="255.4" y1="65.39" x2="254.78" y2="65.39"/><line class="cls-2" x1="254.07" y1="65.39" x2="253.45" y2="65.39"/><line class="cls-2" x1="254.42" y1="66.36" x2="254.42" y2="65.74"/><line class="cls-2" x1="254.42" y1="65.03" x2="254.42" y2="64.41"/><path class="cls-3" d="M254.85,65.39a.43.43,0,1,0-.85,0,.43.43,0,1,0,.85,0Z"/><rect class="cls-2" x="249.55" y="119.68" width="9.75" height="9.68"/><path class="cls-3" d="M257.21,124.52a2.79,2.79,0,1,0-2.79,2.78A2.79,2.79,0,0,0,257.21,124.52Z"/><path class="cls-3" d="M255.4,124.52a1,1,0,1,0-2,0,1,1,0,0,0,2,0Z"/><line class="cls-2" x1="255.4" y1="124.52" x2="254.78" y2="124.52"/><line class="cls-2" x1="254.07" y1="124.52" x2="253.45" y2="124.52"/><line class="cls-2" x1="254.42" y1="125.49" x2="254.42" y2="124.87"/><line class="cls-2" x1="254.42" y1="124.16" x2="254.42" y2="123.54"/><path class="cls-3" d="M254.85,124.52a.43.43,0,1,0-.85,0,.43.43,0,0,0,.85,0Z"/><polygon class="cls-3" points="354.65 156.32 354.63 171.31 293.77 171.26 293.78 156.48 354.65 156.32"/><path class="cls-3" d="M347.14,164.76a.94.94,0,1,1,0-1.88,1.12,1.12,0,0,1,.91.49c.55.7,1,.35,1,0l1-4.17a.84.84,0,0,1,1.56.34v8.55a.85.85,0,0,1-1.59.29l-.88-3.89"/><path class="cls-3" d="M325.56,164.76a.94.94,0,1,1,0-1.88,1.09,1.09,0,0,1,.91.49c.55.7,1,.35,1,0l1-4.17a.84.84,0,0,1,1.56.34v8.55a.85.85,0,0,1-1.59.29l-.88-3.89"/><path class="cls-3" d="M333,164.76a.94.94,0,1,1,0-1.88,1.09,1.09,0,0,1,.91.49c.55.7,1,.35,1,0l1-4.17a.83.83,0,0,1,1.55.34v8.55a.85.85,0,0,1-1.59.29L335,164.5"/><path class="cls-3" d="M340.39,164.76a.94.94,0,1,1,0-1.88,1.12,1.12,0,0,1,.91.49c.55.7,1,.35,1,0l1-4.17a.84.84,0,0,1,1.56.34v8.55a.85.85,0,0,1-1.59.29l-.88-3.89"/><path class="cls-3" d="M318.21,164.76a1,1,0,0,1-1-.95,1,1,0,0,1,1-.93,1.12,1.12,0,0,1,.91.49c.55.7,1,.35,1,0l1-4.17a.84.84,0,0,1,1.56.34v8.55a.85.85,0,0,1-1.59.29l-.88-3.89"/><rect class="cls-2" x="296.75" y="159.17" width="8.09" height="9.29" rx="0.46"/><polyline class="cls-3" points="300.79 168.29 300.79 162.89 299.25 159.17"/><line class="cls-2" x1="300.78" y1="163.02" x2="302.19" y2="159.33"/><line class="cls-2" x1="301.88" y1="163.33" x2="303.89" y2="163.33"/><rect class="cls-2" x="307.35" y="159.17" width="8.09" height="9.29" rx="0.46"/><polyline class="cls-3" points="311.4 168.29 311.4 162.89 309.86 159.17"/><line class="cls-2" x1="311.39" y1="163.02" x2="312.79" y2="159.33"/><line class="cls-2" x1="312.49" y1="163.33" x2="314.5" y2="163.33"/><text class="cls-4" transform="translate(54.47 221.14)">ПРИ<tspan class="cls-5" x="16.06" y="0">ХО</tspan><tspan x="26.91" y="0">ЖАЯ</tspan><tspan x="17.08" y="8.95">5</tspan><tspan class="cls-6" x="21.8" y="8.95">,</tspan><tspan x="23.11" y="8.95">7</tspan></text><text class="cls-4" transform="translate(123.04 164.31)"><tspan class="cls-5">Х</tspan><tspan class="cls-7" x="4.98" y="0">О</tspan><tspan x="10.8" y="0">ЛЛ</tspan><tspan x="3.1" y="8.95">6,25</tspan></text><text class="cls-4" transform="translate(48.61 140.1)">КУХНЯ<tspan x="3.6" y="8.95">15,48</tspan></text><text class="cls-4" transform="translate(126.52 82.14)"><tspan class="cls-8">Г</tspan><tspan x="4.18" y="0">ОСТИНАЯ</tspan><tspan x="12.54" y="8.95">21,21</tspan></text><text class="cls-4" transform="translate(286.27 135.64)">СПАЛЬНЯ<tspan x="10.75" y="8.95">1</tspan><tspan class="cls-9" x="13.46" y="8.95">9</tspan><tspan class="cls-10" x="17.94" y="8.95">,</tspan><tspan x="19.16" y="8.95">12</tspan></text><text class="cls-4" transform="translate(169.99 204.1)">ВАННАЯ<tspan x="8.33" y="8.95">5</tspan><tspan class="cls-11" x="13.05" y="8.95">,</tspan><tspan x="14.64" y="8.95">67</tspan></text><text class="cls-4" transform="translate(24.52 226.54)">С/У<tspan x="-0.45" y="8.95">1</tspan><tspan class="cls-9" x="2.26" y="8.95">,</tspan><tspan class="cls-12" x="3.86" y="8.95">68</tspan></text><text class="cls-4" transform="translate(40.32 26.27)">Л<tspan class="cls-7" x="5.7" y="0">О</tspan><tspan class="cls-13" x="11.52" y="0">ДЖИЯ</tspan><tspan x="10.68" y="8.95">1,94</tspan></text></g></g></svg>