<?xml version="1.0" encoding="utf-8"?>
<!-- Generator: Adobe Illustrator 23.0.3, SVG Export Plug-In . SVG Version: 6.00 Build 0)  -->
<svg version="1.1" id="Layer_1" xmlns="http://www.w3.org/2000/svg" xmlns:xlink="http://www.w3.org/1999/xlink" x="0px" y="0px"
	 viewBox="0 0 511 511" style="enable-background:new 0 0 511 511;" xml:space="preserve">
<style type="text/css">
	.st0{fill:#478db1;}
	.st1{fill:#FFFFFF;}
	.st2{fill:#ffb229;}
</style>
<path class="st0" d="M502.1,22c-5-3.8-11.5-5-17.5-3.2c-23.1,6.6-52.6,4.8-89.9,2.4c-23.4-1.5-49.8-3.2-80.2-3.2
	c-23.8,0-45.2,10.5-59.9,27.1C239.9,28.5,218.5,18,194.6,18c-30.4,0-56.9,1.7-80.2,3.2c-37.3,2.4-66.8,4.2-89.9-2.4
	C18.4,17,12,18.2,7,22c-5,3.8-8,9.7-8,15.9v331.1c-0.1,21.4,8.2,41.5,23.3,56.6c15.1,15.1,35.2,23.5,56.5,23.5h144.7
	c11,0,20-8.9,20-20c0-11-8.9-20-20-20H78.8c-10.7,0-20.7-4.2-28.3-11.7c-7.5-7.6-11.7-17.6-11.7-28.3v-10.6
	c11.8,6.8,25.4,10.7,39.9,10.7h148.7c4.4,0,7.5,2.8,8.8,5.3c3.6,6.8,10.5,10.6,17.7,10.6c3.2,0,6.3-0.7,9.3-2.3
	c6-3.2,9.7-9,10.5-15.3c0.4-1.6,0.6-3.2,0.6-4.8v-265c0-22,17.9-39.9,39.9-39.9c29.1,0,54.9,1.6,77.7,3.1c29.8,1.9,55,3.5,78,1
	v143.6c0,11,8.9,20,20,20s20-8.9,20-20V37.9C510,31.7,507.1,25.8,502.1,22z"/>
<path class="st1" d="M78.8,329.4c-22,0-39.9-17.9-39.9-39.9V62c23,2.5,48.2,0.9,78-1c22.8-1.4,48.6-3.1,77.7-3.1
	c22,0,39.9,17.9,39.9,39.9v232c-2.3-0.3-4.6-0.5-7-0.5H78.8z"/>
<path class="st0" d="M200.6,130.7c0,11-8.9,20-20,20H93.8c-11,0-20-8.9-20-20s8.9-20,20-20h86.8
	C191.7,110.8,200.6,119.7,200.6,130.7z"/>
<path class="st0" d="M170.7,210.6c0,11-8.9,20-20,20H93.8c-11,0-20-8.9-20-20s8.9-20,20-20h56.9
	C161.7,190.6,170.7,199.6,170.7,210.6z"/>
<path class="st2" d="M407.8,272L298.2,381.4c-2.3,2.3-4,5.2-5,8.3l-23.9,78.6c-2.1,7-0.3,14.5,4.8,19.7c3.8,3.9,9,6,14.3,6
	c1.8,0,3.6-0.2,5.3-0.7l80.6-22.3c3.3-0.9,6.3-2.7,8.8-5.1l109.4-109.1c23.3-23.3,23.3-61.3,0-84.7
	C469.1,248.7,431.1,248.7,407.8,272z"/>
<polygon class="st1" points="358.6,433.9 318.1,445.1 329.9,406.1 403.9,332.3 432.1,360.5 "/>
<path class="st1" d="M464.2,328.5l-3.9,3.9l-28.2-28.2l3.9-3.8c7.8-7.8,20.4-7.8,28.2,0C472,308.1,472,320.7,464.2,328.5z"/>
</svg>
