<?xml version="1.0" encoding="iso-8859-1"?>
<!-- Generator: Adobe Illustrator 19.0.0, SVG Export Plug-In . SVG Version: 6.00 Build 0)  -->
<svg version="1.1" id="Capa_1" xmlns="http://www.w3.org/2000/svg" xmlns:xlink="http://www.w3.org/1999/xlink" x="0px" y="0px"
	 viewBox="0 0 512 512" style="enable-background:new 0 0 512 512;" xml:space="preserve">
<g>
	<g>
		<g>
			<path d="M384,96V0H128v96H0v416h512V96H384z M128,480H32v-48h96V480z M128,400H32V128h96V400z M288,480h-64v-64h64V480z M352,480
				h-32v-96H192v96h-32V32h192V480z M480,480h-96v-48h96V480z M480,400h-96V128h96V400z"/>
			<rect x="192" y="320" width="32" height="32"/>
			<rect x="288" y="320" width="32" height="32"/>
			<rect x="192" y="256" width="32" height="32"/>
			<rect x="288" y="256" width="32" height="32"/>
			<rect x="192" y="192" width="32" height="32"/>
			<rect x="288" y="192" width="32" height="32"/>
			<rect x="192" y="128" width="32" height="32"/>
			<rect x="288" y="128" width="32" height="32"/>
			<rect x="416" y="320" width="32" height="32"/>
			<rect x="416" y="256" width="32" height="32"/>
			<rect x="416" y="192" width="32" height="32"/>
			<rect x="64" y="320" width="32" height="32"/>
			<rect x="64" y="256" width="32" height="32"/>
			<rect x="64" y="192" width="32" height="32"/>
			<rect x="192" y="64" width="32" height="32"/>
			<rect x="288" y="64" width="32" height="32"/>
		</g>
	</g>
</g>
<g>
</g>
<g>
</g>
<g>
</g>
<g>
</g>
<g>
</g>
<g>
</g>
<g>
</g>
<g>
</g>
<g>
</g>
<g>
</g>
<g>
</g>
<g>
</g>
<g>
</g>
<g>
</g>
<g>
</g>
</svg>
