<svg id="Capa_1" enable-background="new 0 0 512 512" height="512" viewBox="0 0 512 512" width="512" xmlns="http://www.w3.org/2000/svg"><path d="m498.34 329.412v-168.962c0-4.142-3.357-7.5-7.5-7.5s-7.5 3.358-7.5 7.5v166.76h-18.15v-220.53c0-5.007 4.068-9.08 9.069-9.08 5.007 0 9.08 4.073 9.08 9.08v18.77c0 4.142 3.357 7.5 7.5 7.5s7.5-3.358 7.5-7.5v-18.77c0-13.278-10.803-24.08-24.08-24.08-13.118 0-23.812 10.555-24.058 23.622h-13.111c-13.688 0-24.823 11.136-24.823 24.824v120.991c0 13.688 11.136 24.824 24.823 24.824h13.101v50.35h-96.826l-4.391-61.592h25.33c7.183 0 13.025-5.843 13.025-13.025v-41.39c0-7.182-5.843-13.025-13.025-13.025h-55.358c6.477-7.529 10.406-17.311 10.406-27.998 0-23.709-19.289-42.998-42.998-42.998s-42.998 19.289-42.998 42.998c0 10.688 3.928 20.469 10.406 27.998h-22.762v-86.879h6.831c4.743 0 8.994-2.826 10.829-7.2 1.836-4.374.875-9.388-2.447-12.773l-84.05-85.619c-2.227-2.268-5.204-3.517-8.381-3.517s-6.154 1.249-8.382 3.517l-84.049 85.618c-3.323 3.385-4.285 8.399-2.45 12.773 1.836 4.374 6.087 7.201 10.831 7.201h6.828v86.879h-63.535c-7.182 0-13.025 5.842-13.025 13.025v41.39c0 7.182 5.843 13.025 13.025 13.025h25.322l-4.069 57.199c-.294 4.132 2.817 7.719 6.949 8.013.182.013.361.02.54.02 3.899 0 7.192-3.018 7.474-6.968l4.145-58.264h32.356l-29.791 229.191h-18.894l9.685-135.927c.294-4.132-2.816-7.72-6.948-8.014-4.123-.3-7.72 2.816-8.015 6.948l-9.919 139.207c-.244 3.286.903 6.557 3.147 8.974 2.249 2.422 5.436 3.812 8.742 3.812h24.91c5.982 0 11.064-4.472 11.817-10.383l30.391-233.809h185.593l8.006 61.592h-56.696c-13.008 0-23.59 10.583-23.59 23.59v16.39c0 13.013 10.582 23.6 23.59 23.6h8.737l-15.667 90.841c-1.099 6.354.349 12.755 4.075 18.021 3.716 5.25 9.246 8.731 15.571 9.802 1.411.239 2.75.355 4.094.355 11.738 0 21.705-8.41 23.7-19.996l17.077-99.024h7.375l14.119 108.618c.755 5.93 5.837 10.402 11.819 10.402h24.91c3.296 0 6.474-1.382 8.721-3.792 2.247-2.411 3.402-5.678 3.171-8.971l-7.575-106.257h72.916l17.085 99.022c1.996 11.587 11.959 19.998 23.691 19.998 1.344 0 2.683-.116 4.092-.355 6.332-1.072 11.866-4.554 15.583-9.805 3.727-5.265 5.175-11.664 4.076-18.015l-15.667-90.846h8.727c13.013 0 23.6-10.587 23.6-23.6v-16.388c0-9.459-5.601-17.631-13.66-21.388zm-61.25-67.551c-5.417 0-9.823-4.407-9.823-9.824v-120.991c0-5.417 4.406-9.824 9.823-9.824h13.101v140.639zm-178.735-91.68c0-15.438 12.56-27.998 27.998-27.998s27.998 12.56 27.998 27.998-12.56 27.998-27.998 27.998-27.998-12.56-27.998-27.998zm-104.574-151.6 76.294 77.718h-152.588zm-62.221 92.718h124.44v86.879h-24.61v-20.668c0-20.738-16.871-37.61-37.609-37.61-20.733 0-37.601 16.872-37.601 37.61v20.668h-24.62zm39.62 86.88v-20.669c0-12.467 10.139-22.61 22.601-22.61 12.467 0 22.609 10.143 22.609 22.61v20.668h-45.21zm-116.18 15h357.329v37.44h-357.329zm248.498 274.089c-.752 4.37-4.503 7.542-8.918 7.542-.494 0-1.013-.047-1.588-.145-4.866-.824-8.235-5.486-7.371-10.481l16.106-93.395h18.409zm-25.728-111.478c-4.736 0-8.59-3.858-8.59-8.6v-16.39c0-4.736 3.854-8.59 8.59-8.59h58.648l4.365 33.58zm93.609 119.02-29.791-229.191h32.347l16.338 229.191zm149.181-10.622c.854 4.941-2.455 9.643-7.384 10.478-.573.097-1.092.145-1.586.145-4.409 0-8.156-3.172-8.909-7.545l-16.646-96.475h18.418zm16.44-116.998c0 4.742-3.857 8.6-8.6 8.6h-131.572l-2.394-33.58h133.966c4.742 0 8.6 3.854 8.6 8.59z"/></svg>