<?xml version="1.0" encoding="iso-8859-1"?>
<!-- Generator: Adobe Illustrator 19.0.0, SVG Export Plug-In . SVG Version: 6.00 Build 0)  -->
<svg version="1.1" id="Capa_1" xmlns="http://www.w3.org/2000/svg" xmlns:xlink="http://www.w3.org/1999/xlink" x="0px" y="0px"
	 viewBox="0 0 344.576 344.576" style="enable-background:new 0 0 344.576 344.576;" xml:space="preserve">
<g>
	<g>
		<path d="M172.544,23.552c-60.416,0-109.568,49.152-109.568,109.568v184.32c0,3.072,2.048,5.12,5.12,5.12h208.896
			c3.072,0,5.12-2.048,5.12-5.12V133.12C282.112,72.704,232.96,23.552,172.544,23.552z M100.352,65.024L160.256,128h-87.04
			C74.752,103.424,84.992,81.408,100.352,65.024z M167.424,312.32H73.216V230.4h94.208V312.32z M167.424,220.16H73.216v-81.92
			h94.208V220.16z M167.424,120.32l-59.392-62.464c16.384-13.824,36.864-22.528,59.392-24.064V120.32z M271.36,128h-86.528
			l59.904-62.976C260.608,81.408,270.336,103.424,271.36,128z M177.664,33.792c22.528,1.024,43.52,9.728,59.392,24.064
			l-59.392,62.464V33.792z M271.872,312.32h-94.208V230.4h94.208V312.32z M271.872,220.16h-94.208v-81.92h94.208V220.16z"/>
	</g>
</g>
<g>
	<g>
		<path d="M265.728,37.376C241.664,13.312,208.384,0,172.544,0C100.352,0,44.032,52.224,40.448,121.856v217.6
			c0,3.072,2.048,5.12,5.12,5.12h253.44c3.072,0,5.12-2.048,5.12-5.12v-217.6C302.592,90.624,288.768,59.904,265.728,37.376z
			 M294.4,334.848H51.2v-212.48c2.56-64,55.296-112.128,121.344-112.128c56.832,0,118.272,41.984,121.856,112.128V334.848z"/>
	</g>
</g>
<g>
</g>
<g>
</g>
<g>
</g>
<g>
</g>
<g>
</g>
<g>
</g>
<g>
</g>
<g>
</g>
<g>
</g>
<g>
</g>
<g>
</g>
<g>
</g>
<g>
</g>
<g>
</g>
<g>
</g>
</svg>
